<svg width="800" height="800" viewBox="0 0 800 800" fill="none" xmlns="http://www.w3.org/2000/svg">
<g clip-path="url(#clip0_18_2)">
<g filter="url(#filter0_f_18_2)">
<g style="mix-blend-mode:lighten" filter="url(#filter1_f_18_2)">
<path d="M353.056 104.602H-303.17L-448.333 297.155C-448.333 297.155 -19.1666 272.155 248.611 620.559C516.389 968.963 389.872 790.928 500.75 481.01C611.633 171.091 353.056 104.602 353.056 104.602Z" fill="url(#paint0_linear_18_2)" style="mix-blend-mode:lighten"/>
</g>
<g style="mix-blend-mode:screen" filter="url(#filter2_f_18_2)">
<path d="M466.944 427.474C431.111 416.835 429.444 403.006 293.055 574.814C134.857 774.096 11.6666 927.474 -296.111 957.793C-559.575 983.747 407.194 1169.51 691.05 1222.46C722.967 1228.41 744.417 1168.09 727.989 1119.44C652.961 897.209 494.133 435.547 466.944 427.474V427.474Z" fill="url(#paint1_radial_18_2)" style="mix-blend-mode:screen"/>
</g>
<g style="mix-blend-mode:screen" filter="url(#filter3_f_18_2)">
<path d="M890.683 -50.1541L368.55 -120.938C290.205 -131.56 228.092 -6.25804 244.478 129.357L286.476 476.959C301.244 599.189 361.633 687.54 432.433 690.498L938.556 711.641C1018.66 714.987 1077.18 579.141 1053.92 443.837L994.256 96.5988C980.178 14.6773 939.05 -43.5972 890.683 -50.1541V-50.1541Z" fill="url(#paint2_linear_18_2)" style="mix-blend-mode:screen"/>
</g>
</g>
</g>
<defs>
<filter id="filter0_f_18_2" x="-501.275" y="-174.511" width="1613.29" height="1450.32" filterUnits="userSpaceOnUse" color-interpolation-filters="sRGB">
<feFlood flood-opacity="0" result="BackgroundImageFix"/>
<feBlend mode="normal" in="SourceGraphic" in2="BackgroundImageFix" result="shape"/>
<feGaussianBlur stdDeviation="26.471" result="effect1_foregroundBlur_18_2"/>
</filter>
<filter id="filter1_f_18_2" x="-648.333" y="-95.3982" width="1376.72" height="1106.79" filterUnits="userSpaceOnUse" color-interpolation-filters="sRGB">
<feFlood flood-opacity="0" result="BackgroundImageFix"/>
<feBlend mode="normal" in="SourceGraphic" in2="BackgroundImageFix" result="shape"/>
<feGaussianBlur stdDeviation="100" result="effect1_foregroundBlur_18_2"/>
</filter>
<filter id="filter2_f_18_2" x="-481.131" y="281.844" width="1354.78" height="1081.02" filterUnits="userSpaceOnUse" color-interpolation-filters="sRGB">
<feFlood flood-opacity="0" result="BackgroundImageFix"/>
<feBlend mode="normal" in="SourceGraphic" in2="BackgroundImageFix" result="shape"/>
<feGaussianBlur stdDeviation="70" result="effect1_foregroundBlur_18_2"/>
</filter>
<filter id="filter3_f_18_2" x="81.837" y="-281.569" width="1137.23" height="1153.27" filterUnits="userSpaceOnUse" color-interpolation-filters="sRGB">
<feFlood flood-opacity="0" result="BackgroundImageFix"/>
<feBlend mode="normal" in="SourceGraphic" in2="BackgroundImageFix" result="shape"/>
<feGaussianBlur stdDeviation="80" result="effect1_foregroundBlur_18_2"/>
</filter>
<linearGradient id="paint0_linear_18_2" x1="451.944" y1="489.176" x2="-367.749" y2="576.582" gradientUnits="userSpaceOnUse">
<stop offset="0.038" stop-color="#0900FF"/>
<stop offset="0.631" stop-color="#635DFF" stop-opacity="0"/>
<stop offset="1" stop-color="#BCBAFF"/>
</linearGradient>
<radialGradient id="paint1_radial_18_2" cx="0" cy="0" r="1" gradientUnits="userSpaceOnUse" gradientTransform="translate(-273.056 943.963) rotate(-0.0367253) scale(829.722 2003.82)">
<stop stop-color="#88E3CD" stop-opacity="0"/>
<stop offset="0.432" stop-color="#6CECB6" stop-opacity="0.38"/>
<stop offset="0.66" stop-color="#31CEA8"/>
<stop offset="0.848" stop-color="#66C4E7"/>
</radialGradient>
<linearGradient id="paint2_linear_18_2" x1="764.9" y1="33.4302" x2="142.136" y2="526.719" gradientUnits="userSpaceOnUse">
<stop offset="0.397" stop-color="#EE5D4A"/>
<stop offset="0.929" stop-color="#EC58D7"/>
</linearGradient>
<clipPath id="clip0_18_2">
<rect width="800" height="800" fill="white"/>
</clipPath>
</defs>
</svg>
