<svg width="800" height="1347" viewBox="0 0 800 1347" fill="none" xmlns="http://www.w3.org/2000/svg">
<g clip-path="url(#clip0_21_15)">
<g filter="url(#filter0_f_21_15)">
<g style="mix-blend-mode:lighten" filter="url(#filter1_f_21_15)">
<path d="M487.542 176H-887.768L-1192 500.195C-1192 500.195 -292.557 458.103 268.648 1044.7C829.854 1631.3 564.702 1331.55 797.078 809.746C1029.47 287.946 487.542 176 487.542 176Z" fill="url(#paint0_linear_21_15)" style="mix-blend-mode:lighten"/>
</g>
<g style="mix-blend-mode:screen" filter="url(#filter2_f_21_15)">
<path d="M516.601 700.482C465.224 682.565 462.835 659.274 267.283 948.617C40.4612 1284.23 -136.166 1542.53 -577.451 1593.59C-955.199 1637.3 430.933 1950.13 837.919 2039.31C883.681 2049.34 914.435 1947.75 890.881 1865.81C783.308 1491.56 555.584 714.077 516.601 700.482V700.482Z" fill="url(#paint1_radial_21_15)" style="mix-blend-mode:screen"/>
</g>
<g style="mix-blend-mode:screen" filter="url(#filter3_f_21_15)">
<path d="M1173.31 -84.7574L423.875 -203.939C311.424 -221.823 222.272 -10.8484 245.79 217.49L306.071 802.757C327.269 1008.56 413.947 1157.32 515.569 1162.3L1242.02 1197.9C1356.99 1203.53 1440.99 974.804 1407.61 746.989L1321.97 162.335C1301.76 24.401 1242.73 -73.7174 1173.31 -84.7574V-84.7574Z" fill="url(#paint2_linear_21_15)" style="mix-blend-mode:screen"/>
</g>
</g>
<g filter="url(#filter4_f_21_15)">
<rect x="29" y="1116" width="742" height="163" fill="#09FF30"/>
</g>
</g>
<defs>
<filter id="filter0_f_21_15" x="-1244.94" y="-257.942" width="2712.88" height="2350.88" filterUnits="userSpaceOnUse" color-interpolation-filters="sRGB">
<feFlood flood-opacity="0" result="BackgroundImageFix"/>
<feBlend mode="normal" in="SourceGraphic" in2="BackgroundImageFix" result="shape"/>
<feGaussianBlur stdDeviation="26.471" result="effect1_foregroundBlur_21_15"/>
</filter>
<filter id="filter1_f_21_15" x="-1392" y="-24" width="2447" height="1590" filterUnits="userSpaceOnUse" color-interpolation-filters="sRGB">
<feFlood flood-opacity="0" result="BackgroundImageFix"/>
<feBlend mode="normal" in="SourceGraphic" in2="BackgroundImageFix" result="shape"/>
<feGaussianBlur stdDeviation="100" result="effect1_foregroundBlur_21_15"/>
</filter>
<filter id="filter2_f_21_15" x="-782" y="551" width="1821" height="1629" filterUnits="userSpaceOnUse" color-interpolation-filters="sRGB">
<feFlood flood-opacity="0" result="BackgroundImageFix"/>
<feBlend mode="normal" in="SourceGraphic" in2="BackgroundImageFix" result="shape"/>
<feGaussianBlur stdDeviation="70" result="effect1_foregroundBlur_21_15"/>
</filter>
<filter id="filter3_f_21_15" x="82" y="-365" width="1493" height="1723" filterUnits="userSpaceOnUse" color-interpolation-filters="sRGB">
<feFlood flood-opacity="0" result="BackgroundImageFix"/>
<feBlend mode="normal" in="SourceGraphic" in2="BackgroundImageFix" result="shape"/>
<feGaussianBlur stdDeviation="80" result="effect1_foregroundBlur_21_15"/>
</filter>
<filter id="filter4_f_21_15" x="-255" y="832" width="1310" height="731" filterUnits="userSpaceOnUse" color-interpolation-filters="sRGB">
<feFlood flood-opacity="0" result="BackgroundImageFix"/>
<feBlend mode="normal" in="SourceGraphic" in2="BackgroundImageFix" result="shape"/>
<feGaussianBlur stdDeviation="142" result="effect1_foregroundBlur_21_15"/>
</filter>
<linearGradient id="paint0_linear_21_15" x1="694.792" y1="823.496" x2="-1012.57" y2="1050.12" gradientUnits="userSpaceOnUse">
<stop offset="0.038" stop-color="#0900FF"/>
<stop offset="0.631" stop-color="#635DFF" stop-opacity="0"/>
<stop offset="1" stop-color="#BCBAFF"/>
</linearGradient>
<radialGradient id="paint1_radial_21_15" cx="0" cy="0" r="1" gradientUnits="userSpaceOnUse" gradientTransform="translate(-544.395 1570.3) rotate(-0.043137) scale(1189.64 3374.63)">
<stop stop-color="#88E3CD" stop-opacity="0"/>
<stop offset="0.432" stop-color="#6CECB6" stop-opacity="0.38"/>
<stop offset="0.66" stop-color="#31CEA8"/>
<stop offset="0.848" stop-color="#66C4E7"/>
</radialGradient>
<linearGradient id="paint2_linear_21_15" x1="992.768" y1="55.9758" x2="-6.37535" y2="730.637" gradientUnits="userSpaceOnUse">
<stop offset="0.397" stop-color="#EE5D4A"/>
<stop offset="0.929" stop-color="#EC58D7"/>
</linearGradient>
<clipPath id="clip0_21_15">
<rect width="800" height="1347" fill="white"/>
</clipPath>
</defs>
</svg>
