<svg width="1308" height="4429" viewBox="0 0 1308 4429" fill="none" xmlns="http://www.w3.org/2000/svg">
<g clip-path="url(#clip0_19_7)">
<g filter="url(#filter0_f_19_7)">
<g style="mix-blend-mode:lighten" filter="url(#filter1_f_19_7)">
<path d="M-183.634 579H-4101.99L-4968.77 1645.03C-4968.77 1645.03 -2406.19 1506.62 -807.277 3435.49C791.637 5364.36 36.1999 4378.71 698.256 2662.9C1360.35 947.104 -183.634 579 -183.634 579Z" fill="url(#paint0_linear_19_7)" style="mix-blend-mode:lighten"/>
</g>
<g style="mix-blend-mode:screen" filter="url(#filter2_f_19_7)">
<path d="M2099.98 986.173C1793.85 927.267 1779.61 850.698 614.401 1801.95C-737.135 2905.3 -1789.58 3754.5 -4419.01 3922.37C-6669.85 4066.07 1589.52 5094.55 4014.58 5387.74C4287.25 5420.7 4470.5 5086.72 4330.15 4817.33C3689.17 3586.93 2332.26 1030.87 2099.98 986.173V986.173Z" fill="url(#paint1_radial_19_7)" style="mix-blend-mode:screen"/>
</g>
<g style="mix-blend-mode:screen" filter="url(#filter3_f_19_7)">
<path d="M9265.7 -277.648L2127.89 -669.511C1056.88 -728.312 207.773 -34.6383 431.771 716.127L1005.9 2640.46C1207.79 3317.13 2033.34 3806.24 3001.21 3822.62L9920.13 3939.66C11015.1 3958.19 11815.2 3206.14 11497.2 2457.1L10681.6 534.779C10489.1 81.2599 9926.89 -241.349 9265.7 -277.648V-277.648Z" fill="url(#paint2_linear_19_7)" style="mix-blend-mode:screen"/>
</g>
</g>
<g filter="url(#filter4_f_19_7)">
<rect x="-155" y="-182" width="309" height="4856" fill="white"/>
</g>
<g filter="url(#filter5_f_19_7)">
<rect x="1153" y="-182" width="309" height="4856" fill="white"/>
</g>
<circle cx="654" cy="4092" r="152" fill="#FFF500"/>
</g>
<defs>
<filter id="filter0_f_19_7" x="-5021.71" y="-725.942" width="16642.3" height="6168.88" filterUnits="userSpaceOnUse" color-interpolation-filters="sRGB">
<feFlood flood-opacity="0" result="BackgroundImageFix"/>
<feBlend mode="normal" in="SourceGraphic" in2="BackgroundImageFix" result="shape"/>
<feGaussianBlur stdDeviation="26.471" result="effect1_foregroundBlur_19_7"/>
</filter>
<filter id="filter1_f_19_7" x="-5168.77" y="379" width="6232.04" height="4313" filterUnits="userSpaceOnUse" color-interpolation-filters="sRGB">
<feFlood flood-opacity="0" result="BackgroundImageFix"/>
<feBlend mode="normal" in="SourceGraphic" in2="BackgroundImageFix" result="shape"/>
<feGaussianBlur stdDeviation="100" result="effect1_foregroundBlur_19_7"/>
</filter>
<filter id="filter2_f_19_7" x="-4943.63" y="815" width="9462.16" height="4715" filterUnits="userSpaceOnUse" color-interpolation-filters="sRGB">
<feFlood flood-opacity="0" result="BackgroundImageFix"/>
<feBlend mode="normal" in="SourceGraphic" in2="BackgroundImageFix" result="shape"/>
<feGaussianBlur stdDeviation="70" result="effect1_foregroundBlur_19_7"/>
</filter>
<filter id="filter3_f_19_7" x="235.67" y="-833" width="11492" height="4933" filterUnits="userSpaceOnUse" color-interpolation-filters="sRGB">
<feFlood flood-opacity="0" result="BackgroundImageFix"/>
<feBlend mode="normal" in="SourceGraphic" in2="BackgroundImageFix" result="shape"/>
<feGaussianBlur stdDeviation="80" result="effect1_foregroundBlur_19_7"/>
</filter>
<filter id="filter4_f_19_7" x="-369" y="-396" width="737" height="5284" filterUnits="userSpaceOnUse" color-interpolation-filters="sRGB">
<feFlood flood-opacity="0" result="BackgroundImageFix"/>
<feBlend mode="normal" in="SourceGraphic" in2="BackgroundImageFix" result="shape"/>
<feGaussianBlur stdDeviation="107" result="effect1_foregroundBlur_19_7"/>
</filter>
<filter id="filter5_f_19_7" x="939" y="-396" width="737" height="5284" filterUnits="userSpaceOnUse" color-interpolation-filters="sRGB">
<feFlood flood-opacity="0" result="BackgroundImageFix"/>
<feBlend mode="normal" in="SourceGraphic" in2="BackgroundImageFix" result="shape"/>
<feGaussianBlur stdDeviation="107" result="effect1_foregroundBlur_19_7"/>
</filter>
<linearGradient id="paint0_linear_19_7" x1="406.836" y1="2708.12" x2="-4478.63" y2="3269.97" gradientUnits="userSpaceOnUse">
<stop offset="0.038" stop-color="#0900FF"/>
<stop offset="0.631" stop-color="#635DFF" stop-opacity="0"/>
<stop offset="1" stop-color="#BCBAFF"/>
</linearGradient>
<radialGradient id="paint1_radial_19_7" cx="0" cy="0" r="1" gradientUnits="userSpaceOnUse" gradientTransform="translate(-4222.04 3845.79) rotate(-0.0238007) scale(7088.54 11094.5)">
<stop stop-color="#88E3CD" stop-opacity="0"/>
<stop offset="0.432" stop-color="#6CECB6" stop-opacity="0.38"/>
<stop offset="0.66" stop-color="#31CEA8"/>
<stop offset="0.848" stop-color="#66C4E7"/>
</radialGradient>
<linearGradient id="paint2_linear_19_7" x1="7546.18" y1="185.077" x2="4675.18" y2="5800.67" gradientUnits="userSpaceOnUse">
<stop offset="0.397" stop-color="#EE5D4A"/>
<stop offset="0.929" stop-color="#EC58D7"/>
</linearGradient>
<clipPath id="clip0_19_7">
<rect width="1308" height="4429" fill="white"/>
</clipPath>
</defs>
</svg>
