<svg width="800" height="1347" viewBox="0 0 800 1347" fill="none" xmlns="http://www.w3.org/2000/svg">
<g clip-path="url(#clip0_29_151)">
<rect width="800" height="1347" fill="url(#paint0_linear_29_151)"/>
<rect width="800" height="1431" transform="matrix(1 0 0 -1 0 1431)" fill="url(#paint1_linear_29_151)"/>
<path fill-rule="evenodd" clip-rule="evenodd" d="M468.038 340.22L522.453 458.863L524.832 464.051L520.466 467.727L442.94 532.996L438.465 536.764L433.721 533.34L315.873 448.288L372.826 599.014L374.739 604.077L370.537 607.488L235.227 717.323L231.233 720.565L226.77 718.007L202.54 704.117C169.673 685.276 141.264 659.646 119.176 628.993L163.658 771.262L164.427 773.721L163.523 776.133L102.441 939.061L115.549 957.068L190.801 874.249L194.245 870.458L199.029 872.286L246.677 890.494L250.97 892.134L251.458 896.704L267.988 1051.5H291.087L312.586 849.207L313.069 844.668L317.322 843.011L476.778 780.911L478.534 780.227L480.403 780.454L660.884 802.351L684.215 789.287L530.45 732.274L521.874 729.094L526.672 721.307L545.615 690.565L547.67 687.231L551.58 687.012L697.676 678.813L712.697 653.983H571.34C562.56 653.983 559.543 642.293 567.227 638.044L694.546 567.653V537.326L554.147 579.263L548.059 565.696L694.546 475.212V474.938V474.588V474.238V473.889V473.541V473.193V472.845V472.498V472.152V471.806V471.461V471.116V470.772V470.429V470.086V469.743V469.401V469.06V468.719V468.379V468.039V467.7V467.361V467.023V466.685V466.348V466.011V465.675V465.34V465.005V464.67V464.336V464.002V463.669V463.337V463.005V462.673V462.342V462.011V461.681V461.351V461.022V460.694V460.365V460.038V459.71V459.384V459.057V458.732V458.406V458.081V457.757V457.433V457.109V456.786V456.464V456.141V455.82V455.498V455.177V454.857V454.537V454.218V453.898V453.58V453.261V452.944V452.626V452.309V451.993V451.676V451.361V451.045V450.73V450.416V450.102V449.788V449.475V449.162V448.849V448.537V448.225V447.914V447.603V447.292V446.982V446.672V446.363V446.054V445.745V445.437V445.129V444.821V444.514V444.207V443.9V443.594V443.288V442.983V442.678V442.373V442.069V441.765V441.461V441.157V440.854V440.551V440.249V439.947V439.645V439.344V439.042V438.742V438.441V438.141V437.841V437.541V437.242V436.943V436.645V436.346V436.048V435.75V435.453V435.156V434.859V434.562V434.266V433.97V433.674V433.378V433.083V432.788V432.493V432.199V431.905V431.611V431.317V431.024V430.731V430.438V430.145V429.853V429.561V429.269V428.977V428.686V428.395V428.104V427.813V427.522V427.232V426.942V426.652V426.363V426.073V425.784V425.495V425.206V424.918V424.63V424.341V424.054V423.766V423.478V423.191V422.904V422.617V422.33V422.043V421.757V421.471V421.185V420.899V420.613V420.328V420.042V419.757V419.472V419.187V418.903V418.618V418.334V418.049V417.765V417.481V417.198V416.914V416.63V416.347V416.064V415.781V415.498V415.215V414.932V414.649V414.367V414.085V413.802V413.52V413.238V412.956V412.675V412.393V412.111V411.83V411.548V411.267V410.986V410.705V410.424V410.143V409.862V409.581V409.301V409.02V408.739V408.459V408.179V407.898V407.618V407.338V407.058V406.778V406.604L626.166 398.953C625.226 398.848 624.346 398.574 623.554 398.163L582.815 433.294L577.849 437.577L572.942 433.226L468.038 340.22ZM638.536 385.244L694.546 391.511V391.396V391.116V390.835V390.555V390.274V389.993V389.712V389.431V389.15V388.869V388.588V388.307V388.025V387.744V387.462V387.18V386.898V386.616V386.334V386.052V385.77V385.488V385.205V384.922V384.64V384.357V384.074V383.79V383.507V383.224V382.94V382.656V382.373V382.089V381.804V381.52V381.236V380.951V380.666V380.381V380.096V379.811V379.526V379.24V378.954V378.668V378.382V378.096V377.809V377.523V377.236V376.949V376.662V376.374V376.087V375.799V375.511V375.223V374.934V374.646V374.357V374.068V373.778V373.489V373.199V372.909V372.619V372.329V372.038V371.748V371.456V371.165V370.874V370.582V370.29V369.998V369.705V369.412V369.119V368.826V368.533V368.239V367.945V367.651V367.356V367.061V366.766V366.471V366.175V365.879V365.583V365.287V364.99V364.693V364.396V364.098V363.8V363.502V363.204V362.905V362.606V362.306V362.007V361.707V361.406V361.106V360.805V360.503V360.202V359.9V359.598V359.295V358.992V358.689V358.385V358.081V357.777V357.473V357.168V356.862V356.557V356.251V355.944V355.638V355.331V355.023V354.716V354.407V354.099V353.79V353.481V353.171V352.861V352.551V352.24V351.929V351.617V351.306V350.993V350.681V350.368V350.054V349.74V349.426V349.111V348.796V348.481V348.165V347.848V347.532V347.214V346.897V346.579V346.26V345.942V345.622V345.303V344.982V344.662V344.341V344.019V343.697V343.375V343.052V342.729V342.405V342.081V341.756V341.431V341.106V340.78V340.453V340.126V339.799V339.471V339.143V338.814V338.484V338.154V337.824V337.493V337.162V336.944L638.536 385.244ZM441.546 318.44C437.713 310.083 448.031 302.436 454.911 308.536L577.986 417.652L695.495 316.318C701.208 311.391 709.546 315.772 709.546 322.774V323.128V323.481V323.834V324.186V324.538V324.889V325.24V325.59V325.939V326.288V326.636V326.984V327.331V327.677V328.023V328.369V328.713V329.058V329.402V329.745V330.087V330.43V330.771V331.112V331.453V331.793V332.132V332.471V332.81V333.147V333.485V333.822V334.158V334.494V334.829V335.164V335.498V335.832V336.165V336.498V336.83V337.162V337.493V337.824V338.154V338.484V338.814V339.143V339.471V339.799V340.126V340.453V340.78V341.106V341.431V341.756V342.081V342.405V342.729V343.052V343.375V343.697V344.019V344.341V344.662V344.982V345.303V345.622V345.942V346.26V346.579V346.897V347.214V347.532V347.848V348.165V348.481V348.796V349.111V349.426V349.74V350.054V350.368V350.681V350.993V351.306V351.617V351.929V352.24V352.551V352.861V353.171V353.481V353.79V354.099V354.407V354.716V355.023V355.331V355.638V355.944V356.251V356.557V356.862V357.168V357.473V357.777V358.081V358.385V358.689V358.992V359.295V359.598V359.9V360.202V360.503V360.805V361.106V361.406V361.707V362.007V362.306V362.606V362.905V363.204V363.502V363.8V364.098V364.396V364.693V364.99V365.287V365.583V365.879V366.175V366.471V366.766V367.061V367.356V367.651V367.945V368.239V368.533V368.826V369.119V369.412V369.705V369.998V370.29V370.582V370.874V371.165V371.456V371.748V372.038V372.329V372.619V372.909V373.199V373.489V373.778V374.068V374.357V374.646V374.934V375.223V375.511V375.799V376.087V376.374V376.662V376.949V377.236V377.523V377.809V378.096V378.382V378.668V378.954V379.24V379.526V379.811V380.096V380.381V380.666V380.951V381.236V381.52V381.804V382.089V382.373V382.656V382.94V383.224V383.507V383.79V384.074V384.357V384.64V384.922V385.205V385.488V385.77V386.052V386.334V386.616V386.898V387.18V387.462V387.744V388.025V388.307V388.588V388.869V389.15V389.431V389.712V389.993V390.274V390.555V390.835V391.116V391.396V391.677V391.957V392.237V392.518V392.798V393.078V393.358V393.638V393.918V394.198V394.478V394.757V395.037V395.317V395.596V395.876V396.156V396.435V396.715V396.994V397.274V397.553V397.833V398.112V398.391V398.671V398.95V399.229V399.509V399.788V400.068V400.347V400.626V400.906V401.185V401.464V401.744V402.023V402.303V402.582V402.862V403.141V403.421V403.7V403.98V404.259V404.539V404.819V405.098V405.378V405.658V405.938V406.218V406.498V406.778V407.058V407.338V407.618V407.898V408.179V408.459V408.739V409.02V409.301V409.581V409.862V410.143V410.424V410.705V410.986V411.267V411.548V411.83V412.111V412.393V412.675V412.956V413.238V413.52V413.802V414.085V414.367V414.649V414.932V415.215V415.498V415.781V416.064V416.347V416.63V416.914V417.198V417.481V417.765V418.049V418.334V418.618V418.903V419.187V419.472V419.757V420.042V420.328V420.613V420.899V421.185V421.471V421.757V422.043V422.33V422.617V422.904V423.191V423.478V423.766V424.054V424.341V424.63V424.918V425.206V425.495V425.784V426.073V426.363V426.652V426.942V427.232V427.522V427.813V428.104V428.395V428.686V428.977V429.269V429.561V429.853V430.145V430.438V430.731V431.024V431.317V431.611V431.905V432.199V432.493V432.788V433.083V433.378V433.674V433.97V434.266V434.562V434.859V435.156V435.453V435.75V436.048V436.346V436.645V436.943V437.242V437.541V437.841V438.141V438.441V438.742V439.042V439.344V439.645V439.947V440.249V440.551V440.854V441.157V441.461V441.765V442.069V442.373V442.678V442.983V443.288V443.594V443.9V444.207V444.514V444.821V445.129V445.437V445.745V446.054V446.363V446.672V446.982V447.292V447.603V447.914V448.225V448.537V448.849V449.162V449.475V449.788V450.102V450.416V450.73V451.045V451.361V451.676V451.993V452.309V452.626V452.944V453.261V453.58V453.898V454.218V454.537V454.857V455.177V455.498V455.82V456.141V456.464V456.786V457.109V457.433V457.757V458.081V458.406V458.732V459.057V459.384V459.71V460.038V460.365V460.694V461.022V461.351V461.681V462.011V462.342V462.673V463.005V463.337V463.669V464.002V464.336V464.67V465.005V465.34V465.675V466.011V466.348V466.685V467.023V467.361V467.7V468.039V468.379V468.719V469.06V469.401V469.743V470.086V470.429V470.772V471.116V471.461V471.806V472.152V472.498V472.845V473.193V473.541V473.889V474.238V474.588V474.938V475.289V475.64V475.992V476.345V476.698V477.052V477.406V477.761V478.117V478.473V478.83C709.546 481.72 708.067 484.49 705.513 486.068L604.173 548.665L698.613 520.456C704.065 518.828 709.546 522.911 709.546 528.601V571.487C709.546 574.58 707.865 577.429 705.158 578.925L596.53 638.983H724.226C730.847 638.983 734.926 646.218 731.499 651.883L708.736 689.511C707.284 691.911 704.74 693.44 701.939 693.598L556.331 701.769L544.24 721.389L702.623 780.115C709.42 782.635 710.146 791.96 703.821 795.501L666.361 816.476C664.787 817.357 662.974 817.714 661.184 817.497L480.467 795.572L327.02 855.332L305.385 1058.9C304.925 1063.22 301.279 1066.5 296.932 1066.5H262.146C257.8 1066.5 254.155 1063.22 253.694 1058.9L237.031 902.866L198.458 888.126L121.283 973.063C117.66 977.05 111.29 976.705 108.12 972.35L88.2535 945.06C86.5718 942.749 86.1634 939.749 87.1665 937.073L148.573 773.279L91.0265 589.225C88.0751 579.786 100.899 573.767 106.274 582.07L124.301 609.914C145.991 643.418 175.373 671.254 210 691.103L229.767 702.435L356.882 599.253L294.203 433.375C291.225 425.493 300.297 418.547 307.129 423.478L437.755 517.753L506.439 459.928L441.546 318.44ZM517.485 480.806C522.563 475.73 530.794 475.732 535.87 480.809L567.194 512.145C572.27 517.223 572.269 525.454 567.191 530.53C562.113 535.606 553.882 535.604 548.806 530.526L517.482 499.191C512.406 494.113 512.407 485.882 517.485 480.806ZM472.809 522.416C477.887 517.34 486.118 517.341 491.194 522.419L524.573 555.809C529.648 560.887 529.647 569.118 524.569 574.194C519.492 579.27 511.26 579.268 506.184 574.191L472.806 540.8C467.73 535.723 467.732 527.491 472.809 522.416Z" fill="url(#paint2_linear_29_151)" fill-opacity="0.2"/>
<circle cx="183" cy="264" r="96" fill="url(#paint3_linear_29_151)"/>
<circle cx="638" cy="925" r="68" fill="url(#paint4_linear_29_151)"/>
<path opacity="0.3" d="M629 402L627.92 399.08L625 398L627.92 396.92L629 394L630.08 396.92L633 398L630.08 399.08L629 402Z" fill="white"/>
<path opacity="0.3" d="M225 88L223.92 85.0804L221 84L223.92 82.9196L225 80L226.08 82.9196L229 84L226.08 85.0804L225 88Z" fill="white"/>
<path opacity="0.3" d="M486 515L484.92 512.08L482 511L484.92 509.92L486 507L487.08 509.92L490 511L487.08 512.08L486 515Z" fill="white"/>
<path opacity="0.3" d="M66 558L64.9196 555.08L62 554L64.9196 552.92L66 550L67.0804 552.92L70 554L67.0804 555.08L66 558Z" fill="white"/>
<path opacity="0.3" d="M80 394L78.9196 391.08L76 390L78.9196 388.92L80 386L81.0804 388.92L84 390L81.0804 391.08L80 394Z" fill="white"/>
<path opacity="0.3" d="M402 74L400.92 71.0804L398 70L400.92 68.9196L402 66L403.08 68.9196L406 70L403.08 71.0804L402 74Z" fill="white"/>
<path opacity="0.3" d="M432 217L430.92 214.08L428 213L430.92 211.92L432 209L433.08 211.92L436 213L433.08 214.08L432 217Z" fill="white"/>
<path opacity="0.3" d="M566 314L564.92 311.08L562 310L564.92 308.92L566 306L567.08 308.92L570 310L567.08 311.08L566 314Z" fill="white"/>
<circle cx="669" cy="221" r="4" transform="rotate(-180 669 221)" fill="#C4C4C4" fill-opacity="0.3"/>
<circle cx="394" cy="327" r="4" transform="rotate(-180 394 327)" fill="#C4C4C4" fill-opacity="0.3"/>
<circle cx="748" cy="520" r="4" transform="rotate(-180 748 520)" fill="#C4C4C4" fill-opacity="0.3"/>
<circle cx="621" cy="37" r="4" transform="rotate(-180 621 37)" fill="#C4C4C4" fill-opacity="0.3"/>
<circle cx="728" cy="92" r="4" transform="rotate(-180 728 92)" fill="#C4C4C4" fill-opacity="0.3"/>
<circle cx="45" cy="45" r="4" transform="rotate(-180 45 45)" fill="#C4C4C4" fill-opacity="0.3"/>
<circle cx="66" cy="205" r="4" transform="rotate(-180 66 205)" fill="#C4C4C4" fill-opacity="0.3"/>
<circle cx="270" cy="516" r="4" transform="rotate(-180 270 516)" fill="#C4C4C4" fill-opacity="0.3"/>
<rect width="800" height="611" transform="matrix(-1 8.74228e-08 8.74228e-08 1 800 736)" fill="url(#paint5_linear_29_151)"/>
</g>
<defs>
<linearGradient id="paint0_linear_29_151" x1="400" y1="-57" x2="400" y2="1347" gradientUnits="userSpaceOnUse">
<stop stop-color="#0476E0"/>
<stop offset="1" stop-color="#00CFDD"/>
</linearGradient>
<linearGradient id="paint1_linear_29_151" x1="400" y1="70.0747" x2="400" y2="1431" gradientUnits="userSpaceOnUse">
<stop stop-color="#0476E0" stop-opacity="0"/>
<stop offset="1" stop-color="#0476E0"/>
</linearGradient>
<linearGradient id="paint2_linear_29_151" x1="410" y1="306" x2="410" y2="1039.5" gradientUnits="userSpaceOnUse">
<stop stop-color="#E129FF"/>
<stop offset="1" stop-color="#CE18B1"/>
</linearGradient>
<linearGradient id="paint3_linear_29_151" x1="267.5" y1="186" x2="183" y2="277" gradientUnits="userSpaceOnUse">
<stop stop-color="#08B0BB"/>
<stop offset="1" stop-color="#0CAABB" stop-opacity="0"/>
</linearGradient>
<linearGradient id="paint4_linear_29_151" x1="697.854" y1="869.75" x2="638" y2="934.208" gradientUnits="userSpaceOnUse">
<stop stop-color="#11E6F4"/>
<stop offset="1" stop-color="#0CAABB" stop-opacity="0"/>
</linearGradient>
<linearGradient id="paint5_linear_29_151" x1="400" y1="0" x2="400" y2="611" gradientUnits="userSpaceOnUse">
<stop offset="0.333755" stop-color="#0477E0" stop-opacity="0"/>
<stop offset="1" stop-color="#00CFDD"/>
</linearGradient>
<clipPath id="clip0_29_151">
<rect width="800" height="1347" fill="white"/>
</clipPath>
</defs>
</svg>
