<svg width="163" height="145" viewBox="0 0 163 145" fill="none" xmlns="http://www.w3.org/2000/svg">
<path fill-rule="evenodd" clip-rule="evenodd" d="M144.889 18.125H126.778H108.666H54.3331H36.222H18.1109V90.625H36.222H54.3331V126.875H108.666V90.625H126.778H144.889V18.125Z" fill="#F25C5C"/>
<rect width="18.1111" height="18.125" transform="matrix(-1 0 0 1 90.5557 18.125)" fill="black"/>
<rect width="18.1111" height="18.125" transform="matrix(-1 0 0 1 108.667 108.75)" fill="black"/>
<rect width="18.1111" height="18.125" transform="matrix(-1 0 0 1 126.778 90.625)" fill="black"/>
<rect width="18.1111" height="18.125" transform="matrix(-1 0 0 1 144.889 72.5)" fill="black"/>
<rect width="18.1111" height="18.125" transform="matrix(-1 0 0 1 163 54.375)" fill="black"/>
<rect width="18.1111" height="18.125" transform="matrix(-1 0 0 1 163 36.25)" fill="black"/>
<rect width="18.1111" height="18.125" transform="matrix(-1 0 0 1 163 18.125)" fill="black"/>
<rect width="18.1111" height="18.125" transform="matrix(-1 0 0 1 144.889 0)" fill="black"/>
<rect width="18.1111" height="18.125" transform="matrix(-1 0 0 1 126.778 0)" fill="black"/>
<rect width="18.1111" height="18.125" transform="matrix(-1 0 0 1 108.667 0)" fill="black"/>
<rect x="72.4443" y="126.875" width="18.1111" height="18.125" fill="black"/>
<rect x="54.3335" y="108.75" width="18.1111" height="18.125" fill="black"/>
<rect x="36.2222" y="90.625" width="18.1111" height="18.125" fill="black"/>
<rect x="18.1113" y="72.5" width="18.1111" height="18.125" fill="black"/>
<rect y="54.375" width="18.1111" height="18.125" fill="black"/>
<rect y="36.25" width="18.1111" height="18.125" fill="black"/>
<rect y="18.125" width="18.1111" height="18.125" fill="black"/>
<rect x="18.1113" width="18.1111" height="18.125" fill="black"/>
<rect x="36.2222" width="18.1111" height="18.125" fill="black"/>
<rect x="54.3335" width="18.1111" height="18.125" fill="black"/>
<rect x="18.1113" y="18.125" width="36.2222" height="18.125" fill="white"/>
<rect x="18.1113" y="36.25" width="18.1111" height="36.25" fill="white"/>
</svg>
