<svg width="208" height="221" viewBox="0 0 208 221" fill="none" xmlns="http://www.w3.org/2000/svg">
<rect width="208" height="221" rx="16" fill="url(#paint0_linear_44_598)"/>
<path d="M34.2815 149.288C32.9535 149.288 31.6655 149.112 30.4175 148.76C29.1855 148.392 28.1935 147.92 27.4415 147.344L28.7615 144.416C29.4815 144.944 30.3375 145.368 31.3295 145.688C32.3215 146.008 33.3135 146.168 34.3055 146.168C35.4095 146.168 36.2255 146.008 36.7535 145.688C37.2815 145.352 37.5455 144.912 37.5455 144.368C37.5455 143.968 37.3855 143.64 37.0655 143.384C36.7615 143.112 36.3615 142.896 35.8655 142.736C35.3855 142.576 34.7295 142.4 33.8975 142.208C32.6175 141.904 31.5695 141.6 30.7535 141.296C29.9375 140.992 29.2335 140.504 28.6415 139.832C28.0655 139.16 27.7775 138.264 27.7775 137.144C27.7775 136.168 28.0415 135.288 28.5695 134.504C29.0975 133.704 29.8895 133.072 30.9455 132.608C32.0175 132.144 33.3215 131.912 34.8575 131.912C35.9295 131.912 36.9775 132.04 38.0015 132.296C39.0255 132.552 39.9215 132.92 40.6895 133.4L39.4895 136.352C37.9375 135.472 36.3855 135.032 34.8335 135.032C33.7455 135.032 32.9375 135.208 32.4095 135.56C31.8975 135.912 31.6415 136.376 31.6415 136.952C31.6415 137.528 31.9375 137.96 32.5295 138.248C33.1375 138.52 34.0575 138.792 35.2895 139.064C36.5695 139.368 37.6175 139.672 38.4335 139.976C39.2495 140.28 39.9455 140.76 40.5215 141.416C41.1135 142.072 41.4095 142.96 41.4095 144.08C41.4095 145.04 41.1375 145.92 40.5935 146.72C40.0655 147.504 39.2655 148.128 38.1935 148.592C37.1215 149.056 35.8175 149.288 34.2815 149.288ZM43.8022 136.088H47.5462V149H43.8022V136.088ZM45.6742 134.288C44.9862 134.288 44.4262 134.088 43.9942 133.688C43.5622 133.288 43.3462 132.792 43.3462 132.2C43.3462 131.608 43.5622 131.112 43.9942 130.712C44.4262 130.312 44.9862 130.112 45.6742 130.112C46.3622 130.112 46.9222 130.304 47.3542 130.688C47.7862 131.072 48.0022 131.552 48.0022 132.128C48.0022 132.752 47.7862 133.272 47.3542 133.688C46.9222 134.088 46.3622 134.288 45.6742 134.288ZM51.021 131.192H54.765V149H51.021V131.192ZM58.2397 131.192H61.9837V149H58.2397V131.192ZM78.2745 136.088L72.4425 149.792C71.8505 151.28 71.1145 152.328 70.2345 152.936C69.3705 153.544 68.3225 153.848 67.0905 153.848C66.4185 153.848 65.7545 153.744 65.0985 153.536C64.4425 153.328 63.9065 153.04 63.4905 152.672L64.8585 150.008C65.1465 150.264 65.4745 150.464 65.8425 150.608C66.2265 150.752 66.6025 150.824 66.9705 150.824C67.4825 150.824 67.8985 150.696 68.2185 150.44C68.5385 150.2 68.8265 149.792 69.0825 149.216L69.1305 149.096L63.5385 136.088H67.4025L71.0265 144.848L74.6745 136.088H78.2745ZM80.0662 132.2H87.6982C89.5222 132.2 91.1302 132.552 92.5222 133.256C93.9302 133.944 95.0182 134.92 95.7862 136.184C96.5702 137.448 96.9622 138.92 96.9622 140.6C96.9622 142.28 96.5702 143.752 95.7862 145.016C95.0182 146.28 93.9302 147.264 92.5222 147.968C91.1302 148.656 89.5222 149 87.6982 149H80.0662V132.2ZM87.5062 145.808C89.1862 145.808 90.5222 145.344 91.5142 144.416C92.5222 143.472 93.0262 142.2 93.0262 140.6C93.0262 139 92.5222 137.736 91.5142 136.808C90.5222 135.864 89.1862 135.392 87.5062 135.392H83.9542V145.808H87.5062ZM105.774 149.192C104.414 149.192 103.19 148.912 102.102 148.352C101.03 147.776 100.19 146.984 99.5823 145.976C98.9743 144.968 98.6703 143.824 98.6703 142.544C98.6703 141.264 98.9743 140.12 99.5823 139.112C100.19 138.104 101.03 137.32 102.102 136.76C103.19 136.184 104.414 135.896 105.774 135.896C107.134 135.896 108.35 136.184 109.422 136.76C110.494 137.32 111.334 138.104 111.942 139.112C112.55 140.12 112.854 141.264 112.854 142.544C112.854 143.824 112.55 144.968 111.942 145.976C111.334 146.984 110.494 147.776 109.422 148.352C108.35 148.912 107.134 149.192 105.774 149.192ZM105.774 146.12C106.734 146.12 107.518 145.8 108.126 145.16C108.75 144.504 109.062 143.632 109.062 142.544C109.062 141.456 108.75 140.592 108.126 139.952C107.518 139.296 106.734 138.968 105.774 138.968C104.814 138.968 104.022 139.296 103.398 139.952C102.774 140.592 102.462 141.456 102.462 142.544C102.462 143.632 102.774 144.504 103.398 145.16C104.022 145.8 104.814 146.12 105.774 146.12ZM128.677 136.088V146.84C128.677 149.208 128.061 150.968 126.829 152.12C125.597 153.272 123.797 153.848 121.429 153.848C120.181 153.848 118.997 153.696 117.877 153.392C116.757 153.088 115.829 152.648 115.093 152.072L116.581 149.384C117.125 149.832 117.813 150.184 118.645 150.44C119.477 150.712 120.309 150.848 121.141 150.848C122.437 150.848 123.389 150.552 123.997 149.96C124.621 149.384 124.933 148.504 124.933 147.32V146.768C123.957 147.84 122.597 148.376 120.853 148.376C119.669 148.376 118.581 148.12 117.589 147.608C116.613 147.08 115.837 146.344 115.261 145.4C114.685 144.456 114.397 143.368 114.397 142.136C114.397 140.904 114.685 139.816 115.261 138.872C115.837 137.928 116.613 137.2 117.589 136.688C118.581 136.16 119.669 135.896 120.853 135.896C122.725 135.896 124.149 136.512 125.125 137.744V136.088H128.677ZM121.597 145.304C122.589 145.304 123.397 145.016 124.021 144.44C124.661 143.848 124.981 143.08 124.981 142.136C124.981 141.192 124.661 140.432 124.021 139.856C123.397 139.264 122.589 138.968 121.597 138.968C120.605 138.968 119.789 139.264 119.149 139.856C118.509 140.432 118.189 141.192 118.189 142.136C118.189 143.08 118.509 143.848 119.149 144.44C119.789 145.016 120.605 145.304 121.597 145.304ZM136.506 149.192C135.434 149.192 134.386 149.064 133.362 148.808C132.338 148.536 131.522 148.2 130.914 147.8L132.162 145.112C132.738 145.48 133.434 145.784 134.25 146.024C135.066 146.248 135.866 146.36 136.65 146.36C138.234 146.36 139.026 145.968 139.026 145.184C139.026 144.816 138.81 144.552 138.378 144.392C137.946 144.232 137.282 144.096 136.386 143.984C135.33 143.824 134.458 143.64 133.77 143.432C133.082 143.224 132.482 142.856 131.97 142.328C131.474 141.8 131.226 141.048 131.226 140.072C131.226 139.256 131.458 138.536 131.922 137.912C132.402 137.272 133.09 136.776 133.986 136.424C134.898 136.072 135.97 135.896 137.202 135.896C138.114 135.896 139.018 136 139.914 136.208C140.826 136.4 141.578 136.672 142.17 137.024L140.922 139.688C139.786 139.048 138.546 138.728 137.202 138.728C136.402 138.728 135.802 138.84 135.402 139.064C135.002 139.288 134.802 139.576 134.802 139.928C134.802 140.328 135.018 140.608 135.45 140.768C135.882 140.928 136.57 141.08 137.514 141.224C138.57 141.4 139.434 141.592 140.106 141.8C140.778 141.992 141.362 142.352 141.858 142.88C142.354 143.408 142.602 144.144 142.602 145.088C142.602 145.888 142.362 146.6 141.882 147.224C141.402 147.848 140.698 148.336 139.77 148.688C138.858 149.024 137.77 149.192 136.506 149.192ZM168.124 132.2L160.852 149H157.012L149.764 132.2H153.964L159.076 144.2L164.26 132.2H168.124ZM176.811 139.04C178.283 139.28 179.411 139.832 180.195 140.696C180.979 141.544 181.371 142.6 181.371 143.864C181.371 144.84 181.115 145.744 180.603 146.576C180.091 147.392 179.307 148.048 178.251 148.544C177.211 149.04 175.931 149.288 174.411 149.288C173.227 149.288 172.059 149.136 170.907 148.832C169.771 148.512 168.803 148.064 168.003 147.488L169.515 144.512C170.155 144.992 170.891 145.368 171.723 145.64C172.571 145.896 173.435 146.024 174.315 146.024C175.291 146.024 176.059 145.84 176.619 145.472C177.179 145.088 177.459 144.552 177.459 143.864C177.459 142.488 176.411 141.8 174.315 141.8H172.539V139.232L175.995 135.32H168.843V132.2H180.603V134.72L176.811 139.04Z" fill="white"/>
<path fill-rule="evenodd" clip-rule="evenodd" d="M64.5557 71.5H60.1112H55.6668H42.3334H37.889H33.4446V89.5H37.889H42.3334V98.5H55.6668V89.5H60.1112H64.5557V71.5Z" fill="#F25C5C"/>
<rect width="4.44444" height="4.5" transform="matrix(-1 0 0 1 51.2222 71.5)" fill="white"/>
<rect width="4.44444" height="4.5" transform="matrix(-1 0 0 1 55.6665 94)" fill="white"/>
<rect width="4.44444" height="4.5" transform="matrix(-1 0 0 1 60.1113 89.5)" fill="white"/>
<rect width="4.44444" height="4.5" transform="matrix(-1 0 0 1 64.5557 85)" fill="white"/>
<rect width="4.44444" height="4.5" transform="matrix(-1 0 0 1 69 80.5)" fill="white"/>
<rect width="4.44444" height="4.5" transform="matrix(-1 0 0 1 69 76)" fill="white"/>
<rect width="4.44444" height="4.5" transform="matrix(-1 0 0 1 69 71.5)" fill="white"/>
<rect width="4.44444" height="4.5" transform="matrix(-1 0 0 1 64.5557 67)" fill="white"/>
<rect width="4.44444" height="4.5" transform="matrix(-1 0 0 1 60.1113 67)" fill="white"/>
<rect width="4.44444" height="4.5" transform="matrix(-1 0 0 1 55.6665 67)" fill="white"/>
<rect x="46.7778" y="98.5" width="4.44444" height="4.5" fill="white"/>
<rect x="42.3335" y="94" width="4.44444" height="4.5" fill="white"/>
<rect x="37.8887" y="89.5" width="4.44444" height="4.5" fill="white"/>
<rect x="33.4443" y="85" width="4.44445" height="4.5" fill="white"/>
<rect x="29" y="80.5" width="4.44444" height="4.5" fill="white"/>
<rect x="29" y="76" width="4.44444" height="4.5" fill="white"/>
<rect x="29" y="71.5" width="4.44444" height="4.5" fill="white"/>
<rect x="33.4443" y="67" width="4.44445" height="4.5" fill="white"/>
<rect x="37.8887" y="67" width="4.44444" height="4.5" fill="white"/>
<rect x="42.3335" y="67" width="4.44444" height="4.5" fill="white"/>
<rect x="33.4443" y="71.5" width="4.44445" height="10.125" fill="white"/>
<rect x="33.4443" y="71.5" width="8.88889" height="4.5" fill="white"/>
<path fill-rule="evenodd" clip-rule="evenodd" d="M119.556 71.5H115.111H110.667H97.3334H92.889H88.4446V89.5H92.889H97.3334V98.5H110.667V89.5H115.111H119.556V71.5Z" fill="#F25C5C"/>
<rect width="4.44444" height="4.5" transform="matrix(-1 0 0 1 106.222 71.5)" fill="white"/>
<rect width="4.44444" height="4.5" transform="matrix(-1 0 0 1 110.667 94)" fill="white"/>
<rect width="4.44444" height="4.5" transform="matrix(-1 0 0 1 115.111 89.5)" fill="white"/>
<rect width="4.44444" height="4.5" transform="matrix(-1 0 0 1 119.556 85)" fill="white"/>
<rect width="4.44444" height="4.5" transform="matrix(-1 0 0 1 124 80.5)" fill="white"/>
<rect width="4.44444" height="4.5" transform="matrix(-1 0 0 1 124 76)" fill="white"/>
<rect width="4.44444" height="4.5" transform="matrix(-1 0 0 1 124 71.5)" fill="white"/>
<rect width="4.44444" height="4.5" transform="matrix(-1 0 0 1 119.556 67)" fill="white"/>
<rect width="4.44444" height="4.5" transform="matrix(-1 0 0 1 115.111 67)" fill="white"/>
<rect width="4.44444" height="4.5" transform="matrix(-1 0 0 1 110.667 67)" fill="white"/>
<rect x="101.778" y="98.5" width="4.44444" height="4.5" fill="white"/>
<rect x="97.3335" y="94" width="4.44444" height="4.5" fill="white"/>
<rect x="92.8887" y="89.5" width="4.44444" height="4.5" fill="white"/>
<rect x="88.4443" y="85" width="4.44445" height="4.5" fill="white"/>
<rect x="84" y="80.5" width="4.44444" height="4.5" fill="white"/>
<rect x="84" y="76" width="4.44444" height="4.5" fill="white"/>
<rect x="84" y="71.5" width="4.44444" height="4.5" fill="white"/>
<rect x="88.4443" y="67" width="4.44445" height="4.5" fill="white"/>
<rect x="92.8887" y="67" width="4.44444" height="4.5" fill="white"/>
<rect x="97.3335" y="67" width="4.44444" height="4.5" fill="white"/>
<rect x="88.4443" y="71.5" width="4.44445" height="10.125" fill="white"/>
<rect x="88.4443" y="71.5" width="8.88889" height="4.5" fill="white"/>
<path fill-rule="evenodd" clip-rule="evenodd" d="M174.556 71.5H170.111H165.667H152.333H147.889H143.445V89.5H147.889H152.333V98.5H165.667V89.5H170.111H174.556V71.5Z" fill="#F25C5C"/>
<rect width="4.44444" height="4.5" transform="matrix(-1 0 0 1 161.222 71.5)" fill="white"/>
<rect width="4.44444" height="4.5" transform="matrix(-1 0 0 1 165.667 94)" fill="white"/>
<rect width="4.44444" height="4.5" transform="matrix(-1 0 0 1 170.111 89.5)" fill="white"/>
<rect width="4.44444" height="4.5" transform="matrix(-1 0 0 1 174.556 85)" fill="white"/>
<rect width="4.44444" height="4.5" transform="matrix(-1 0 0 1 179 80.5)" fill="white"/>
<rect width="4.44444" height="4.5" transform="matrix(-1 0 0 1 179 76)" fill="white"/>
<rect width="4.44444" height="4.5" transform="matrix(-1 0 0 1 179 71.5)" fill="white"/>
<rect width="4.44444" height="4.5" transform="matrix(-1 0 0 1 174.556 67)" fill="white"/>
<rect width="4.44444" height="4.5" transform="matrix(-1 0 0 1 170.111 67)" fill="white"/>
<rect width="4.44444" height="4.5" transform="matrix(-1 0 0 1 165.667 67)" fill="white"/>
<rect x="156.778" y="98.5" width="4.44444" height="4.5" fill="white"/>
<rect x="152.333" y="94" width="4.44444" height="4.5" fill="white"/>
<rect x="147.889" y="89.5" width="4.44444" height="4.5" fill="white"/>
<rect x="143.444" y="85" width="4.44445" height="4.5" fill="white"/>
<rect x="139" y="80.5" width="4.44444" height="4.5" fill="white"/>
<rect x="139" y="76" width="4.44444" height="4.5" fill="white"/>
<rect x="139" y="71.5" width="4.44444" height="4.5" fill="white"/>
<rect x="143.444" y="67" width="4.44445" height="4.5" fill="white"/>
<rect x="147.889" y="67" width="4.44444" height="4.5" fill="white"/>
<rect x="152.333" y="67" width="4.44444" height="4.5" fill="white"/>
<rect x="143.444" y="71.5" width="4.44445" height="10.125" fill="white"/>
<rect x="143.444" y="71.5" width="8.88889" height="4.5" fill="white"/>
<defs>
<linearGradient id="paint0_linear_44_598" x1="29" y1="-25" x2="208" y2="252.5" gradientUnits="userSpaceOnUse">
<stop stop-color="#00A7A7"/>
<stop offset="1" stop-color="#7B129F"/>
</linearGradient>
</defs>
</svg>
