<svg width="603" height="129" viewBox="0 0 603 129" fill="none" xmlns="http://www.w3.org/2000/svg">
<rect width="603" height="129" rx="16" fill="url(#paint0_linear_46_1029)"/>
<path d="M358.716 55.4H350.916L349.428 59H345.444L352.932 42.2H356.772L364.284 59H360.204L358.716 55.4ZM357.492 52.448L354.828 46.016L352.164 52.448H357.492ZM373.611 45.896C375.211 45.896 376.499 46.376 377.475 47.336C378.467 48.296 378.963 49.72 378.963 51.608V59H375.219V52.184C375.219 51.16 374.995 50.4 374.547 49.904C374.099 49.392 373.451 49.136 372.603 49.136C371.659 49.136 370.907 49.432 370.347 50.024C369.787 50.6 369.507 51.464 369.507 52.616V59H365.763V46.088H369.339V47.6C369.835 47.056 370.451 46.64 371.187 46.352C371.923 46.048 372.731 45.896 373.611 45.896ZM382.357 46.088H386.101V59H382.357V46.088ZM384.229 44.288C383.541 44.288 382.981 44.088 382.549 43.688C382.117 43.288 381.901 42.792 381.901 42.2C381.901 41.608 382.117 41.112 382.549 40.712C382.981 40.312 383.541 40.112 384.229 40.112C384.917 40.112 385.477 40.304 385.909 40.688C386.341 41.072 386.557 41.552 386.557 42.128C386.557 42.752 386.341 43.272 385.909 43.688C385.477 44.088 384.917 44.288 384.229 44.288ZM406.112 45.896C407.728 45.896 409.008 46.376 409.952 47.336C410.912 48.28 411.392 49.704 411.392 51.608V59H407.648V52.184C407.648 51.16 407.432 50.4 407 49.904C406.584 49.392 405.984 49.136 405.2 49.136C404.32 49.136 403.624 49.424 403.112 50C402.6 50.56 402.344 51.4 402.344 52.52V59H398.6V52.184C398.6 50.152 397.784 49.136 396.152 49.136C395.288 49.136 394.6 49.424 394.088 50C393.576 50.56 393.32 51.4 393.32 52.52V59H389.576V46.088H393.152V47.576C393.632 47.032 394.216 46.616 394.904 46.328C395.608 46.04 396.376 45.896 397.208 45.896C398.12 45.896 398.944 46.08 399.68 46.448C400.416 46.8 401.008 47.32 401.456 48.008C401.984 47.336 402.648 46.816 403.448 46.448C404.264 46.08 405.152 45.896 406.112 45.896ZM419.956 45.896C421.956 45.896 423.492 46.376 424.564 47.336C425.636 48.28 426.172 49.712 426.172 51.632V59H422.668V57.392C421.964 58.592 420.652 59.192 418.732 59.192C417.74 59.192 416.876 59.024 416.14 58.688C415.42 58.352 414.868 57.888 414.484 57.296C414.1 56.704 413.908 56.032 413.908 55.28C413.908 54.08 414.356 53.136 415.252 52.448C416.164 51.76 417.564 51.416 419.452 51.416H422.428C422.428 50.6 422.18 49.976 421.684 49.544C421.188 49.096 420.444 48.872 419.452 48.872C418.764 48.872 418.084 48.984 417.412 49.208C416.756 49.416 416.196 49.704 415.732 50.072L414.388 47.456C415.092 46.96 415.932 46.576 416.908 46.304C417.9 46.032 418.916 45.896 419.956 45.896ZM419.668 56.672C420.308 56.672 420.876 56.528 421.372 56.24C421.868 55.936 422.22 55.496 422.428 54.92V53.6H419.86C418.324 53.6 417.556 54.104 417.556 55.112C417.556 55.592 417.74 55.976 418.108 56.264C418.492 56.536 419.012 56.672 419.668 56.672ZM429.56 41.192H433.304V59H429.56V41.192ZM449.816 59.192C448.44 59.192 447.2 58.912 446.096 58.352C445.008 57.776 444.152 56.984 443.528 55.976C442.92 54.968 442.616 53.824 442.616 52.544C442.616 51.264 442.92 50.12 443.528 49.112C444.152 48.104 445.008 47.32 446.096 46.76C447.2 46.184 448.44 45.896 449.816 45.896C451.176 45.896 452.36 46.184 453.368 46.76C454.392 47.32 455.136 48.128 455.6 49.184L452.696 50.744C452.024 49.56 451.056 48.968 449.792 48.968C448.816 48.968 448.008 49.288 447.368 49.928C446.728 50.568 446.408 51.44 446.408 52.544C446.408 53.648 446.728 54.52 447.368 55.16C448.008 55.8 448.816 56.12 449.792 56.12C451.072 56.12 452.04 55.528 452.696 54.344L455.6 55.928C455.136 56.952 454.392 57.752 453.368 58.328C452.36 58.904 451.176 59.192 449.816 59.192ZM465.51 45.896C467.11 45.896 468.398 46.376 469.374 47.336C470.366 48.296 470.862 49.72 470.862 51.608V59H467.118V52.184C467.118 51.16 466.894 50.4 466.446 49.904C465.998 49.392 465.35 49.136 464.502 49.136C463.558 49.136 462.806 49.432 462.246 50.024C461.686 50.6 461.406 51.464 461.406 52.616V59H457.662V41.192H461.406V47.432C461.902 46.936 462.502 46.56 463.206 46.304C463.91 46.032 464.678 45.896 465.51 45.896ZM479.463 45.896C481.463 45.896 482.999 46.376 484.071 47.336C485.143 48.28 485.679 49.712 485.679 51.632V59H482.175V57.392C481.471 58.592 480.159 59.192 478.239 59.192C477.247 59.192 476.383 59.024 475.647 58.688C474.927 58.352 474.375 57.888 473.991 57.296C473.607 56.704 473.415 56.032 473.415 55.28C473.415 54.08 473.863 53.136 474.759 52.448C475.671 51.76 477.071 51.416 478.959 51.416H481.935C481.935 50.6 481.687 49.976 481.191 49.544C480.695 49.096 479.951 48.872 478.959 48.872C478.271 48.872 477.591 48.984 476.919 49.208C476.263 49.416 475.703 49.704 475.239 50.072L473.895 47.456C474.599 46.96 475.439 46.576 476.415 46.304C477.407 46.032 478.423 45.896 479.463 45.896ZM479.175 56.672C479.815 56.672 480.383 56.528 480.879 56.24C481.375 55.936 481.727 55.496 481.935 54.92V53.6H479.367C477.831 53.6 477.063 54.104 477.063 55.112C477.063 55.592 477.247 55.976 477.615 56.264C477.999 56.536 478.519 56.672 479.175 56.672ZM492.644 47.792C493.092 47.168 493.692 46.696 494.444 46.376C495.212 46.056 496.092 45.896 497.084 45.896V49.352C496.668 49.32 496.388 49.304 496.244 49.304C495.172 49.304 494.332 49.608 493.724 50.216C493.116 50.808 492.812 51.704 492.812 52.904V59H489.068V46.088H492.644V47.792ZM499.31 46.088H503.054V59H499.31V46.088ZM501.182 44.288C500.494 44.288 499.934 44.088 499.502 43.688C499.07 43.288 498.854 42.792 498.854 42.2C498.854 41.608 499.07 41.112 499.502 40.712C499.934 40.312 500.494 40.112 501.182 40.112C501.87 40.112 502.43 40.304 502.862 40.688C503.294 41.072 503.51 41.552 503.51 42.128C503.51 42.752 503.294 43.272 502.862 43.688C502.43 44.088 501.87 44.288 501.182 44.288ZM514.857 58.376C514.489 58.648 514.033 58.856 513.489 59C512.961 59.128 512.401 59.192 511.809 59.192C510.273 59.192 509.081 58.8 508.233 58.016C507.401 57.232 506.985 56.08 506.985 54.56V49.256H504.993V46.376H506.985V43.232H510.729V46.376H513.945V49.256H510.729V54.512C510.729 55.056 510.865 55.48 511.137 55.784C511.425 56.072 511.825 56.216 512.337 56.216C512.929 56.216 513.433 56.056 513.849 55.736L514.857 58.376ZM529.54 46.088L523.708 59.792C523.116 61.28 522.38 62.328 521.5 62.936C520.636 63.544 519.588 63.848 518.356 63.848C517.684 63.848 517.02 63.744 516.364 63.536C515.708 63.328 515.172 63.04 514.756 62.672L516.124 60.008C516.412 60.264 516.74 60.464 517.108 60.608C517.492 60.752 517.868 60.824 518.236 60.824C518.748 60.824 519.164 60.696 519.484 60.44C519.804 60.2 520.092 59.792 520.348 59.216L520.396 59.096L514.804 46.088H518.668L522.292 54.848L525.94 46.088H529.54ZM430.068 71.2V88H426.876L418.5 77.8V88H414.66V71.2H417.876L426.228 81.4V71.2H430.068ZM437.931 74.32V78.76H445.707V81.88H437.931V88H434.043V71.2H446.739V74.32H437.931ZM452.968 74.368H447.592V71.2H462.232V74.368H456.856V88H452.968V74.368Z" fill="white"/>
<path d="M116.616 63.3567C113.965 64.0217 111.418 66.0904 109.503 67.9655C108.187 69.2586 106.631 70.7712 106.697 72.7662C106.765 75.3814 109.393 77.9468 111.957 78.2358C114.1 78.484 116.098 76.9885 117.192 75.2556C117.835 74.229 118.266 73.117 118.767 72.0237C119.98 69.4371 121.778 62.0444 116.616 63.3567Z" fill="white" fill-opacity="0.9"/>
<path d="M113.557 60.3082C112.88 63.0098 110.772 65.6044 108.861 67.5559C107.543 68.897 106.002 70.4825 103.969 70.4152C101.304 70.346 98.6901 67.6677 98.3956 65.0552C98.1427 62.872 99.6667 60.8359 101.432 59.7212C102.478 59.0656 103.612 58.6264 104.726 58.1161C107.361 56.88 114.895 55.0478 113.557 60.3082Z" fill="white" fill-opacity="0.9"/>
<path d="M114.479 79.2116C110.325 80.3464 104.014 83.17 107.381 88.1679C107.923 88.9551 108.67 89.657 109.602 89.9419C110.284 90.1469 111.648 90.0548 112.273 89.7748C114.739 88.6043 120.079 83.2316 118.173 80.0305C117.481 78.8848 115.654 78.8866 114.479 79.2116Z" fill="white" fill-opacity="0.9"/>
<path d="M96.7921 72.1051C100.695 73.0246 103.727 76.0558 104.646 79.9592C105.063 81.7269 105.029 83.577 104.548 85.341L102.584 92.539C101.78 95.4873 98.6283 97.1452 95.7755 96.1203C93.9816 95.4758 92.7037 93.889 92.4526 91.9943L92.0773 89.1623C91.7666 86.817 89.9343 84.9847 87.589 84.6739L84.7569 84.2987C82.8622 84.0476 81.2755 82.7697 80.631 80.9757C79.606 78.1229 81.264 74.9709 84.2123 74.1668L91.7413 72.1134C93.4231 71.6547 95.12 71.7112 96.7921 72.1051Z" fill="white" fill-opacity="0.9"/>
<path d="M97.6856 62.4185C96.5508 66.5724 93.7272 72.8829 88.7293 69.5159C87.9421 68.9737 87.2403 68.2268 86.9553 67.295C86.7503 66.6135 86.8424 65.2492 87.1224 64.6237C88.2929 62.1581 93.6656 56.8178 96.8667 58.7243C98.0124 59.4162 98.0106 61.2435 97.6856 62.4185Z" fill="white" fill-opacity="0.9"/>
<path d="M159.584 33.3567C156.932 34.0217 154.386 36.0904 152.471 37.9655C151.155 39.2586 149.599 40.7712 149.665 42.7662C149.733 45.3814 152.361 47.9468 154.925 48.2358C157.068 48.484 159.066 46.9885 160.16 45.2556C160.803 44.229 161.234 43.117 161.735 42.0237C162.948 39.4371 164.746 32.0444 159.584 33.3567Z" fill="white" fill-opacity="0.9"/>
<path d="M156.525 30.3082C155.847 33.0098 153.739 35.6044 151.829 37.5559C150.511 38.897 148.97 40.4825 146.937 40.4152C144.272 40.346 141.658 37.6677 141.363 35.0552C141.11 32.872 142.634 30.8359 144.4 29.7212C145.446 29.0656 146.579 28.6264 147.693 28.1161C150.329 26.88 157.862 25.0478 156.525 30.3082Z" fill="white" fill-opacity="0.9"/>
<path d="M157.446 49.2116C153.293 50.3464 146.982 53.17 150.349 58.1679C150.891 58.9551 151.638 59.657 152.57 59.9419C153.251 60.1469 154.616 60.0548 155.241 59.7748C157.707 58.6043 163.047 53.2316 161.141 50.0305C160.449 48.8848 158.621 48.8866 157.446 49.2116Z" fill="white" fill-opacity="0.9"/>
<path d="M139.76 42.1051C143.663 43.0246 146.694 46.0558 147.614 49.9592C148.03 51.7269 147.996 53.577 147.515 55.341L145.552 62.539C144.748 65.4873 141.596 67.1452 138.743 66.1203C136.949 65.4758 135.671 63.889 135.42 61.9943L135.045 59.1623C134.734 56.817 132.902 54.9847 130.557 54.6739L127.725 54.2987C125.83 54.0476 124.243 52.7697 123.599 50.9757C122.574 48.1229 124.232 44.9709 127.18 44.1668L134.709 42.1134C136.391 41.6547 138.088 41.7112 139.76 42.1051Z" fill="white" fill-opacity="0.9"/>
<path d="M140.653 32.4185C139.519 36.5724 136.695 42.8829 131.697 39.5159C130.91 38.9737 130.208 38.2268 129.923 37.295C129.718 36.6135 129.81 35.2492 130.09 34.6237C131.261 32.1581 136.633 26.8178 139.834 28.7243C140.98 29.4162 140.978 31.2435 140.653 32.4185Z" fill="white" fill-opacity="0.9"/>
<path d="M202.584 63.3567C199.932 64.0217 197.386 66.0904 195.471 67.9655C194.155 69.2586 192.599 70.7712 192.665 72.7662C192.733 75.3814 195.361 77.9468 197.925 78.2358C200.068 78.484 202.066 76.9885 203.16 75.2556C203.803 74.229 204.234 73.117 204.735 72.0237C205.948 69.4371 207.746 62.0444 202.584 63.3567Z" fill="white" fill-opacity="0.9"/>
<path d="M199.525 60.3082C198.847 63.0098 196.739 65.6044 194.829 67.5559C193.511 68.897 191.97 70.4825 189.937 70.4152C187.272 70.346 184.658 67.6677 184.363 65.0552C184.11 62.872 185.634 60.8359 187.4 59.7212C188.446 59.0656 189.579 58.6264 190.693 58.1161C193.329 56.88 200.862 55.0478 199.525 60.3082Z" fill="white" fill-opacity="0.9"/>
<path d="M200.446 79.2116C196.293 80.3464 189.982 83.17 193.349 88.1679C193.891 88.9551 194.638 89.657 195.57 89.9419C196.251 90.1469 197.616 90.0548 198.241 89.7748C200.707 88.6043 206.047 83.2316 204.141 80.0305C203.449 78.8848 201.621 78.8866 200.446 79.2116Z" fill="white" fill-opacity="0.9"/>
<path d="M182.76 72.1051C186.663 73.0246 189.694 76.0558 190.614 79.9592C191.03 81.7269 190.996 83.577 190.515 85.341L188.552 92.539C187.748 95.4873 184.596 97.1452 181.743 96.1203C179.949 95.4758 178.671 93.889 178.42 91.9943L178.045 89.1623C177.734 86.817 175.902 84.9847 173.557 84.6739L170.725 84.2987C168.83 84.0476 167.243 82.7697 166.599 80.9757C165.574 78.1229 167.232 74.9709 170.18 74.1668L177.709 72.1134C179.391 71.6547 181.088 71.7112 182.76 72.1051Z" fill="white" fill-opacity="0.9"/>
<path d="M183.653 62.4185C182.519 66.5724 179.695 72.8829 174.697 69.5159C173.91 68.9737 173.208 68.2268 172.923 67.295C172.718 66.6135 172.81 65.2492 173.09 64.6237C174.261 62.1581 179.633 56.8178 182.834 58.7243C183.98 59.4162 183.978 61.2435 183.653 62.4185Z" fill="white" fill-opacity="0.9"/>
<path d="M245.584 33.3567C242.932 34.0217 240.386 36.0904 238.471 37.9655C237.155 39.2586 235.599 40.7712 235.665 42.7662C235.733 45.3814 238.361 47.9468 240.925 48.2358C243.068 48.484 245.066 46.9885 246.16 45.2556C246.803 44.229 247.234 43.117 247.735 42.0237C248.948 39.4371 250.746 32.0444 245.584 33.3567Z" fill="white" fill-opacity="0.9"/>
<path d="M242.525 30.3082C241.847 33.0098 239.739 35.6044 237.829 37.5559C236.511 38.897 234.97 40.4825 232.937 40.4152C230.272 40.346 227.658 37.6677 227.363 35.0552C227.11 32.872 228.634 30.8359 230.4 29.7212C231.446 29.0656 232.579 28.6264 233.693 28.1161C236.329 26.88 243.862 25.0478 242.525 30.3082Z" fill="white" fill-opacity="0.9"/>
<path d="M243.446 49.2116C239.293 50.3464 232.982 53.17 236.349 58.1679C236.891 58.9551 237.638 59.657 238.57 59.9419C239.251 60.1469 240.616 60.0548 241.241 59.7748C243.707 58.6043 249.047 53.2316 247.141 50.0305C246.449 48.8848 244.621 48.8866 243.446 49.2116Z" fill="white" fill-opacity="0.9"/>
<path d="M225.76 42.1051C229.663 43.0246 232.694 46.0558 233.614 49.9592C234.03 51.7269 233.996 53.577 233.515 55.341L231.552 62.539C230.748 65.4873 227.596 67.1452 224.743 66.1203C222.949 65.4758 221.671 63.889 221.42 61.9943L221.045 59.1623C220.734 56.817 218.902 54.9847 216.557 54.6739L213.725 54.2987C211.83 54.0476 210.243 52.7697 209.599 50.9757C208.574 48.1229 210.232 44.9709 213.18 44.1668L220.709 42.1134C222.391 41.6547 224.088 41.7112 225.76 42.1051Z" fill="white" fill-opacity="0.9"/>
<path d="M226.653 32.4185C225.519 36.5724 222.695 42.8829 217.697 39.5159C216.91 38.9737 216.208 38.2268 215.923 37.295C215.718 36.6135 215.81 35.2492 216.09 34.6237C217.261 32.1581 222.633 26.8178 225.834 28.7243C226.98 29.4162 226.978 31.2435 226.653 32.4185Z" fill="white" fill-opacity="0.9"/>
<defs>
<linearGradient id="paint0_linear_46_1029" x1="84.0721" y1="-14.5928" x2="113.369" y2="210.979" gradientUnits="userSpaceOnUse">
<stop stop-color="#00A7A7"/>
<stop offset="1" stop-color="#7B129F"/>
</linearGradient>
</defs>
</svg>
