<svg width="603" height="129" viewBox="0 0 603 129" fill="none" xmlns="http://www.w3.org/2000/svg">
<rect width="603" height="129" rx="16" fill="url(#paint0_linear_46_846)"/>
<g opacity="0.6">
<path opacity="0.6" d="M167.495 53.688L142 65.2761L167.495 80.3297L192.981 65.2761L167.495 53.688Z" fill="white"/>
</g>
<g opacity="0.45">
<path opacity="0.8" d="M142 65.2762L167.495 80.3298V23L142 65.2762Z" fill="white"/>
</g>
<g opacity="0.8">
<path opacity="0.9" d="M167.495 23V80.3298L192.98 65.2762L167.495 23Z" fill="white"/>
</g>
<g opacity="0.45">
<path opacity="0.8" d="M142 70.1038L167.495 106V85.1573L142 70.1038Z" fill="white"/>
</g>
<g opacity="0.8">
<path opacity="0.9" d="M167.495 85.1573V106L193 70.1038L167.495 85.1573Z" fill="white"/>
</g>
<path d="M378.953 69.88V73H365.945V56.2H378.641V59.32H369.809V62.968H377.609V65.992H369.809V69.88H378.953ZM385.527 59.368H380.151V56.2H394.791V59.368H389.415V73H385.527V59.368ZM412.291 56.2V73H408.403V66.112H400.771V73H396.883V56.2H400.771V62.824H408.403V56.2H412.291ZM426.374 61.792C426.822 61.168 427.422 60.696 428.174 60.376C428.942 60.056 429.822 59.896 430.814 59.896V63.352C430.398 63.32 430.118 63.304 429.974 63.304C428.902 63.304 428.062 63.608 427.454 64.216C426.846 64.808 426.542 65.704 426.542 66.904V73H422.798V60.088H426.374V61.792ZM445.571 66.592C445.571 66.64 445.547 66.976 445.499 67.6H435.731C435.907 68.4 436.323 69.032 436.979 69.496C437.635 69.96 438.451 70.192 439.427 70.192C440.099 70.192 440.691 70.096 441.203 69.904C441.731 69.696 442.219 69.376 442.667 68.944L444.659 71.104C443.443 72.496 441.667 73.192 439.331 73.192C437.875 73.192 436.587 72.912 435.467 72.352C434.347 71.776 433.483 70.984 432.875 69.976C432.267 68.968 431.963 67.824 431.963 66.544C431.963 65.28 432.259 64.144 432.851 63.136C433.459 62.112 434.283 61.32 435.323 60.76C436.379 60.184 437.555 59.896 438.851 59.896C440.115 59.896 441.259 60.168 442.283 60.712C443.307 61.256 444.107 62.04 444.683 63.064C445.275 64.072 445.571 65.248 445.571 66.592ZM438.875 62.728C438.027 62.728 437.315 62.968 436.739 63.448C436.163 63.928 435.811 64.584 435.683 65.416H442.043C441.915 64.6 441.563 63.952 440.987 63.472C440.411 62.976 439.707 62.728 438.875 62.728ZM448.064 55.192H451.808V73H448.064V55.192ZM467.931 66.592C467.931 66.64 467.907 66.976 467.859 67.6H458.091C458.267 68.4 458.683 69.032 459.339 69.496C459.995 69.96 460.811 70.192 461.787 70.192C462.459 70.192 463.051 70.096 463.563 69.904C464.091 69.696 464.579 69.376 465.027 68.944L467.019 71.104C465.803 72.496 464.027 73.192 461.691 73.192C460.235 73.192 458.947 72.912 457.827 72.352C456.707 71.776 455.843 70.984 455.235 69.976C454.627 68.968 454.323 67.824 454.323 66.544C454.323 65.28 454.619 64.144 455.211 63.136C455.819 62.112 456.643 61.32 457.683 60.76C458.739 60.184 459.915 59.896 461.211 59.896C462.475 59.896 463.619 60.168 464.643 60.712C465.667 61.256 466.467 62.04 467.043 63.064C467.635 64.072 467.931 65.248 467.931 66.592ZM461.235 62.728C460.387 62.728 459.675 62.968 459.099 63.448C458.523 63.928 458.171 64.584 458.043 65.416H464.403C464.275 64.6 463.923 63.952 463.347 63.472C462.771 62.976 462.067 62.728 461.235 62.728ZM475.28 59.896C477.28 59.896 478.816 60.376 479.888 61.336C480.96 62.28 481.496 63.712 481.496 65.632V73H477.992V71.392C477.288 72.592 475.976 73.192 474.056 73.192C473.064 73.192 472.2 73.024 471.464 72.688C470.744 72.352 470.192 71.888 469.808 71.296C469.424 70.704 469.232 70.032 469.232 69.28C469.232 68.08 469.68 67.136 470.576 66.448C471.488 65.76 472.888 65.416 474.776 65.416H477.752C477.752 64.6 477.504 63.976 477.008 63.544C476.512 63.096 475.768 62.872 474.776 62.872C474.088 62.872 473.408 62.984 472.736 63.208C472.08 63.416 471.52 63.704 471.056 64.072L469.712 61.456C470.416 60.96 471.256 60.576 472.232 60.304C473.224 60.032 474.24 59.896 475.28 59.896ZM474.992 70.672C475.632 70.672 476.2 70.528 476.696 70.24C477.192 69.936 477.544 69.496 477.752 68.92V67.6H475.184C473.648 67.6 472.88 68.104 472.88 69.112C472.88 69.592 473.064 69.976 473.432 70.264C473.816 70.536 474.336 70.672 474.992 70.672ZM489.228 73.192C488.156 73.192 487.108 73.064 486.084 72.808C485.06 72.536 484.244 72.2 483.636 71.8L484.884 69.112C485.46 69.48 486.156 69.784 486.972 70.024C487.788 70.248 488.588 70.36 489.372 70.36C490.956 70.36 491.748 69.968 491.748 69.184C491.748 68.816 491.532 68.552 491.1 68.392C490.668 68.232 490.004 68.096 489.108 67.984C488.052 67.824 487.18 67.64 486.492 67.432C485.804 67.224 485.204 66.856 484.692 66.328C484.196 65.8 483.948 65.048 483.948 64.072C483.948 63.256 484.18 62.536 484.644 61.912C485.124 61.272 485.812 60.776 486.708 60.424C487.62 60.072 488.692 59.896 489.924 59.896C490.836 59.896 491.74 60 492.636 60.208C493.548 60.4 494.3 60.672 494.892 61.024L493.644 63.688C492.508 63.048 491.268 62.728 489.924 62.728C489.124 62.728 488.524 62.84 488.124 63.064C487.724 63.288 487.524 63.576 487.524 63.928C487.524 64.328 487.74 64.608 488.172 64.768C488.604 64.928 489.292 65.08 490.236 65.224C491.292 65.4 492.156 65.592 492.828 65.8C493.5 65.992 494.084 66.352 494.58 66.88C495.076 67.408 495.324 68.144 495.324 69.088C495.324 69.888 495.084 70.6 494.604 71.224C494.124 71.848 493.42 72.336 492.492 72.688C491.58 73.024 490.492 73.192 489.228 73.192ZM510.282 66.592C510.282 66.64 510.258 66.976 510.21 67.6H500.442C500.618 68.4 501.034 69.032 501.69 69.496C502.346 69.96 503.162 70.192 504.138 70.192C504.81 70.192 505.402 70.096 505.914 69.904C506.442 69.696 506.93 69.376 507.378 68.944L509.37 71.104C508.154 72.496 506.378 73.192 504.042 73.192C502.586 73.192 501.298 72.912 500.178 72.352C499.058 71.776 498.194 70.984 497.586 69.976C496.978 68.968 496.674 67.824 496.674 66.544C496.674 65.28 496.97 64.144 497.562 63.136C498.17 62.112 498.994 61.32 500.034 60.76C501.09 60.184 502.266 59.896 503.562 59.896C504.826 59.896 505.97 60.168 506.994 60.712C508.018 61.256 508.818 62.04 509.394 63.064C509.986 64.072 510.282 65.248 510.282 66.592ZM503.586 62.728C502.738 62.728 502.026 62.968 501.45 63.448C500.874 63.928 500.522 64.584 500.394 65.416H506.754C506.626 64.6 506.274 63.952 505.698 63.472C505.122 62.976 504.418 62.728 503.586 62.728Z" fill="white"/>
<defs>
<linearGradient id="paint0_linear_46_846" x1="84.0721" y1="-14.5928" x2="113.369" y2="210.979" gradientUnits="userSpaceOnUse">
<stop stop-color="#00A7A7"/>
<stop offset="1" stop-color="#7B129F"/>
</linearGradient>
</defs>
</svg>
