<svg width="208" height="221" viewBox="0 0 208 221" fill="none" xmlns="http://www.w3.org/2000/svg">
<rect width="208" height="221" rx="16" fill="url(#paint0_linear_45_783)"/>
<path d="M106.413 54.5739C104.532 57.7152 104.079 62.0865 104.041 65.6768C104.019 68.1483 103.978 71.0549 105.931 72.882C108.472 75.295 113.392 75.2353 116.094 73.0806C118.359 71.2862 118.835 67.9768 118.23 65.2992C117.867 63.7174 117.222 62.2558 116.66 60.7458C115.359 57.1467 110.06 48.4409 106.413 54.5739Z" fill="white" fill-opacity="0.9"/>
<path d="M100.628 54.5835C102.545 57.7844 103.006 62.2388 103.045 65.8973C103.067 68.4157 103.109 71.3775 101.12 73.2393C98.5297 75.6981 93.5166 75.6372 90.7631 73.4416C88.4555 71.6132 87.9704 68.2409 88.5871 65.5124C88.957 63.9006 89.6143 62.4112 90.1862 60.8726C91.5119 57.2051 96.9121 48.334 100.628 54.5835Z" fill="white" fill-opacity="0.9"/>
<path d="M119.407 71.6165C116.547 76.626 113.244 85.2782 121.168 86.823C122.427 87.0552 123.799 87.0124 124.952 86.3997C125.792 85.9483 126.997 84.5688 127.324 83.711C128.551 80.2669 128.52 70.1192 123.682 68.893C121.941 68.4631 120.212 70.1956 119.407 71.6165Z" fill="white" fill-opacity="0.9"/>
<path d="M95.9226 81.6383C100.491 78.8119 106.233 78.8119 110.802 81.6383C112.871 82.9183 114.591 84.7028 115.806 86.8294L120.765 95.507C122.796 99.0614 121.381 103.618 117.708 105.349C115.398 106.438 112.684 106.145 110.652 104.588L107.614 102.261C105.098 100.334 101.627 100.334 99.1107 102.261L96.0726 104.588C94.0401 106.145 91.3266 106.438 89.0168 105.349C85.3438 103.618 83.9285 99.0614 85.9596 95.507L91.1463 86.4303C92.3048 84.4028 93.9656 82.849 95.9226 81.6383Z" fill="white" fill-opacity="0.9"/>
<path d="M87.5929 71.6165C90.4526 76.626 93.7556 85.2782 85.8321 86.823C84.5728 87.0552 83.2005 87.0124 82.048 86.3997C81.2082 85.9483 80.0032 84.5688 79.6759 83.711C78.4492 80.2669 78.4799 70.1192 83.318 68.893C85.0586 68.4631 86.7878 70.1956 87.5929 71.6165Z" fill="white" fill-opacity="0.9"/>
<path d="M72.8607 131.4H65.0607L63.5727 135H59.5887L67.0767 118.2H70.9167L78.4287 135H74.3487L72.8607 131.4ZM71.6367 128.448L68.9727 122.016L66.3087 128.448H71.6367ZM87.7557 121.896C89.3557 121.896 90.6437 122.376 91.6197 123.336C92.6117 124.296 93.1077 125.72 93.1077 127.608V135H89.3637V128.184C89.3637 127.16 89.1397 126.4 88.6917 125.904C88.2437 125.392 87.5957 125.136 86.7477 125.136C85.8037 125.136 85.0517 125.432 84.4917 126.024C83.9317 126.6 83.6517 127.464 83.6517 128.616V135H79.9077V122.088H83.4837V123.6C83.9797 123.056 84.5957 122.64 85.3317 122.352C86.0677 122.048 86.8757 121.896 87.7557 121.896ZM96.5014 122.088H100.245V135H96.5014V122.088ZM98.3734 120.288C97.6854 120.288 97.1254 120.088 96.6934 119.688C96.2614 119.288 96.0454 118.792 96.0454 118.2C96.0454 117.608 96.2614 117.112 96.6934 116.712C97.1254 116.312 97.6854 116.112 98.3734 116.112C99.0614 116.112 99.6214 116.304 100.053 116.688C100.485 117.072 100.701 117.552 100.701 118.128C100.701 118.752 100.485 119.272 100.053 119.688C99.6214 120.088 99.0614 120.288 98.3734 120.288ZM120.256 121.896C121.872 121.896 123.152 122.376 124.096 123.336C125.056 124.28 125.536 125.704 125.536 127.608V135H121.792V128.184C121.792 127.16 121.576 126.4 121.144 125.904C120.728 125.392 120.128 125.136 119.344 125.136C118.464 125.136 117.768 125.424 117.256 126C116.744 126.56 116.488 127.4 116.488 128.52V135H112.744V128.184C112.744 126.152 111.928 125.136 110.296 125.136C109.432 125.136 108.744 125.424 108.232 126C107.72 126.56 107.464 127.4 107.464 128.52V135H103.72V122.088H107.296V123.576C107.776 123.032 108.36 122.616 109.048 122.328C109.752 122.04 110.52 121.896 111.352 121.896C112.264 121.896 113.088 122.08 113.824 122.448C114.56 122.8 115.152 123.32 115.6 124.008C116.128 123.336 116.792 122.816 117.592 122.448C118.408 122.08 119.296 121.896 120.256 121.896ZM134.1 121.896C136.1 121.896 137.636 122.376 138.708 123.336C139.78 124.28 140.316 125.712 140.316 127.632V135H136.812V133.392C136.108 134.592 134.796 135.192 132.876 135.192C131.884 135.192 131.02 135.024 130.284 134.688C129.564 134.352 129.012 133.888 128.628 133.296C128.244 132.704 128.052 132.032 128.052 131.28C128.052 130.08 128.5 129.136 129.396 128.448C130.308 127.76 131.708 127.416 133.596 127.416H136.572C136.572 126.6 136.324 125.976 135.828 125.544C135.332 125.096 134.588 124.872 133.596 124.872C132.908 124.872 132.228 124.984 131.556 125.208C130.9 125.416 130.34 125.704 129.876 126.072L128.532 123.456C129.236 122.96 130.076 122.576 131.052 122.304C132.044 122.032 133.06 121.896 134.1 121.896ZM133.812 132.672C134.452 132.672 135.02 132.528 135.516 132.24C136.012 131.936 136.364 131.496 136.572 130.92V129.6H134.004C132.468 129.6 131.7 130.104 131.7 131.112C131.7 131.592 131.884 131.976 132.252 132.264C132.636 132.536 133.156 132.672 133.812 132.672ZM143.705 117.192H147.449V135H143.705V117.192ZM40.4914 164.192C39.1154 164.192 37.8754 163.912 36.7714 163.352C35.6834 162.776 34.8274 161.984 34.2034 160.976C33.5954 159.968 33.2914 158.824 33.2914 157.544C33.2914 156.264 33.5954 155.12 34.2034 154.112C34.8274 153.104 35.6834 152.32 36.7714 151.76C37.8754 151.184 39.1154 150.896 40.4914 150.896C41.8514 150.896 43.0354 151.184 44.0434 151.76C45.0674 152.32 45.8114 153.128 46.2754 154.184L43.3714 155.744C42.6994 154.56 41.7314 153.968 40.4674 153.968C39.4914 153.968 38.6834 154.288 38.0434 154.928C37.4034 155.568 37.0834 156.44 37.0834 157.544C37.0834 158.648 37.4034 159.52 38.0434 160.16C38.6834 160.8 39.4914 161.12 40.4674 161.12C41.7474 161.12 42.7154 160.528 43.3714 159.344L46.2754 160.928C45.8114 161.952 45.0674 162.752 44.0434 163.328C43.0354 163.904 41.8514 164.192 40.4914 164.192ZM56.1854 150.896C57.7854 150.896 59.0734 151.376 60.0494 152.336C61.0414 153.296 61.5374 154.72 61.5374 156.608V164H57.7934V157.184C57.7934 156.16 57.5694 155.4 57.1214 154.904C56.6734 154.392 56.0254 154.136 55.1774 154.136C54.2334 154.136 53.4814 154.432 52.9214 155.024C52.3614 155.6 52.0814 156.464 52.0814 157.616V164H48.3374V146.192H52.0814V152.432C52.5774 151.936 53.1774 151.56 53.8814 151.304C54.5854 151.032 55.3534 150.896 56.1854 150.896ZM70.1391 150.896C72.1391 150.896 73.6751 151.376 74.7471 152.336C75.8191 153.28 76.3551 154.712 76.3551 156.632V164H72.8511V162.392C72.1471 163.592 70.8351 164.192 68.9151 164.192C67.9231 164.192 67.0591 164.024 66.3231 163.688C65.6031 163.352 65.0511 162.888 64.6671 162.296C64.2831 161.704 64.0911 161.032 64.0911 160.28C64.0911 159.08 64.5391 158.136 65.4351 157.448C66.3471 156.76 67.7471 156.416 69.6351 156.416H72.6111C72.6111 155.6 72.3631 154.976 71.8671 154.544C71.3711 154.096 70.6271 153.872 69.6351 153.872C68.9471 153.872 68.2671 153.984 67.5951 154.208C66.9391 154.416 66.3791 154.704 65.9151 155.072L64.5711 152.456C65.2751 151.96 66.1151 151.576 67.0911 151.304C68.0831 151.032 69.0991 150.896 70.1391 150.896ZM69.8511 161.672C70.4911 161.672 71.0591 161.528 71.5551 161.24C72.0511 160.936 72.4031 160.496 72.6111 159.92V158.6H70.0431C68.5071 158.6 67.7391 159.104 67.7391 160.112C67.7391 160.592 67.9231 160.976 68.2911 161.264C68.6751 161.536 69.1951 161.672 69.8511 161.672ZM83.3196 152.792C83.7676 152.168 84.3676 151.696 85.1196 151.376C85.8876 151.056 86.7676 150.896 87.7596 150.896V154.352C87.3436 154.32 87.0636 154.304 86.9196 154.304C85.8476 154.304 85.0076 154.608 84.3996 155.216C83.7916 155.808 83.4876 156.704 83.4876 157.904V164H79.7436V151.088H83.3196V152.792ZM89.9858 151.088H93.7298V164H89.9858V151.088ZM91.8578 149.288C91.1698 149.288 90.6098 149.088 90.1778 148.688C89.7458 148.288 89.5298 147.792 89.5298 147.2C89.5298 146.608 89.7458 146.112 90.1778 145.712C90.6098 145.312 91.1698 145.112 91.8578 145.112C92.5458 145.112 93.1058 145.304 93.5378 145.688C93.9698 146.072 94.1858 146.552 94.1858 147.128C94.1858 147.752 93.9698 148.272 93.5378 148.688C93.1058 149.088 92.5458 149.288 91.8578 149.288ZM105.533 163.376C105.165 163.648 104.709 163.856 104.165 164C103.637 164.128 103.077 164.192 102.485 164.192C100.949 164.192 99.7566 163.8 98.9086 163.016C98.0766 162.232 97.6606 161.08 97.6606 159.56V154.256H95.6686V151.376H97.6606V148.232H101.405V151.376H104.621V154.256H101.405V159.512C101.405 160.056 101.541 160.48 101.813 160.784C102.101 161.072 102.501 161.216 103.013 161.216C103.605 161.216 104.109 161.056 104.525 160.736L105.533 163.376ZM120.216 151.088L114.384 164.792C113.792 166.28 113.056 167.328 112.176 167.936C111.312 168.544 110.264 168.848 109.032 168.848C108.36 168.848 107.696 168.744 107.04 168.536C106.384 168.328 105.848 168.04 105.432 167.672L106.8 165.008C107.088 165.264 107.416 165.464 107.784 165.608C108.168 165.752 108.544 165.824 108.912 165.824C109.424 165.824 109.84 165.696 110.16 165.44C110.48 165.2 110.768 164.792 111.024 164.216L111.072 164.096L105.48 151.088H109.344L112.968 159.848L116.616 151.088H120.216ZM144.213 147.2V164H141.021L132.645 153.8V164H128.805V147.2H132.021L140.372 157.4V147.2H144.213ZM152.075 150.32V154.76H159.851V157.88H152.075V164H148.187V147.2H160.883V150.32H152.075ZM167.113 150.368H161.737V147.2H176.377V150.368H171.001V164H167.113V150.368Z" fill="white"/>
<defs>
<linearGradient id="paint0_linear_45_783" x1="29" y1="-25" x2="208" y2="252.5" gradientUnits="userSpaceOnUse">
<stop stop-color="#00A7A7"/>
<stop offset="1" stop-color="#7B129F"/>
</linearGradient>
</defs>
</svg>
