<svg width="603" height="129" viewBox="0 0 603 129" fill="none" xmlns="http://www.w3.org/2000/svg">
<rect width="603" height="129" rx="16" fill="url(#paint0_linear_46_732)"/>
<path d="M367.282 73.288C365.954 73.288 364.666 73.112 363.418 72.76C362.186 72.392 361.194 71.92 360.442 71.344L361.762 68.416C362.482 68.944 363.338 69.368 364.33 69.688C365.322 70.008 366.314 70.168 367.306 70.168C368.41 70.168 369.226 70.008 369.754 69.688C370.282 69.352 370.546 68.912 370.546 68.368C370.546 67.968 370.386 67.64 370.066 67.384C369.762 67.112 369.362 66.896 368.866 66.736C368.386 66.576 367.73 66.4 366.898 66.208C365.618 65.904 364.57 65.6 363.754 65.296C362.938 64.992 362.234 64.504 361.642 63.832C361.066 63.16 360.778 62.264 360.778 61.144C360.778 60.168 361.042 59.288 361.57 58.504C362.098 57.704 362.89 57.072 363.946 56.608C365.018 56.144 366.322 55.912 367.858 55.912C368.93 55.912 369.978 56.04 371.002 56.296C372.026 56.552 372.922 56.92 373.69 57.4L372.49 60.352C370.938 59.472 369.386 59.032 367.834 59.032C366.746 59.032 365.938 59.208 365.41 59.56C364.898 59.912 364.642 60.376 364.642 60.952C364.642 61.528 364.938 61.96 365.53 62.248C366.138 62.52 367.058 62.792 368.29 63.064C369.57 63.368 370.618 63.672 371.434 63.976C372.25 64.28 372.946 64.76 373.522 65.416C374.114 66.072 374.41 66.96 374.41 68.08C374.41 69.04 374.138 69.92 373.594 70.72C373.066 71.504 372.266 72.128 371.194 72.592C370.122 73.056 368.818 73.288 367.282 73.288ZM376.802 60.088H380.546V73H376.802V60.088ZM378.674 58.288C377.986 58.288 377.426 58.088 376.994 57.688C376.562 57.288 376.346 56.792 376.346 56.2C376.346 55.608 376.562 55.112 376.994 54.712C377.426 54.312 377.986 54.112 378.674 54.112C379.362 54.112 379.922 54.304 380.354 54.688C380.786 55.072 381.002 55.552 381.002 56.128C381.002 56.752 380.786 57.272 380.354 57.688C379.922 58.088 379.362 58.288 378.674 58.288ZM384.021 55.192H387.765V73H384.021V55.192ZM391.24 55.192H394.984V73H391.24V55.192ZM411.274 60.088L405.442 73.792C404.85 75.28 404.114 76.328 403.234 76.936C402.37 77.544 401.322 77.848 400.09 77.848C399.418 77.848 398.754 77.744 398.098 77.536C397.442 77.328 396.906 77.04 396.49 76.672L397.858 74.008C398.146 74.264 398.474 74.464 398.842 74.608C399.226 74.752 399.602 74.824 399.97 74.824C400.482 74.824 400.898 74.696 401.218 74.44C401.538 74.2 401.826 73.792 402.082 73.216L402.13 73.096L396.538 60.088H400.402L404.026 68.848L407.674 60.088H411.274ZM413.066 56.2H420.698C422.522 56.2 424.13 56.552 425.522 57.256C426.93 57.944 428.018 58.92 428.786 60.184C429.57 61.448 429.962 62.92 429.962 64.6C429.962 66.28 429.57 67.752 428.786 69.016C428.018 70.28 426.93 71.264 425.522 71.968C424.13 72.656 422.522 73 420.698 73H413.066V56.2ZM420.506 69.808C422.186 69.808 423.522 69.344 424.514 68.416C425.522 67.472 426.026 66.2 426.026 64.6C426.026 63 425.522 61.736 424.514 60.808C423.522 59.864 422.186 59.392 420.506 59.392H416.954V69.808H420.506ZM438.774 73.192C437.414 73.192 436.19 72.912 435.102 72.352C434.03 71.776 433.19 70.984 432.582 69.976C431.974 68.968 431.67 67.824 431.67 66.544C431.67 65.264 431.974 64.12 432.582 63.112C433.19 62.104 434.03 61.32 435.102 60.76C436.19 60.184 437.414 59.896 438.774 59.896C440.134 59.896 441.35 60.184 442.422 60.76C443.494 61.32 444.334 62.104 444.942 63.112C445.55 64.12 445.854 65.264 445.854 66.544C445.854 67.824 445.55 68.968 444.942 69.976C444.334 70.984 443.494 71.776 442.422 72.352C441.35 72.912 440.134 73.192 438.774 73.192ZM438.774 70.12C439.734 70.12 440.518 69.8 441.126 69.16C441.75 68.504 442.062 67.632 442.062 66.544C442.062 65.456 441.75 64.592 441.126 63.952C440.518 63.296 439.734 62.968 438.774 62.968C437.814 62.968 437.022 63.296 436.398 63.952C435.774 64.592 435.462 65.456 435.462 66.544C435.462 67.632 435.774 68.504 436.398 69.16C437.022 69.8 437.814 70.12 438.774 70.12ZM461.677 60.088V70.84C461.677 73.208 461.061 74.968 459.829 76.12C458.597 77.272 456.797 77.848 454.429 77.848C453.181 77.848 451.997 77.696 450.877 77.392C449.757 77.088 448.829 76.648 448.093 76.072L449.581 73.384C450.125 73.832 450.813 74.184 451.645 74.44C452.477 74.712 453.309 74.848 454.141 74.848C455.437 74.848 456.389 74.552 456.997 73.96C457.621 73.384 457.933 72.504 457.933 71.32V70.768C456.957 71.84 455.597 72.376 453.853 72.376C452.669 72.376 451.581 72.12 450.589 71.608C449.613 71.08 448.837 70.344 448.261 69.4C447.685 68.456 447.397 67.368 447.397 66.136C447.397 64.904 447.685 63.816 448.261 62.872C448.837 61.928 449.613 61.2 450.589 60.688C451.581 60.16 452.669 59.896 453.853 59.896C455.725 59.896 457.149 60.512 458.125 61.744V60.088H461.677ZM454.597 69.304C455.589 69.304 456.397 69.016 457.021 68.44C457.661 67.848 457.981 67.08 457.981 66.136C457.981 65.192 457.661 64.432 457.021 63.856C456.397 63.264 455.589 62.968 454.597 62.968C453.605 62.968 452.789 63.264 452.149 63.856C451.509 64.432 451.189 65.192 451.189 66.136C451.189 67.08 451.509 67.848 452.149 68.44C452.789 69.016 453.605 69.304 454.597 69.304ZM469.506 73.192C468.434 73.192 467.386 73.064 466.362 72.808C465.338 72.536 464.522 72.2 463.914 71.8L465.162 69.112C465.738 69.48 466.434 69.784 467.25 70.024C468.066 70.248 468.866 70.36 469.65 70.36C471.234 70.36 472.026 69.968 472.026 69.184C472.026 68.816 471.81 68.552 471.378 68.392C470.946 68.232 470.282 68.096 469.386 67.984C468.33 67.824 467.458 67.64 466.77 67.432C466.082 67.224 465.482 66.856 464.97 66.328C464.474 65.8 464.226 65.048 464.226 64.072C464.226 63.256 464.458 62.536 464.922 61.912C465.402 61.272 466.09 60.776 466.986 60.424C467.898 60.072 468.97 59.896 470.202 59.896C471.114 59.896 472.018 60 472.914 60.208C473.826 60.4 474.578 60.672 475.17 61.024L473.922 63.688C472.786 63.048 471.546 62.728 470.202 62.728C469.402 62.728 468.802 62.84 468.402 63.064C468.002 63.288 467.802 63.576 467.802 63.928C467.802 64.328 468.018 64.608 468.45 64.768C468.882 64.928 469.57 65.08 470.514 65.224C471.57 65.4 472.434 65.592 473.106 65.8C473.778 65.992 474.362 66.352 474.858 66.88C475.354 67.408 475.602 68.144 475.602 69.088C475.602 69.888 475.362 70.6 474.882 71.224C474.402 71.848 473.698 72.336 472.77 72.688C471.858 73.024 470.77 73.192 469.506 73.192ZM501.124 56.2L493.852 73H490.012L482.764 56.2H486.964L492.076 68.2L497.26 56.2H501.124ZM509.811 63.04C511.283 63.28 512.411 63.832 513.195 64.696C513.979 65.544 514.371 66.6 514.371 67.864C514.371 68.84 514.115 69.744 513.603 70.576C513.091 71.392 512.307 72.048 511.251 72.544C510.211 73.04 508.931 73.288 507.411 73.288C506.227 73.288 505.059 73.136 503.907 72.832C502.771 72.512 501.803 72.064 501.003 71.488L502.515 68.512C503.155 68.992 503.891 69.368 504.723 69.64C505.571 69.896 506.435 70.024 507.315 70.024C508.291 70.024 509.059 69.84 509.619 69.472C510.179 69.088 510.459 68.552 510.459 67.864C510.459 66.488 509.411 65.8 507.315 65.8H505.539V63.232L508.995 59.32H501.843V56.2H513.603V58.72L509.811 63.04Z" fill="white"/>
<path fill-rule="evenodd" clip-rule="evenodd" d="M127.556 51.5H123.111H118.667H105.333H100.889H96.4446V69.5H100.889H105.333V78.5H118.667V69.5H123.111H127.556V51.5Z" fill="#F25C5C"/>
<rect width="4.44444" height="4.5" transform="matrix(-1 0 0 1 114.222 51.5)" fill="white"/>
<rect width="4.44444" height="4.5" transform="matrix(-1 0 0 1 118.667 74)" fill="white"/>
<rect width="4.44444" height="4.5" transform="matrix(-1 0 0 1 123.111 69.5)" fill="white"/>
<rect width="4.44444" height="4.5" transform="matrix(-1 0 0 1 127.556 65)" fill="white"/>
<rect width="4.44444" height="4.5" transform="matrix(-1 0 0 1 132 60.5)" fill="white"/>
<rect width="4.44444" height="4.5" transform="matrix(-1 0 0 1 132 56)" fill="white"/>
<rect width="4.44444" height="4.5" transform="matrix(-1 0 0 1 132 51.5)" fill="white"/>
<rect width="4.44444" height="4.5" transform="matrix(-1 0 0 1 127.556 47)" fill="white"/>
<rect width="4.44444" height="4.5" transform="matrix(-1 0 0 1 123.111 47)" fill="white"/>
<rect width="4.44444" height="4.5" transform="matrix(-1 0 0 1 118.667 47)" fill="white"/>
<rect x="109.778" y="78.5" width="4.44444" height="4.5" fill="white"/>
<rect x="105.333" y="74" width="4.44444" height="4.5" fill="white"/>
<rect x="100.889" y="69.5" width="4.44444" height="4.5" fill="white"/>
<rect x="96.4443" y="65" width="4.44445" height="4.5" fill="white"/>
<rect x="92" y="60.5" width="4.44444" height="4.5" fill="white"/>
<rect x="92" y="56" width="4.44444" height="4.5" fill="white"/>
<rect x="92" y="51.5" width="4.44444" height="4.5" fill="white"/>
<rect x="96.4443" y="47" width="4.44445" height="4.5" fill="white"/>
<rect x="100.889" y="47" width="4.44444" height="4.5" fill="white"/>
<rect x="105.333" y="47" width="4.44444" height="4.5" fill="white"/>
<rect x="96.4443" y="51.5" width="4.44445" height="10.125" fill="white"/>
<rect x="96.4443" y="51.5" width="8.88889" height="4.5" fill="white"/>
<path fill-rule="evenodd" clip-rule="evenodd" d="M182.556 51.5H178.111H173.667H160.333H155.889H151.445V69.5H155.889H160.333V78.5H173.667V69.5H178.111H182.556V51.5Z" fill="#F25C5C"/>
<rect width="4.44444" height="4.5" transform="matrix(-1 0 0 1 169.222 51.5)" fill="white"/>
<rect width="4.44444" height="4.5" transform="matrix(-1 0 0 1 173.667 74)" fill="white"/>
<rect width="4.44444" height="4.5" transform="matrix(-1 0 0 1 178.111 69.5)" fill="white"/>
<rect width="4.44444" height="4.5" transform="matrix(-1 0 0 1 182.556 65)" fill="white"/>
<rect width="4.44444" height="4.5" transform="matrix(-1 0 0 1 187 60.5)" fill="white"/>
<rect width="4.44444" height="4.5" transform="matrix(-1 0 0 1 187 56)" fill="white"/>
<rect width="4.44444" height="4.5" transform="matrix(-1 0 0 1 187 51.5)" fill="white"/>
<rect width="4.44444" height="4.5" transform="matrix(-1 0 0 1 182.556 47)" fill="white"/>
<rect width="4.44444" height="4.5" transform="matrix(-1 0 0 1 178.111 47)" fill="white"/>
<rect width="4.44444" height="4.5" transform="matrix(-1 0 0 1 173.667 47)" fill="white"/>
<rect x="164.778" y="78.5" width="4.44444" height="4.5" fill="white"/>
<rect x="160.333" y="74" width="4.44444" height="4.5" fill="white"/>
<rect x="155.889" y="69.5" width="4.44444" height="4.5" fill="white"/>
<rect x="151.444" y="65" width="4.44445" height="4.5" fill="white"/>
<rect x="147" y="60.5" width="4.44444" height="4.5" fill="white"/>
<rect x="147" y="56" width="4.44444" height="4.5" fill="white"/>
<rect x="147" y="51.5" width="4.44444" height="4.5" fill="white"/>
<rect x="151.444" y="47" width="4.44445" height="4.5" fill="white"/>
<rect x="155.889" y="47" width="4.44444" height="4.5" fill="white"/>
<rect x="160.333" y="47" width="4.44444" height="4.5" fill="white"/>
<rect x="151.444" y="51.5" width="4.44445" height="10.125" fill="white"/>
<rect x="151.444" y="51.5" width="8.88889" height="4.5" fill="white"/>
<path fill-rule="evenodd" clip-rule="evenodd" d="M237.556 51.5H233.111H228.667H215.333H210.889H206.445V69.5H210.889H215.333V78.5H228.667V69.5H233.111H237.556V51.5Z" fill="#F25C5C"/>
<rect width="4.44444" height="4.5" transform="matrix(-1 0 0 1 224.222 51.5)" fill="white"/>
<rect width="4.44444" height="4.5" transform="matrix(-1 0 0 1 228.667 74)" fill="white"/>
<rect width="4.44444" height="4.5" transform="matrix(-1 0 0 1 233.111 69.5)" fill="white"/>
<rect width="4.44444" height="4.5" transform="matrix(-1 0 0 1 237.556 65)" fill="white"/>
<rect width="4.44444" height="4.5" transform="matrix(-1 0 0 1 242 60.5)" fill="white"/>
<rect width="4.44444" height="4.5" transform="matrix(-1 0 0 1 242 56)" fill="white"/>
<rect width="4.44444" height="4.5" transform="matrix(-1 0 0 1 242 51.5)" fill="white"/>
<rect width="4.44444" height="4.5" transform="matrix(-1 0 0 1 237.556 47)" fill="white"/>
<rect width="4.44444" height="4.5" transform="matrix(-1 0 0 1 233.111 47)" fill="white"/>
<rect width="4.44444" height="4.5" transform="matrix(-1 0 0 1 228.667 47)" fill="white"/>
<rect x="219.778" y="78.5" width="4.44444" height="4.5" fill="white"/>
<rect x="215.333" y="74" width="4.44444" height="4.5" fill="white"/>
<rect x="210.889" y="69.5" width="4.44444" height="4.5" fill="white"/>
<rect x="206.444" y="65" width="4.44445" height="4.5" fill="white"/>
<rect x="202" y="60.5" width="4.44444" height="4.5" fill="white"/>
<rect x="202" y="56" width="4.44444" height="4.5" fill="white"/>
<rect x="202" y="51.5" width="4.44444" height="4.5" fill="white"/>
<rect x="206.444" y="47" width="4.44445" height="4.5" fill="white"/>
<rect x="210.889" y="47" width="4.44444" height="4.5" fill="white"/>
<rect x="215.333" y="47" width="4.44444" height="4.5" fill="white"/>
<rect x="206.444" y="51.5" width="4.44445" height="10.125" fill="white"/>
<rect x="206.444" y="51.5" width="8.88889" height="4.5" fill="white"/>
<defs>
<linearGradient id="paint0_linear_46_732" x1="84.0721" y1="-14.5928" x2="113.369" y2="210.979" gradientUnits="userSpaceOnUse">
<stop stop-color="#00A7A7"/>
<stop offset="1" stop-color="#7B129F"/>
</linearGradient>
</defs>
</svg>
