<svg width="208" height="221" viewBox="0 0 208 221" fill="none" xmlns="http://www.w3.org/2000/svg">
<rect width="208" height="221" rx="16" fill="url(#paint0_linear_45_881)"/>
<g opacity="0.9">
<path d="M104 103C92.7935 95.5963 63.5846 76.3315 76.0279 59.9401C81.7898 52.3502 93.1207 51.9721 99.3813 59.1609L104 64.4645L108.619 59.1609C114.879 51.9721 126.21 52.3502 131.972 59.9402C144.415 76.3315 115.207 95.5963 104 103Z" fill="white"/>
</g>
<path d="M25.3748 115.2H33.0068C34.8308 115.2 36.4388 115.552 37.8308 116.256C39.2388 116.944 40.3268 117.92 41.0948 119.184C41.8788 120.448 42.2708 121.92 42.2708 123.6C42.2708 125.28 41.8788 126.752 41.0948 128.016C40.3268 129.28 39.2388 130.264 37.8308 130.968C36.4388 131.656 34.8308 132 33.0068 132H25.3748V115.2ZM32.8148 128.808C34.4948 128.808 35.8308 128.344 36.8228 127.416C37.8308 126.472 38.3348 125.2 38.3348 123.6C38.3348 122 37.8308 120.736 36.8228 119.808C35.8308 118.864 34.4948 118.392 32.8148 118.392H29.2628V128.808H32.8148ZM51.0829 132.192C49.7229 132.192 48.4989 131.912 47.4109 131.352C46.3389 130.776 45.4989 129.984 44.8909 128.976C44.2829 127.968 43.9789 126.824 43.9789 125.544C43.9789 124.264 44.2829 123.12 44.8909 122.112C45.4989 121.104 46.3389 120.32 47.4109 119.76C48.4989 119.184 49.7229 118.896 51.0829 118.896C52.4429 118.896 53.6589 119.184 54.7309 119.76C55.8029 120.32 56.6429 121.104 57.2509 122.112C57.8589 123.12 58.1629 124.264 58.1629 125.544C58.1629 126.824 57.8589 127.968 57.2509 128.976C56.6429 129.984 55.8029 130.776 54.7309 131.352C53.6589 131.912 52.4429 132.192 51.0829 132.192ZM51.0829 129.12C52.0429 129.12 52.8269 128.8 53.4349 128.16C54.0589 127.504 54.3709 126.632 54.3709 125.544C54.3709 124.456 54.0589 123.592 53.4349 122.952C52.8269 122.296 52.0429 121.968 51.0829 121.968C50.1229 121.968 49.3309 122.296 48.7069 122.952C48.0829 123.592 47.7709 124.456 47.7709 125.544C47.7709 126.632 48.0829 127.504 48.7069 128.16C49.3309 128.8 50.1229 129.12 51.0829 129.12ZM68.5135 118.896C70.1135 118.896 71.4015 119.376 72.3775 120.336C73.3695 121.296 73.8655 122.72 73.8655 124.608V132H70.1215V125.184C70.1215 124.16 69.8975 123.4 69.4495 122.904C69.0015 122.392 68.3535 122.136 67.5055 122.136C66.5615 122.136 65.8095 122.432 65.2495 123.024C64.6895 123.6 64.4095 124.464 64.4095 125.616V132H60.6655V119.088H64.2415V120.6C64.7375 120.056 65.3535 119.64 66.0895 119.352C66.8255 119.048 67.6335 118.896 68.5135 118.896ZM82.4673 118.896C84.4673 118.896 86.0033 119.376 87.0753 120.336C88.1473 121.28 88.6833 122.712 88.6833 124.632V132H85.1793V130.392C84.4753 131.592 83.1633 132.192 81.2433 132.192C80.2513 132.192 79.3873 132.024 78.6513 131.688C77.9313 131.352 77.3793 130.888 76.9953 130.296C76.6113 129.704 76.4193 129.032 76.4193 128.28C76.4193 127.08 76.8673 126.136 77.7633 125.448C78.6753 124.76 80.0753 124.416 81.9633 124.416H84.9393C84.9393 123.6 84.6913 122.976 84.1953 122.544C83.6993 122.096 82.9553 121.872 81.9633 121.872C81.2753 121.872 80.5953 121.984 79.9233 122.208C79.2673 122.416 78.7073 122.704 78.2433 123.072L76.8993 120.456C77.6033 119.96 78.4433 119.576 79.4193 119.304C80.4113 119.032 81.4273 118.896 82.4673 118.896ZM82.1793 129.672C82.8193 129.672 83.3873 129.528 83.8833 129.24C84.3793 128.936 84.7313 128.496 84.9393 127.92V126.6H82.3713C80.8353 126.6 80.0673 127.104 80.0673 128.112C80.0673 128.592 80.2513 128.976 80.6193 129.264C81.0033 129.536 81.5233 129.672 82.1793 129.672ZM100.4 131.376C100.032 131.648 99.5758 131.856 99.0318 132C98.5038 132.128 97.9438 132.192 97.3518 132.192C95.8158 132.192 94.6238 131.8 93.7758 131.016C92.9438 130.232 92.5278 129.08 92.5278 127.56V122.256H90.5358V119.376H92.5278V116.232H96.2718V119.376H99.4878V122.256H96.2718V127.512C96.2718 128.056 96.4078 128.48 96.6797 128.784C96.9678 129.072 97.3678 129.216 97.8798 129.216C98.4718 129.216 98.9758 129.056 99.3918 128.736L100.4 131.376ZM102.501 119.088H106.245V132H102.501V119.088ZM104.373 117.288C103.685 117.288 103.125 117.088 102.693 116.688C102.261 116.288 102.045 115.792 102.045 115.2C102.045 114.608 102.261 114.112 102.693 113.712C103.125 113.312 103.685 113.112 104.373 113.112C105.061 113.112 105.621 113.304 106.053 113.688C106.485 114.072 106.701 114.552 106.701 115.128C106.701 115.752 106.485 116.272 106.053 116.688C105.621 117.088 105.061 117.288 104.373 117.288ZM115.864 132.192C114.504 132.192 113.28 131.912 112.192 131.352C111.12 130.776 110.28 129.984 109.672 128.976C109.064 127.968 108.76 126.824 108.76 125.544C108.76 124.264 109.064 123.12 109.672 122.112C110.28 121.104 111.12 120.32 112.192 119.76C113.28 119.184 114.504 118.896 115.864 118.896C117.224 118.896 118.44 119.184 119.512 119.76C120.584 120.32 121.424 121.104 122.032 122.112C122.64 123.12 122.944 124.264 122.944 125.544C122.944 126.824 122.64 127.968 122.032 128.976C121.424 129.984 120.584 130.776 119.512 131.352C118.44 131.912 117.224 132.192 115.864 132.192ZM115.864 129.12C116.824 129.12 117.608 128.8 118.216 128.16C118.84 127.504 119.152 126.632 119.152 125.544C119.152 124.456 118.84 123.592 118.216 122.952C117.608 122.296 116.824 121.968 115.864 121.968C114.904 121.968 114.112 122.296 113.488 122.952C112.864 123.592 112.552 124.456 112.552 125.544C112.552 126.632 112.864 127.504 113.488 128.16C114.112 128.8 114.904 129.12 115.864 129.12ZM133.295 118.896C134.895 118.896 136.183 119.376 137.159 120.336C138.151 121.296 138.647 122.72 138.647 124.608V132H134.903V125.184C134.903 124.16 134.679 123.4 134.231 122.904C133.783 122.392 133.135 122.136 132.287 122.136C131.343 122.136 130.591 122.432 130.031 123.024C129.471 123.6 129.191 124.464 129.191 125.616V132H125.447V119.088H129.023V120.6C129.519 120.056 130.135 119.64 130.871 119.352C131.607 119.048 132.415 118.896 133.295 118.896ZM146.385 132.192C145.313 132.192 144.265 132.064 143.241 131.808C142.217 131.536 141.401 131.2 140.793 130.8L142.041 128.112C142.617 128.48 143.313 128.784 144.129 129.024C144.945 129.248 145.745 129.36 146.529 129.36C148.113 129.36 148.905 128.968 148.905 128.184C148.905 127.816 148.689 127.552 148.257 127.392C147.825 127.232 147.161 127.096 146.265 126.984C145.209 126.824 144.337 126.64 143.649 126.432C142.961 126.224 142.361 125.856 141.849 125.328C141.353 124.8 141.104 124.048 141.104 123.072C141.104 122.256 141.337 121.536 141.801 120.912C142.281 120.272 142.969 119.776 143.865 119.424C144.777 119.072 145.849 118.896 147.081 118.896C147.993 118.896 148.897 119 149.793 119.208C150.705 119.4 151.457 119.672 152.049 120.024L150.801 122.688C149.665 122.048 148.425 121.728 147.081 121.728C146.281 121.728 145.681 121.84 145.281 122.064C144.881 122.288 144.681 122.576 144.681 122.928C144.681 123.328 144.897 123.608 145.329 123.768C145.761 123.928 146.449 124.08 147.393 124.224C148.449 124.4 149.313 124.592 149.985 124.8C150.657 124.992 151.241 125.352 151.737 125.88C152.233 126.408 152.481 127.144 152.481 128.088C152.481 128.888 152.241 129.6 151.761 130.224C151.281 130.848 150.577 131.336 149.649 131.688C148.737 132.024 147.649 132.192 146.385 132.192ZM169.915 131.376C169.547 131.648 169.091 131.856 168.547 132C168.019 132.128 167.459 132.192 166.867 132.192C165.331 132.192 164.139 131.8 163.291 131.016C162.459 130.232 162.043 129.08 162.043 127.56V122.256H160.051V119.376H162.043V116.232H165.787V119.376H169.003V122.256H165.787V127.512C165.787 128.056 165.923 128.48 166.195 128.784C166.483 129.072 166.883 129.216 167.395 129.216C167.987 129.216 168.491 129.056 168.907 128.736L169.915 131.376ZM177.763 132.192C176.403 132.192 175.179 131.912 174.091 131.352C173.019 130.776 172.179 129.984 171.571 128.976C170.963 127.968 170.659 126.824 170.659 125.544C170.659 124.264 170.963 123.12 171.571 122.112C172.179 121.104 173.019 120.32 174.091 119.76C175.179 119.184 176.403 118.896 177.763 118.896C179.123 118.896 180.339 119.184 181.411 119.76C182.483 120.32 183.323 121.104 183.931 122.112C184.539 123.12 184.843 124.264 184.843 125.544C184.843 126.824 184.539 127.968 183.931 128.976C183.323 129.984 182.483 130.776 181.411 131.352C180.339 131.912 179.123 132.192 177.763 132.192ZM177.763 129.12C178.723 129.12 179.507 128.8 180.115 128.16C180.739 127.504 181.051 126.632 181.051 125.544C181.051 124.456 180.739 123.592 180.115 122.952C179.507 122.296 178.723 121.968 177.763 121.968C176.803 121.968 176.011 122.296 175.387 122.952C174.763 123.592 174.451 124.456 174.451 125.544C174.451 126.632 174.763 127.504 175.387 128.16C176.011 128.8 176.803 129.12 177.763 129.12ZM64.9953 161.192C63.6193 161.192 62.3793 160.912 61.2753 160.352C60.1873 159.776 59.3313 158.984 58.7073 157.976C58.0993 156.968 57.7953 155.824 57.7953 154.544C57.7953 153.264 58.0993 152.12 58.7073 151.112C59.3313 150.104 60.1873 149.32 61.2753 148.76C62.3793 148.184 63.6193 147.896 64.9953 147.896C66.3553 147.896 67.5393 148.184 68.5473 148.76C69.5713 149.32 70.3153 150.128 70.7793 151.184L67.8753 152.744C67.2033 151.56 66.2353 150.968 64.9713 150.968C63.9953 150.968 63.1873 151.288 62.5473 151.928C61.9073 152.568 61.5873 153.44 61.5873 154.544C61.5873 155.648 61.9073 156.52 62.5473 157.16C63.1873 157.8 63.9953 158.12 64.9713 158.12C66.2513 158.12 67.2193 157.528 67.8753 156.344L70.7793 157.928C70.3153 158.952 69.5713 159.752 68.5473 160.328C67.5393 160.904 66.3553 161.192 64.9953 161.192ZM80.6893 147.896C82.2893 147.896 83.5773 148.376 84.5533 149.336C85.5453 150.296 86.0413 151.72 86.0413 153.608V161H82.2973V154.184C82.2973 153.16 82.0733 152.4 81.6253 151.904C81.1773 151.392 80.5293 151.136 79.6813 151.136C78.7373 151.136 77.9853 151.432 77.4253 152.024C76.8653 152.6 76.5853 153.464 76.5853 154.616V161H72.8413V143.192H76.5853V149.432C77.0813 148.936 77.6813 148.56 78.3853 148.304C79.0893 148.032 79.8573 147.896 80.6893 147.896ZM94.643 147.896C96.643 147.896 98.179 148.376 99.251 149.336C100.323 150.28 100.859 151.712 100.859 153.632V161H97.355V159.392C96.651 160.592 95.339 161.192 93.419 161.192C92.427 161.192 91.563 161.024 90.827 160.688C90.107 160.352 89.555 159.888 89.171 159.296C88.787 158.704 88.595 158.032 88.595 157.28C88.595 156.08 89.043 155.136 89.939 154.448C90.851 153.76 92.251 153.416 94.139 153.416H97.115C97.115 152.6 96.867 151.976 96.371 151.544C95.875 151.096 95.131 150.872 94.139 150.872C93.451 150.872 92.771 150.984 92.099 151.208C91.443 151.416 90.883 151.704 90.419 152.072L89.075 149.456C89.779 148.96 90.619 148.576 91.595 148.304C92.587 148.032 93.603 147.896 94.643 147.896ZM94.355 158.672C94.995 158.672 95.563 158.528 96.059 158.24C96.555 157.936 96.907 157.496 97.115 156.92V155.6H94.547C93.011 155.6 92.243 156.104 92.243 157.112C92.243 157.592 92.427 157.976 92.795 158.264C93.179 158.536 93.699 158.672 94.355 158.672ZM107.824 149.792C108.272 149.168 108.872 148.696 109.624 148.376C110.392 148.056 111.272 147.896 112.264 147.896V151.352C111.848 151.32 111.568 151.304 111.424 151.304C110.352 151.304 109.512 151.608 108.904 152.216C108.296 152.808 107.992 153.704 107.992 154.904V161H104.248V148.088H107.824V149.792ZM114.49 148.088H118.234V161H114.49V148.088ZM116.362 146.288C115.674 146.288 115.114 146.088 114.682 145.688C114.25 145.288 114.034 144.792 114.034 144.2C114.034 143.608 114.25 143.112 114.682 142.712C115.114 142.312 115.674 142.112 116.362 142.112C117.05 142.112 117.61 142.304 118.042 142.688C118.474 143.072 118.69 143.552 118.69 144.128C118.69 144.752 118.474 145.272 118.042 145.688C117.61 146.088 117.05 146.288 116.362 146.288ZM130.036 160.376C129.668 160.648 129.212 160.856 128.668 161C128.14 161.128 127.58 161.192 126.988 161.192C125.452 161.192 124.26 160.8 123.412 160.016C122.58 159.232 122.164 158.08 122.164 156.56V151.256H120.172V148.376H122.164V145.232H125.908V148.376H129.124V151.256H125.908V156.512C125.908 157.056 126.044 157.48 126.316 157.784C126.604 158.072 127.004 158.216 127.516 158.216C128.108 158.216 128.612 158.056 129.028 157.736L130.036 160.376ZM132.138 148.088H135.882V161H132.138V148.088ZM134.01 146.288C133.322 146.288 132.762 146.088 132.33 145.688C131.898 145.288 131.682 144.792 131.682 144.2C131.682 143.608 131.898 143.112 132.33 142.712C132.762 142.312 133.322 142.112 134.01 142.112C134.698 142.112 135.258 142.304 135.69 142.688C136.122 143.072 136.338 143.552 136.338 144.128C136.338 144.752 136.122 145.272 135.69 145.688C135.258 146.088 134.698 146.288 134.01 146.288ZM152.173 148.088L146.341 161.792C145.749 163.28 145.013 164.328 144.133 164.936C143.269 165.544 142.221 165.848 140.989 165.848C140.317 165.848 139.653 165.744 138.997 165.536C138.341 165.328 137.805 165.04 137.389 164.672L138.757 162.008C139.045 162.264 139.373 162.464 139.741 162.608C140.125 162.752 140.501 162.824 140.869 162.824C141.381 162.824 141.797 162.696 142.117 162.44C142.437 162.2 142.725 161.792 142.981 161.216L143.029 161.096L137.437 148.088H141.301L144.925 156.848L148.573 148.088H152.173Z" fill="white"/>
<defs>
<linearGradient id="paint0_linear_45_881" x1="29" y1="-25" x2="208" y2="252.5" gradientUnits="userSpaceOnUse">
<stop stop-color="#00A7A7"/>
<stop offset="1" stop-color="#7B129F"/>
</linearGradient>
</defs>
</svg>
