<svg width="208" height="221" viewBox="0 0 208 221" fill="none" xmlns="http://www.w3.org/2000/svg">
<rect width="208" height="221" rx="16" fill="url(#paint0_linear_45_768)"/>
<path d="M56.9219 135.88V139H43.9139V122.2H56.6099V125.32H47.7779V128.968H55.5779V131.992H47.7779V135.88H56.9219ZM67.9154 138.376C67.5474 138.648 67.0914 138.856 66.5474 139C66.0194 139.128 65.4594 139.192 64.8674 139.192C63.3314 139.192 62.1394 138.8 61.2914 138.016C60.4594 137.232 60.0434 136.08 60.0434 134.56V129.256H58.0514V126.376H60.0434V123.232H63.7874V126.376H67.0034V129.256H63.7874V134.512C63.7874 135.056 63.9234 135.48 64.1954 135.784C64.4834 136.072 64.8834 136.216 65.3954 136.216C65.9874 136.216 66.4914 136.056 66.9074 135.736L67.9154 138.376ZM77.8651 125.896C79.4651 125.896 80.7531 126.376 81.7291 127.336C82.7211 128.296 83.2171 129.72 83.2171 131.608V139H79.4731V132.184C79.4731 131.16 79.2491 130.4 78.8011 129.904C78.3531 129.392 77.7051 129.136 76.8571 129.136C75.9131 129.136 75.1611 129.432 74.6011 130.024C74.0411 130.6 73.7611 131.464 73.7611 132.616V139H70.0171V121.192H73.7611V127.432C74.2571 126.936 74.8571 126.56 75.5611 126.304C76.2651 126.032 77.0331 125.896 77.8651 125.896ZM99.3994 132.592C99.3994 132.64 99.3754 132.976 99.3274 133.6H89.5594C89.7354 134.4 90.1514 135.032 90.8074 135.496C91.4634 135.96 92.2794 136.192 93.2554 136.192C93.9274 136.192 94.5194 136.096 95.0314 135.904C95.5594 135.696 96.0474 135.376 96.4954 134.944L98.4874 137.104C97.2714 138.496 95.4954 139.192 93.1594 139.192C91.7034 139.192 90.4154 138.912 89.2954 138.352C88.1754 137.776 87.3114 136.984 86.7034 135.976C86.0954 134.968 85.7914 133.824 85.7914 132.544C85.7914 131.28 86.0874 130.144 86.6794 129.136C87.2874 128.112 88.1114 127.32 89.1514 126.76C90.2074 126.184 91.3834 125.896 92.6794 125.896C93.9434 125.896 95.0874 126.168 96.1114 126.712C97.1354 127.256 97.9354 128.04 98.5114 129.064C99.1034 130.072 99.3994 131.248 99.3994 132.592ZM92.7034 128.728C91.8554 128.728 91.1434 128.968 90.5674 129.448C89.9914 129.928 89.6394 130.584 89.5114 131.416H95.8714C95.7434 130.6 95.3914 129.952 94.8154 129.472C94.2394 128.976 93.5354 128.728 92.7034 128.728ZM105.468 127.792C105.916 127.168 106.516 126.696 107.268 126.376C108.036 126.056 108.916 125.896 109.908 125.896V129.352C109.492 129.32 109.212 129.304 109.068 129.304C107.996 129.304 107.156 129.608 106.548 130.216C105.94 130.808 105.636 131.704 105.636 132.904V139H101.892V126.088H105.468V127.792ZM124.665 132.592C124.665 132.64 124.641 132.976 124.593 133.6H114.825C115.001 134.4 115.417 135.032 116.073 135.496C116.729 135.96 117.545 136.192 118.521 136.192C119.193 136.192 119.785 136.096 120.297 135.904C120.825 135.696 121.313 135.376 121.761 134.944L123.753 137.104C122.537 138.496 120.761 139.192 118.425 139.192C116.969 139.192 115.681 138.912 114.561 138.352C113.441 137.776 112.577 136.984 111.969 135.976C111.361 134.968 111.057 133.824 111.057 132.544C111.057 131.28 111.353 130.144 111.945 129.136C112.553 128.112 113.377 127.32 114.417 126.76C115.473 126.184 116.649 125.896 117.945 125.896C119.209 125.896 120.353 126.168 121.377 126.712C122.401 127.256 123.201 128.04 123.777 129.064C124.369 130.072 124.665 131.248 124.665 132.592ZM117.969 128.728C117.121 128.728 116.409 128.968 115.833 129.448C115.257 129.928 114.905 130.584 114.777 131.416H121.137C121.009 130.6 120.657 129.952 120.081 129.472C119.505 128.976 118.801 128.728 117.969 128.728ZM140.166 126.088V139H136.614V137.464C136.118 138.024 135.526 138.456 134.838 138.76C134.15 139.048 133.406 139.192 132.606 139.192C130.91 139.192 129.566 138.704 128.574 137.728C127.582 136.752 127.086 135.304 127.086 133.384V126.088H130.83V132.832C130.83 134.912 131.702 135.952 133.446 135.952C134.342 135.952 135.062 135.664 135.606 135.088C136.15 134.496 136.422 133.624 136.422 132.472V126.088H140.166ZM160.17 125.896C161.786 125.896 163.066 126.376 164.01 127.336C164.97 128.28 165.45 129.704 165.45 131.608V139H161.706V132.184C161.706 131.16 161.49 130.4 161.058 129.904C160.642 129.392 160.042 129.136 159.258 129.136C158.378 129.136 157.682 129.424 157.17 130C156.658 130.56 156.402 131.4 156.402 132.52V139H152.658V132.184C152.658 130.152 151.842 129.136 150.21 129.136C149.346 129.136 148.658 129.424 148.146 130C147.634 130.56 147.378 131.4 147.378 132.52V139H143.634V126.088H147.21V127.576C147.69 127.032 148.274 126.616 148.962 126.328C149.666 126.04 150.434 125.896 151.266 125.896C152.178 125.896 153.002 126.08 153.738 126.448C154.474 126.8 155.066 127.32 155.514 128.008C156.042 127.336 156.706 126.816 157.506 126.448C158.322 126.08 159.21 125.896 160.17 125.896ZM64.8157 156.792C65.2637 156.168 65.8637 155.696 66.6157 155.376C67.3837 155.056 68.2637 154.896 69.2557 154.896V158.352C68.8397 158.32 68.5597 158.304 68.4157 158.304C67.3437 158.304 66.5037 158.608 65.8957 159.216C65.2877 159.808 64.9837 160.704 64.9837 161.904V168H61.2397V155.088H64.8157V156.792ZM84.0127 161.592C84.0127 161.64 83.9887 161.976 83.9407 162.6H74.1727C74.3487 163.4 74.7647 164.032 75.4207 164.496C76.0767 164.96 76.8927 165.192 77.8687 165.192C78.5407 165.192 79.1327 165.096 79.6447 164.904C80.1727 164.696 80.6607 164.376 81.1087 163.944L83.1007 166.104C81.8847 167.496 80.1087 168.192 77.7727 168.192C76.3167 168.192 75.0287 167.912 73.9087 167.352C72.7887 166.776 71.9247 165.984 71.3167 164.976C70.7087 163.968 70.4047 162.824 70.4047 161.544C70.4047 160.28 70.7007 159.144 71.2927 158.136C71.9007 157.112 72.7247 156.32 73.7647 155.76C74.8207 155.184 75.9967 154.896 77.2927 154.896C78.5567 154.896 79.7007 155.168 80.7247 155.712C81.7487 156.256 82.5487 157.04 83.1247 158.064C83.7167 159.072 84.0127 160.248 84.0127 161.592ZM77.3167 157.728C76.4687 157.728 75.7567 157.968 75.1807 158.448C74.6047 158.928 74.2527 159.584 74.1247 160.416H80.4847C80.3567 159.6 80.0047 158.952 79.4287 158.472C78.8527 157.976 78.1487 157.728 77.3167 157.728ZM86.5053 150.192H90.2493V168H86.5053V150.192ZM106.372 161.592C106.372 161.64 106.348 161.976 106.3 162.6H96.5321C96.7081 163.4 97.1241 164.032 97.7801 164.496C98.4361 164.96 99.2521 165.192 100.228 165.192C100.9 165.192 101.492 165.096 102.004 164.904C102.532 164.696 103.02 164.376 103.468 163.944L105.46 166.104C104.244 167.496 102.468 168.192 100.132 168.192C98.6761 168.192 97.3881 167.912 96.2681 167.352C95.1481 166.776 94.2841 165.984 93.6761 164.976C93.0681 163.968 92.7641 162.824 92.7641 161.544C92.7641 160.28 93.0601 159.144 93.6521 158.136C94.2601 157.112 95.0841 156.32 96.1241 155.76C97.1801 155.184 98.3561 154.896 99.6521 154.896C100.916 154.896 102.06 155.168 103.084 155.712C104.108 156.256 104.908 157.04 105.484 158.064C106.076 159.072 106.372 160.248 106.372 161.592ZM99.6761 157.728C98.8281 157.728 98.1161 157.968 97.5401 158.448C96.9641 158.928 96.6121 159.584 96.4841 160.416H102.844C102.716 159.6 102.364 158.952 101.788 158.472C101.212 157.976 100.508 157.728 99.6761 157.728ZM113.721 154.896C115.721 154.896 117.257 155.376 118.329 156.336C119.401 157.28 119.937 158.712 119.937 160.632V168H116.433V166.392C115.729 167.592 114.417 168.192 112.497 168.192C111.505 168.192 110.641 168.024 109.905 167.688C109.185 167.352 108.633 166.888 108.249 166.296C107.865 165.704 107.673 165.032 107.673 164.28C107.673 163.08 108.121 162.136 109.017 161.448C109.929 160.76 111.329 160.416 113.217 160.416H116.193C116.193 159.6 115.945 158.976 115.449 158.544C114.953 158.096 114.209 157.872 113.217 157.872C112.529 157.872 111.849 157.984 111.177 158.208C110.521 158.416 109.961 158.704 109.497 159.072L108.153 156.456C108.857 155.96 109.697 155.576 110.673 155.304C111.665 155.032 112.681 154.896 113.721 154.896ZM113.433 165.672C114.073 165.672 114.641 165.528 115.137 165.24C115.633 164.936 115.985 164.496 116.193 163.92V162.6H113.625C112.089 162.6 111.321 163.104 111.321 164.112C111.321 164.592 111.505 164.976 111.873 165.264C112.257 165.536 112.777 165.672 113.433 165.672ZM127.67 168.192C126.598 168.192 125.55 168.064 124.526 167.808C123.502 167.536 122.686 167.2 122.078 166.8L123.326 164.112C123.902 164.48 124.598 164.784 125.414 165.024C126.23 165.248 127.03 165.36 127.814 165.36C129.398 165.36 130.19 164.968 130.19 164.184C130.19 163.816 129.974 163.552 129.542 163.392C129.11 163.232 128.446 163.096 127.55 162.984C126.494 162.824 125.622 162.64 124.934 162.432C124.246 162.224 123.646 161.856 123.134 161.328C122.638 160.8 122.39 160.048 122.39 159.072C122.39 158.256 122.622 157.536 123.086 156.912C123.566 156.272 124.254 155.776 125.15 155.424C126.062 155.072 127.134 154.896 128.366 154.896C129.278 154.896 130.182 155 131.078 155.208C131.99 155.4 132.742 155.672 133.334 156.024L132.086 158.688C130.95 158.048 129.71 157.728 128.366 157.728C127.566 157.728 126.966 157.84 126.566 158.064C126.166 158.288 125.966 158.576 125.966 158.928C125.966 159.328 126.182 159.608 126.614 159.768C127.046 159.928 127.734 160.08 128.678 160.224C129.734 160.4 130.598 160.592 131.27 160.8C131.942 160.992 132.526 161.352 133.022 161.88C133.518 162.408 133.766 163.144 133.766 164.088C133.766 164.888 133.526 165.6 133.046 166.224C132.566 166.848 131.862 167.336 130.934 167.688C130.022 168.024 128.934 168.192 127.67 168.192ZM148.724 161.592C148.724 161.64 148.7 161.976 148.652 162.6H138.884C139.06 163.4 139.476 164.032 140.132 164.496C140.788 164.96 141.604 165.192 142.58 165.192C143.252 165.192 143.844 165.096 144.356 164.904C144.884 164.696 145.372 164.376 145.82 163.944L147.812 166.104C146.596 167.496 144.82 168.192 142.484 168.192C141.028 168.192 139.74 167.912 138.62 167.352C137.5 166.776 136.636 165.984 136.028 164.976C135.42 163.968 135.116 162.824 135.116 161.544C135.116 160.28 135.412 159.144 136.004 158.136C136.612 157.112 137.436 156.32 138.476 155.76C139.532 155.184 140.708 154.896 142.004 154.896C143.268 154.896 144.412 155.168 145.436 155.712C146.46 156.256 147.26 157.04 147.836 158.064C148.428 159.072 148.724 160.248 148.724 161.592ZM142.028 157.728C141.18 157.728 140.468 157.968 139.892 158.448C139.316 158.928 138.964 159.584 138.836 160.416H145.196C145.068 159.6 144.716 158.952 144.14 158.472C143.564 157.976 142.86 157.728 142.028 157.728Z" fill="white"/>
<g opacity="0.6">
<path opacity="0.6" d="M104.48 70.2573L86 78.6619L104.48 89.5799L122.953 78.6619L104.48 70.2573Z" fill="white"/>
</g>
<g opacity="0.45">
<path opacity="0.8" d="M86 78.6619L104.48 89.5799V48L86 78.6619Z" fill="white"/>
</g>
<g opacity="0.8">
<path opacity="0.9" d="M104.479 48V89.5799L122.952 78.6619L104.479 48Z" fill="white"/>
</g>
<g opacity="0.45">
<path opacity="0.8" d="M86 82.1632L104.48 108.198V93.0812L86 82.1632Z" fill="white"/>
</g>
<g opacity="0.8">
<path opacity="0.9" d="M104.479 93.0812V108.198L122.967 82.1632L104.479 93.0812Z" fill="white"/>
</g>
<defs>
<linearGradient id="paint0_linear_45_768" x1="29" y1="-25" x2="208" y2="252.5" gradientUnits="userSpaceOnUse">
<stop stop-color="#00A7A7"/>
<stop offset="1" stop-color="#7B129F"/>
</linearGradient>
</defs>
</svg>
