<svg width="208" height="221" viewBox="0 0 208 221" fill="none" xmlns="http://www.w3.org/2000/svg">
<rect width="208" height="221" rx="16" fill="url(#paint0_linear_44_495)"/>
<path d="M36.3909 148.288C35.0629 148.288 33.7749 148.112 32.5269 147.76C31.2949 147.392 30.3029 146.92 29.5509 146.344L30.8709 143.416C31.5909 143.944 32.4469 144.368 33.4389 144.688C34.4309 145.008 35.4229 145.168 36.4149 145.168C37.5189 145.168 38.3349 145.008 38.8629 144.688C39.3909 144.352 39.6549 143.912 39.6549 143.368C39.6549 142.968 39.4949 142.64 39.1749 142.384C38.8709 142.112 38.4709 141.896 37.9749 141.736C37.4949 141.576 36.8389 141.4 36.0069 141.208C34.7269 140.904 33.6789 140.6 32.8629 140.296C32.0469 139.992 31.3429 139.504 30.7509 138.832C30.1749 138.16 29.8869 137.264 29.8869 136.144C29.8869 135.168 30.1509 134.288 30.6789 133.504C31.2069 132.704 31.9989 132.072 33.0549 131.608C34.1269 131.144 35.4309 130.912 36.9669 130.912C38.0389 130.912 39.0869 131.04 40.1109 131.296C41.1349 131.552 42.0309 131.92 42.7989 132.4L41.5989 135.352C40.0469 134.472 38.4949 134.032 36.9429 134.032C35.8549 134.032 35.0469 134.208 34.5189 134.56C34.0069 134.912 33.7509 135.376 33.7509 135.952C33.7509 136.528 34.0469 136.96 34.6389 137.248C35.2469 137.52 36.1669 137.792 37.3989 138.064C38.6789 138.368 39.7269 138.672 40.5429 138.976C41.3589 139.28 42.0549 139.76 42.6309 140.416C43.2229 141.072 43.5189 141.96 43.5189 143.08C43.5189 144.04 43.2469 144.92 42.7029 145.72C42.1749 146.504 41.3749 147.128 40.3029 147.592C39.2309 148.056 37.9269 148.288 36.3909 148.288ZM45.9116 135.088H49.6556V148H45.9116V135.088ZM47.7836 133.288C47.0956 133.288 46.5356 133.088 46.1036 132.688C45.6716 132.288 45.4556 131.792 45.4556 131.2C45.4556 130.608 45.6716 130.112 46.1036 129.712C46.5356 129.312 47.0956 129.112 47.7836 129.112C48.4716 129.112 49.0316 129.304 49.4636 129.688C49.8956 130.072 50.1116 130.552 50.1116 131.128C50.1116 131.752 49.8956 132.272 49.4636 132.688C49.0316 133.088 48.4716 133.288 47.7836 133.288ZM53.1303 130.192H56.8743V148H53.1303V130.192ZM60.3491 130.192H64.0931V148H60.3491V130.192ZM80.3838 135.088L74.5518 148.792C73.9598 150.28 73.2238 151.328 72.3438 151.936C71.4798 152.544 70.4318 152.848 69.1998 152.848C68.5278 152.848 67.8638 152.744 67.2078 152.536C66.5518 152.328 66.0158 152.04 65.5998 151.672L66.9678 149.008C67.2558 149.264 67.5838 149.464 67.9518 149.608C68.3358 149.752 68.7118 149.824 69.0798 149.824C69.5918 149.824 70.0078 149.696 70.3278 149.44C70.6478 149.2 70.9358 148.792 71.1918 148.216L71.2398 148.096L65.6478 135.088H69.5118L73.1358 143.848L76.7838 135.088H80.3838ZM82.1756 131.2H89.8076C91.6316 131.2 93.2396 131.552 94.6316 132.256C96.0396 132.944 97.1276 133.92 97.8956 135.184C98.6796 136.448 99.0716 137.92 99.0716 139.6C99.0716 141.28 98.6796 142.752 97.8956 144.016C97.1276 145.28 96.0396 146.264 94.6316 146.968C93.2396 147.656 91.6316 148 89.8076 148H82.1756V131.2ZM89.6156 144.808C91.2956 144.808 92.6316 144.344 93.6236 143.416C94.6316 142.472 95.1356 141.2 95.1356 139.6C95.1356 138 94.6316 136.736 93.6236 135.808C92.6316 134.864 91.2956 134.392 89.6156 134.392H86.0636V144.808H89.6156ZM107.884 148.192C106.524 148.192 105.3 147.912 104.212 147.352C103.14 146.776 102.3 145.984 101.692 144.976C101.084 143.968 100.78 142.824 100.78 141.544C100.78 140.264 101.084 139.12 101.692 138.112C102.3 137.104 103.14 136.32 104.212 135.76C105.3 135.184 106.524 134.896 107.884 134.896C109.244 134.896 110.46 135.184 111.532 135.76C112.604 136.32 113.444 137.104 114.052 138.112C114.66 139.12 114.964 140.264 114.964 141.544C114.964 142.824 114.66 143.968 114.052 144.976C113.444 145.984 112.604 146.776 111.532 147.352C110.46 147.912 109.244 148.192 107.884 148.192ZM107.884 145.12C108.844 145.12 109.628 144.8 110.236 144.16C110.86 143.504 111.172 142.632 111.172 141.544C111.172 140.456 110.86 139.592 110.236 138.952C109.628 138.296 108.844 137.968 107.884 137.968C106.924 137.968 106.132 138.296 105.508 138.952C104.884 139.592 104.572 140.456 104.572 141.544C104.572 142.632 104.884 143.504 105.508 144.16C106.132 144.8 106.924 145.12 107.884 145.12ZM130.786 135.088V145.84C130.786 148.208 130.17 149.968 128.938 151.12C127.706 152.272 125.906 152.848 123.538 152.848C122.29 152.848 121.106 152.696 119.986 152.392C118.866 152.088 117.938 151.648 117.202 151.072L118.69 148.384C119.234 148.832 119.922 149.184 120.754 149.44C121.586 149.712 122.418 149.848 123.25 149.848C124.546 149.848 125.498 149.552 126.106 148.96C126.73 148.384 127.042 147.504 127.042 146.32V145.768C126.066 146.84 124.706 147.376 122.962 147.376C121.778 147.376 120.69 147.12 119.698 146.608C118.722 146.08 117.946 145.344 117.37 144.4C116.794 143.456 116.506 142.368 116.506 141.136C116.506 139.904 116.794 138.816 117.37 137.872C117.946 136.928 118.722 136.2 119.698 135.688C120.69 135.16 121.778 134.896 122.962 134.896C124.834 134.896 126.258 135.512 127.234 136.744V135.088H130.786ZM123.706 144.304C124.698 144.304 125.506 144.016 126.13 143.44C126.77 142.848 127.09 142.08 127.09 141.136C127.09 140.192 126.77 139.432 126.13 138.856C125.506 138.264 124.698 137.968 123.706 137.968C122.714 137.968 121.898 138.264 121.258 138.856C120.618 139.432 120.298 140.192 120.298 141.136C120.298 142.08 120.618 142.848 121.258 143.44C121.898 144.016 122.714 144.304 123.706 144.304ZM138.615 148.192C137.543 148.192 136.495 148.064 135.471 147.808C134.447 147.536 133.631 147.2 133.023 146.8L134.271 144.112C134.847 144.48 135.543 144.784 136.359 145.024C137.175 145.248 137.975 145.36 138.759 145.36C140.343 145.36 141.135 144.968 141.135 144.184C141.135 143.816 140.919 143.552 140.487 143.392C140.055 143.232 139.391 143.096 138.495 142.984C137.439 142.824 136.567 142.64 135.879 142.432C135.191 142.224 134.591 141.856 134.079 141.328C133.583 140.8 133.335 140.048 133.335 139.072C133.335 138.256 133.567 137.536 134.031 136.912C134.511 136.272 135.199 135.776 136.095 135.424C137.007 135.072 138.079 134.896 139.311 134.896C140.223 134.896 141.127 135 142.023 135.208C142.935 135.4 143.687 135.672 144.279 136.024L143.031 138.688C141.895 138.048 140.655 137.728 139.311 137.728C138.511 137.728 137.911 137.84 137.511 138.064C137.111 138.288 136.911 138.576 136.911 138.928C136.911 139.328 137.127 139.608 137.559 139.768C137.991 139.928 138.679 140.08 139.623 140.224C140.679 140.4 141.543 140.592 142.215 140.8C142.887 140.992 143.471 141.352 143.967 141.88C144.463 142.408 144.711 143.144 144.711 144.088C144.711 144.888 144.471 145.6 143.991 146.224C143.511 146.848 142.807 147.336 141.879 147.688C140.967 148.024 139.879 148.192 138.615 148.192ZM170.234 131.2L162.962 148H159.122L151.874 131.2H156.074L161.186 143.2L166.37 131.2H170.234ZM178.139 131.2V148H174.251V134.32H170.891V131.2H178.139Z" fill="white"/>
<path fill-rule="evenodd" clip-rule="evenodd" d="M64.5557 70.5H60.1112H55.6668H42.3334H37.889H33.4446V88.5H37.889H42.3334V97.5H55.6668V88.5H60.1112H64.5557V70.5Z" fill="#F25C5C"/>
<rect width="4.44444" height="4.5" transform="matrix(-1 0 0 1 51.2222 70.5)" fill="white"/>
<rect width="4.44444" height="4.5" transform="matrix(-1 0 0 1 55.6665 93)" fill="white"/>
<rect width="4.44444" height="4.5" transform="matrix(-1 0 0 1 60.1113 88.5)" fill="white"/>
<rect width="4.44444" height="4.5" transform="matrix(-1 0 0 1 64.5557 84)" fill="white"/>
<rect width="4.44444" height="4.5" transform="matrix(-1 0 0 1 69 79.5)" fill="white"/>
<rect width="4.44444" height="4.5" transform="matrix(-1 0 0 1 69 75)" fill="white"/>
<rect width="4.44444" height="4.5" transform="matrix(-1 0 0 1 69 70.5)" fill="white"/>
<rect width="4.44444" height="4.5" transform="matrix(-1 0 0 1 64.5557 66)" fill="white"/>
<rect width="4.44444" height="4.5" transform="matrix(-1 0 0 1 60.1113 66)" fill="white"/>
<rect width="4.44444" height="4.5" transform="matrix(-1 0 0 1 55.6665 66)" fill="white"/>
<rect x="46.7778" y="97.5" width="4.44444" height="4.5" fill="white"/>
<rect x="42.3335" y="93" width="4.44444" height="4.5" fill="white"/>
<rect x="37.8887" y="88.5" width="4.44444" height="4.5" fill="white"/>
<rect x="33.4443" y="84" width="4.44445" height="4.5" fill="white"/>
<rect x="29" y="79.5" width="4.44444" height="4.5" fill="white"/>
<rect x="29" y="75" width="4.44444" height="4.5" fill="white"/>
<rect x="29" y="70.5" width="4.44444" height="4.5" fill="white"/>
<rect x="33.4443" y="66" width="4.44445" height="4.5" fill="white"/>
<rect x="37.8887" y="66" width="4.44444" height="4.5" fill="white"/>
<rect x="42.3335" y="66" width="4.44444" height="4.5" fill="white"/>
<rect x="33.4443" y="70.5" width="4.44445" height="10.125" fill="white"/>
<rect x="33.4443" y="70.5" width="8.88889" height="4.5" fill="white"/>
<rect width="4.44444" height="4.5" transform="matrix(-1 0 0 1 106.222 70.5)" fill="white"/>
<rect width="4.44444" height="4.5" transform="matrix(-1 0 0 1 110.667 93)" fill="white"/>
<rect width="4.44444" height="4.5" transform="matrix(-1 0 0 1 115.111 88.5)" fill="white"/>
<rect width="4.44444" height="4.5" transform="matrix(-1 0 0 1 119.556 84)" fill="white"/>
<rect width="4.44444" height="4.5" transform="matrix(-1 0 0 1 124 79.5)" fill="white"/>
<rect width="4.44444" height="4.5" transform="matrix(-1 0 0 1 124 75)" fill="white"/>
<rect width="4.44444" height="4.5" transform="matrix(-1 0 0 1 124 70.5)" fill="white"/>
<rect width="4.44444" height="4.5" transform="matrix(-1 0 0 1 119.556 66)" fill="white"/>
<rect width="4.44444" height="4.5" transform="matrix(-1 0 0 1 115.111 66)" fill="white"/>
<rect width="4.44444" height="4.5" transform="matrix(-1 0 0 1 110.667 66)" fill="white"/>
<rect x="101.778" y="97.5" width="4.44444" height="4.5" fill="white"/>
<rect x="97.3335" y="93" width="4.44444" height="4.5" fill="white"/>
<rect x="92.8887" y="88.5" width="4.44444" height="4.5" fill="white"/>
<rect x="88.4443" y="84" width="4.44445" height="4.5" fill="white"/>
<rect x="84" y="79.5" width="4.44444" height="4.5" fill="white"/>
<rect x="84" y="75" width="4.44444" height="4.5" fill="white"/>
<rect x="84" y="70.5" width="4.44444" height="4.5" fill="white"/>
<rect x="88.4443" y="66" width="4.44445" height="4.5" fill="white"/>
<rect x="92.8887" y="66" width="4.44444" height="4.5" fill="white"/>
<rect x="97.3335" y="66" width="4.44444" height="4.5" fill="white"/>
<rect width="4.44444" height="4.5" transform="matrix(-1 0 0 1 161.222 70.5)" fill="white"/>
<rect width="4.44444" height="4.5" transform="matrix(-1 0 0 1 165.667 93)" fill="white"/>
<rect width="4.44444" height="4.5" transform="matrix(-1 0 0 1 170.111 88.5)" fill="white"/>
<rect width="4.44444" height="4.5" transform="matrix(-1 0 0 1 174.556 84)" fill="white"/>
<rect width="4.44444" height="4.5" transform="matrix(-1 0 0 1 179 79.5)" fill="white"/>
<rect width="4.44444" height="4.5" transform="matrix(-1 0 0 1 179 75)" fill="white"/>
<rect width="4.44444" height="4.5" transform="matrix(-1 0 0 1 179 70.5)" fill="white"/>
<rect width="4.44444" height="4.5" transform="matrix(-1 0 0 1 174.556 66)" fill="white"/>
<rect width="4.44444" height="4.5" transform="matrix(-1 0 0 1 170.111 66)" fill="white"/>
<rect width="4.44444" height="4.5" transform="matrix(-1 0 0 1 165.667 66)" fill="white"/>
<rect x="156.778" y="97.5" width="4.44444" height="4.5" fill="white"/>
<rect x="152.333" y="93" width="4.44444" height="4.5" fill="white"/>
<rect x="147.889" y="88.5" width="4.44444" height="4.5" fill="white"/>
<rect x="143.444" y="84" width="4.44445" height="4.5" fill="white"/>
<rect x="139" y="79.5" width="4.44444" height="4.5" fill="white"/>
<rect x="139" y="75" width="4.44444" height="4.5" fill="white"/>
<rect x="139" y="70.5" width="4.44444" height="4.5" fill="white"/>
<rect x="143.444" y="66" width="4.44445" height="4.5" fill="white"/>
<rect x="147.889" y="66" width="4.44444" height="4.5" fill="white"/>
<rect x="152.333" y="66" width="4.44444" height="4.5" fill="white"/>
<defs>
<linearGradient id="paint0_linear_44_495" x1="29" y1="-25" x2="208" y2="252.5" gradientUnits="userSpaceOnUse">
<stop stop-color="#00A7A7"/>
<stop offset="1" stop-color="#7B129F"/>
</linearGradient>
</defs>
</svg>
