<svg width="208" height="221" viewBox="0 0 208 221" fill="none" xmlns="http://www.w3.org/2000/svg">
<rect width="208" height="221" rx="16" fill="url(#paint0_linear_44_496)"/>
<path d="M34.3753 148.288C33.0473 148.288 31.7593 148.112 30.5113 147.76C29.2793 147.392 28.2873 146.92 27.5353 146.344L28.8553 143.416C29.5753 143.944 30.4313 144.368 31.4233 144.688C32.4153 145.008 33.4073 145.168 34.3993 145.168C35.5033 145.168 36.3193 145.008 36.8473 144.688C37.3753 144.352 37.6393 143.912 37.6393 143.368C37.6393 142.968 37.4793 142.64 37.1593 142.384C36.8553 142.112 36.4553 141.896 35.9593 141.736C35.4793 141.576 34.8233 141.4 33.9913 141.208C32.7113 140.904 31.6633 140.6 30.8473 140.296C30.0313 139.992 29.3273 139.504 28.7353 138.832C28.1593 138.16 27.8713 137.264 27.8713 136.144C27.8713 135.168 28.1353 134.288 28.6633 133.504C29.1913 132.704 29.9833 132.072 31.0393 131.608C32.1113 131.144 33.4153 130.912 34.9513 130.912C36.0233 130.912 37.0713 131.04 38.0953 131.296C39.1193 131.552 40.0153 131.92 40.7833 132.4L39.5833 135.352C38.0313 134.472 36.4793 134.032 34.9273 134.032C33.8393 134.032 33.0313 134.208 32.5033 134.56C31.9913 134.912 31.7353 135.376 31.7353 135.952C31.7353 136.528 32.0313 136.96 32.6233 137.248C33.2313 137.52 34.1513 137.792 35.3833 138.064C36.6633 138.368 37.7113 138.672 38.5273 138.976C39.3433 139.28 40.0393 139.76 40.6153 140.416C41.2073 141.072 41.5033 141.96 41.5033 143.08C41.5033 144.04 41.2313 144.92 40.6873 145.72C40.1593 146.504 39.3593 147.128 38.2873 147.592C37.2153 148.056 35.9113 148.288 34.3753 148.288ZM43.896 135.088H47.64V148H43.896V135.088ZM45.768 133.288C45.08 133.288 44.52 133.088 44.088 132.688C43.656 132.288 43.44 131.792 43.44 131.2C43.44 130.608 43.656 130.112 44.088 129.712C44.52 129.312 45.08 129.112 45.768 129.112C46.456 129.112 47.016 129.304 47.448 129.688C47.88 130.072 48.096 130.552 48.096 131.128C48.096 131.752 47.88 132.272 47.448 132.688C47.016 133.088 46.456 133.288 45.768 133.288ZM51.1147 130.192H54.8587V148H51.1147V130.192ZM58.3335 130.192H62.0775V148H58.3335V130.192ZM78.3682 135.088L72.5362 148.792C71.9442 150.28 71.2082 151.328 70.3282 151.936C69.4642 152.544 68.4162 152.848 67.1842 152.848C66.5122 152.848 65.8482 152.744 65.1922 152.536C64.5362 152.328 64.0002 152.04 63.5842 151.672L64.9522 149.008C65.2402 149.264 65.5682 149.464 65.9362 149.608C66.3202 149.752 66.6962 149.824 67.0642 149.824C67.5762 149.824 67.9922 149.696 68.3122 149.44C68.6322 149.2 68.9202 148.792 69.1762 148.216L69.2242 148.096L63.6322 135.088H67.4962L71.1202 143.848L74.7682 135.088H78.3682ZM80.16 131.2H87.792C89.616 131.2 91.224 131.552 92.616 132.256C94.024 132.944 95.112 133.92 95.88 135.184C96.664 136.448 97.056 137.92 97.056 139.6C97.056 141.28 96.664 142.752 95.88 144.016C95.112 145.28 94.024 146.264 92.616 146.968C91.224 147.656 89.616 148 87.792 148H80.16V131.2ZM87.6 144.808C89.28 144.808 90.616 144.344 91.608 143.416C92.616 142.472 93.12 141.2 93.12 139.6C93.12 138 92.616 136.736 91.608 135.808C90.616 134.864 89.28 134.392 87.6 134.392H84.048V144.808H87.6ZM105.868 148.192C104.508 148.192 103.284 147.912 102.196 147.352C101.124 146.776 100.284 145.984 99.6761 144.976C99.0681 143.968 98.7641 142.824 98.7641 141.544C98.7641 140.264 99.0681 139.12 99.6761 138.112C100.284 137.104 101.124 136.32 102.196 135.76C103.284 135.184 104.508 134.896 105.868 134.896C107.228 134.896 108.444 135.184 109.516 135.76C110.588 136.32 111.428 137.104 112.036 138.112C112.644 139.12 112.948 140.264 112.948 141.544C112.948 142.824 112.644 143.968 112.036 144.976C111.428 145.984 110.588 146.776 109.516 147.352C108.444 147.912 107.228 148.192 105.868 148.192ZM105.868 145.12C106.828 145.12 107.612 144.8 108.22 144.16C108.844 143.504 109.156 142.632 109.156 141.544C109.156 140.456 108.844 139.592 108.22 138.952C107.612 138.296 106.828 137.968 105.868 137.968C104.908 137.968 104.116 138.296 103.492 138.952C102.868 139.592 102.556 140.456 102.556 141.544C102.556 142.632 102.868 143.504 103.492 144.16C104.116 144.8 104.908 145.12 105.868 145.12ZM128.771 135.088V145.84C128.771 148.208 128.155 149.968 126.923 151.12C125.691 152.272 123.891 152.848 121.523 152.848C120.275 152.848 119.091 152.696 117.971 152.392C116.851 152.088 115.923 151.648 115.187 151.072L116.675 148.384C117.219 148.832 117.907 149.184 118.739 149.44C119.571 149.712 120.403 149.848 121.235 149.848C122.531 149.848 123.483 149.552 124.091 148.96C124.715 148.384 125.027 147.504 125.027 146.32V145.768C124.051 146.84 122.691 147.376 120.947 147.376C119.763 147.376 118.675 147.12 117.683 146.608C116.707 146.08 115.931 145.344 115.355 144.4C114.779 143.456 114.491 142.368 114.491 141.136C114.491 139.904 114.779 138.816 115.355 137.872C115.931 136.928 116.707 136.2 117.683 135.688C118.675 135.16 119.763 134.896 120.947 134.896C122.819 134.896 124.243 135.512 125.219 136.744V135.088H128.771ZM121.691 144.304C122.683 144.304 123.491 144.016 124.115 143.44C124.755 142.848 125.075 142.08 125.075 141.136C125.075 140.192 124.755 139.432 124.115 138.856C123.491 138.264 122.683 137.968 121.691 137.968C120.699 137.968 119.883 138.264 119.243 138.856C118.603 139.432 118.283 140.192 118.283 141.136C118.283 142.08 118.603 142.848 119.243 143.44C119.883 144.016 120.699 144.304 121.691 144.304ZM136.599 148.192C135.527 148.192 134.479 148.064 133.455 147.808C132.431 147.536 131.615 147.2 131.007 146.8L132.255 144.112C132.831 144.48 133.527 144.784 134.343 145.024C135.159 145.248 135.959 145.36 136.743 145.36C138.327 145.36 139.119 144.968 139.119 144.184C139.119 143.816 138.903 143.552 138.471 143.392C138.039 143.232 137.375 143.096 136.479 142.984C135.423 142.824 134.551 142.64 133.863 142.432C133.175 142.224 132.575 141.856 132.063 141.328C131.567 140.8 131.319 140.048 131.319 139.072C131.319 138.256 131.551 137.536 132.015 136.912C132.495 136.272 133.183 135.776 134.079 135.424C134.991 135.072 136.063 134.896 137.295 134.896C138.207 134.896 139.111 135 140.007 135.208C140.919 135.4 141.671 135.672 142.263 136.024L141.015 138.688C139.879 138.048 138.639 137.728 137.295 137.728C136.495 137.728 135.895 137.84 135.495 138.064C135.095 138.288 134.895 138.576 134.895 138.928C134.895 139.328 135.111 139.608 135.543 139.768C135.975 139.928 136.663 140.08 137.607 140.224C138.663 140.4 139.527 140.592 140.199 140.8C140.871 140.992 141.455 141.352 141.951 141.88C142.447 142.408 142.695 143.144 142.695 144.088C142.695 144.888 142.455 145.6 141.975 146.224C141.495 146.848 140.791 147.336 139.863 147.688C138.951 148.024 137.863 148.192 136.599 148.192ZM168.218 131.2L160.946 148H157.106L149.858 131.2H154.058L159.17 143.2L164.354 131.2H168.218ZM181.468 144.832V148H168.772V145.48L175.252 139.36C175.94 138.704 176.404 138.144 176.644 137.68C176.884 137.2 177.004 136.728 177.004 136.264C177.004 135.592 176.772 135.08 176.308 134.728C175.86 134.36 175.196 134.176 174.316 134.176C173.58 134.176 172.916 134.32 172.324 134.608C171.732 134.88 171.236 135.296 170.836 135.856L168.004 134.032C168.66 133.056 169.564 132.296 170.716 131.752C171.868 131.192 173.188 130.912 174.676 130.912C175.924 130.912 177.012 131.12 177.94 131.536C178.884 131.936 179.612 132.512 180.124 133.264C180.652 134 180.916 134.872 180.916 135.88C180.916 136.792 180.724 137.648 180.34 138.448C179.956 139.248 179.212 140.16 178.108 141.184L174.244 144.832H181.468Z" fill="white"/>
<path fill-rule="evenodd" clip-rule="evenodd" d="M64.5557 70.5H60.1112H55.6668H42.3334H37.889H33.4446V88.5H37.889H42.3334V97.5H55.6668V88.5H60.1112H64.5557V70.5Z" fill="#F25C5C"/>
<rect width="4.44444" height="4.5" transform="matrix(-1 0 0 1 51.2222 70.5)" fill="white"/>
<rect width="4.44444" height="4.5" transform="matrix(-1 0 0 1 55.6665 93)" fill="white"/>
<rect width="4.44444" height="4.5" transform="matrix(-1 0 0 1 60.1113 88.5)" fill="white"/>
<rect width="4.44444" height="4.5" transform="matrix(-1 0 0 1 64.5557 84)" fill="white"/>
<rect width="4.44444" height="4.5" transform="matrix(-1 0 0 1 69 79.5)" fill="white"/>
<rect width="4.44444" height="4.5" transform="matrix(-1 0 0 1 69 75)" fill="white"/>
<rect width="4.44444" height="4.5" transform="matrix(-1 0 0 1 69 70.5)" fill="white"/>
<rect width="4.44444" height="4.5" transform="matrix(-1 0 0 1 64.5557 66)" fill="white"/>
<rect width="4.44444" height="4.5" transform="matrix(-1 0 0 1 60.1113 66)" fill="white"/>
<rect width="4.44444" height="4.5" transform="matrix(-1 0 0 1 55.6665 66)" fill="white"/>
<rect x="46.7778" y="97.5" width="4.44444" height="4.5" fill="white"/>
<rect x="42.3335" y="93" width="4.44444" height="4.5" fill="white"/>
<rect x="37.8887" y="88.5" width="4.44444" height="4.5" fill="white"/>
<rect x="33.4443" y="84" width="4.44445" height="4.5" fill="white"/>
<rect x="29" y="79.5" width="4.44444" height="4.5" fill="white"/>
<rect x="29" y="75" width="4.44444" height="4.5" fill="white"/>
<rect x="29" y="70.5" width="4.44444" height="4.5" fill="white"/>
<rect x="33.4443" y="66" width="4.44445" height="4.5" fill="white"/>
<rect x="37.8887" y="66" width="4.44444" height="4.5" fill="white"/>
<rect x="42.3335" y="66" width="4.44444" height="4.5" fill="white"/>
<rect x="33.4443" y="70.5" width="4.44445" height="10.125" fill="white"/>
<rect x="33.4443" y="70.5" width="8.88889" height="4.5" fill="white"/>
<path fill-rule="evenodd" clip-rule="evenodd" d="M119.556 70.5H115.111H110.667H97.3334H92.889H88.4446V88.5H92.889H97.3334V97.5H110.667V88.5H115.111H119.556V70.5Z" fill="#F25C5C"/>
<rect width="4.44444" height="4.5" transform="matrix(-1 0 0 1 106.222 70.5)" fill="white"/>
<rect width="4.44444" height="4.5" transform="matrix(-1 0 0 1 110.667 93)" fill="white"/>
<rect width="4.44444" height="4.5" transform="matrix(-1 0 0 1 115.111 88.5)" fill="white"/>
<rect width="4.44444" height="4.5" transform="matrix(-1 0 0 1 119.556 84)" fill="white"/>
<rect width="4.44444" height="4.5" transform="matrix(-1 0 0 1 124 79.5)" fill="white"/>
<rect width="4.44444" height="4.5" transform="matrix(-1 0 0 1 124 75)" fill="white"/>
<rect width="4.44444" height="4.5" transform="matrix(-1 0 0 1 124 70.5)" fill="white"/>
<rect width="4.44444" height="4.5" transform="matrix(-1 0 0 1 119.556 66)" fill="white"/>
<rect width="4.44444" height="4.5" transform="matrix(-1 0 0 1 115.111 66)" fill="white"/>
<rect width="4.44444" height="4.5" transform="matrix(-1 0 0 1 110.667 66)" fill="white"/>
<rect x="101.778" y="97.5" width="4.44444" height="4.5" fill="white"/>
<rect x="97.3335" y="93" width="4.44444" height="4.5" fill="white"/>
<rect x="92.8887" y="88.5" width="4.44444" height="4.5" fill="white"/>
<rect x="88.4443" y="84" width="4.44445" height="4.5" fill="white"/>
<rect x="84" y="79.5" width="4.44444" height="4.5" fill="white"/>
<rect x="84" y="75" width="4.44444" height="4.5" fill="white"/>
<rect x="84" y="70.5" width="4.44444" height="4.5" fill="white"/>
<rect x="88.4443" y="66" width="4.44445" height="4.5" fill="white"/>
<rect x="92.8887" y="66" width="4.44444" height="4.5" fill="white"/>
<rect x="97.3335" y="66" width="4.44444" height="4.5" fill="white"/>
<rect x="88.4443" y="70.5" width="4.44445" height="10.125" fill="white"/>
<rect x="88.4443" y="70.5" width="8.88889" height="4.5" fill="white"/>
<rect width="4.44444" height="4.5" transform="matrix(-1 0 0 1 161.222 70.5)" fill="white"/>
<rect width="4.44444" height="4.5" transform="matrix(-1 0 0 1 165.667 93)" fill="white"/>
<rect width="4.44444" height="4.5" transform="matrix(-1 0 0 1 170.111 88.5)" fill="white"/>
<rect width="4.44444" height="4.5" transform="matrix(-1 0 0 1 174.556 84)" fill="white"/>
<rect width="4.44444" height="4.5" transform="matrix(-1 0 0 1 179 79.5)" fill="white"/>
<rect width="4.44444" height="4.5" transform="matrix(-1 0 0 1 179 75)" fill="white"/>
<rect width="4.44444" height="4.5" transform="matrix(-1 0 0 1 179 70.5)" fill="white"/>
<rect width="4.44444" height="4.5" transform="matrix(-1 0 0 1 174.556 66)" fill="white"/>
<rect width="4.44444" height="4.5" transform="matrix(-1 0 0 1 170.111 66)" fill="white"/>
<rect width="4.44444" height="4.5" transform="matrix(-1 0 0 1 165.667 66)" fill="white"/>
<rect x="156.778" y="97.5" width="4.44444" height="4.5" fill="white"/>
<rect x="152.333" y="93" width="4.44444" height="4.5" fill="white"/>
<rect x="147.889" y="88.5" width="4.44444" height="4.5" fill="white"/>
<rect x="143.444" y="84" width="4.44445" height="4.5" fill="white"/>
<rect x="139" y="79.5" width="4.44444" height="4.5" fill="white"/>
<rect x="139" y="75" width="4.44444" height="4.5" fill="white"/>
<rect x="139" y="70.5" width="4.44444" height="4.5" fill="white"/>
<rect x="143.444" y="66" width="4.44445" height="4.5" fill="white"/>
<rect x="147.889" y="66" width="4.44444" height="4.5" fill="white"/>
<rect x="152.333" y="66" width="4.44444" height="4.5" fill="white"/>
<defs>
<linearGradient id="paint0_linear_44_496" x1="29" y1="-25" x2="208" y2="252.5" gradientUnits="userSpaceOnUse">
<stop stop-color="#00A7A7"/>
<stop offset="1" stop-color="#7B129F"/>
</linearGradient>
</defs>
</svg>
