<svg width="603" height="129" viewBox="0 0 603 129" fill="none" xmlns="http://www.w3.org/2000/svg">
<rect width="603" height="129" rx="16" fill="url(#paint0_linear_46_628)"/>
<path d="M367.375 73.288C366.047 73.288 364.759 73.112 363.511 72.76C362.279 72.392 361.287 71.92 360.535 71.344L361.855 68.416C362.575 68.944 363.431 69.368 364.423 69.688C365.415 70.008 366.407 70.168 367.399 70.168C368.503 70.168 369.319 70.008 369.847 69.688C370.375 69.352 370.639 68.912 370.639 68.368C370.639 67.968 370.479 67.64 370.159 67.384C369.855 67.112 369.455 66.896 368.959 66.736C368.479 66.576 367.823 66.4 366.991 66.208C365.711 65.904 364.663 65.6 363.847 65.296C363.031 64.992 362.327 64.504 361.735 63.832C361.159 63.16 360.871 62.264 360.871 61.144C360.871 60.168 361.135 59.288 361.663 58.504C362.191 57.704 362.983 57.072 364.039 56.608C365.111 56.144 366.415 55.912 367.951 55.912C369.023 55.912 370.071 56.04 371.095 56.296C372.119 56.552 373.015 56.92 373.783 57.4L372.583 60.352C371.031 59.472 369.479 59.032 367.927 59.032C366.839 59.032 366.031 59.208 365.503 59.56C364.991 59.912 364.735 60.376 364.735 60.952C364.735 61.528 365.031 61.96 365.623 62.248C366.231 62.52 367.151 62.792 368.383 63.064C369.663 63.368 370.711 63.672 371.527 63.976C372.343 64.28 373.039 64.76 373.615 65.416C374.207 66.072 374.503 66.96 374.503 68.08C374.503 69.04 374.231 69.92 373.687 70.72C373.159 71.504 372.359 72.128 371.287 72.592C370.215 73.056 368.911 73.288 367.375 73.288ZM376.896 60.088H380.64V73H376.896V60.088ZM378.768 58.288C378.08 58.288 377.52 58.088 377.088 57.688C376.656 57.288 376.44 56.792 376.44 56.2C376.44 55.608 376.656 55.112 377.088 54.712C377.52 54.312 378.08 54.112 378.768 54.112C379.456 54.112 380.016 54.304 380.448 54.688C380.88 55.072 381.096 55.552 381.096 56.128C381.096 56.752 380.88 57.272 380.448 57.688C380.016 58.088 379.456 58.288 378.768 58.288ZM384.115 55.192H387.859V73H384.115V55.192ZM391.333 55.192H395.077V73H391.333V55.192ZM411.368 60.088L405.536 73.792C404.944 75.28 404.208 76.328 403.328 76.936C402.464 77.544 401.416 77.848 400.184 77.848C399.512 77.848 398.848 77.744 398.192 77.536C397.536 77.328 397 77.04 396.584 76.672L397.952 74.008C398.24 74.264 398.568 74.464 398.936 74.608C399.32 74.752 399.696 74.824 400.064 74.824C400.576 74.824 400.992 74.696 401.312 74.44C401.632 74.2 401.92 73.792 402.176 73.216L402.224 73.096L396.632 60.088H400.496L404.12 68.848L407.768 60.088H411.368ZM413.16 56.2H420.792C422.616 56.2 424.224 56.552 425.616 57.256C427.024 57.944 428.112 58.92 428.88 60.184C429.664 61.448 430.056 62.92 430.056 64.6C430.056 66.28 429.664 67.752 428.88 69.016C428.112 70.28 427.024 71.264 425.616 71.968C424.224 72.656 422.616 73 420.792 73H413.16V56.2ZM420.6 69.808C422.28 69.808 423.616 69.344 424.608 68.416C425.616 67.472 426.12 66.2 426.12 64.6C426.12 63 425.616 61.736 424.608 60.808C423.616 59.864 422.28 59.392 420.6 59.392H417.048V69.808H420.6ZM438.868 73.192C437.508 73.192 436.284 72.912 435.196 72.352C434.124 71.776 433.284 70.984 432.676 69.976C432.068 68.968 431.764 67.824 431.764 66.544C431.764 65.264 432.068 64.12 432.676 63.112C433.284 62.104 434.124 61.32 435.196 60.76C436.284 60.184 437.508 59.896 438.868 59.896C440.228 59.896 441.444 60.184 442.516 60.76C443.588 61.32 444.428 62.104 445.036 63.112C445.644 64.12 445.948 65.264 445.948 66.544C445.948 67.824 445.644 68.968 445.036 69.976C444.428 70.984 443.588 71.776 442.516 72.352C441.444 72.912 440.228 73.192 438.868 73.192ZM438.868 70.12C439.828 70.12 440.612 69.8 441.22 69.16C441.844 68.504 442.156 67.632 442.156 66.544C442.156 65.456 441.844 64.592 441.22 63.952C440.612 63.296 439.828 62.968 438.868 62.968C437.908 62.968 437.116 63.296 436.492 63.952C435.868 64.592 435.556 65.456 435.556 66.544C435.556 67.632 435.868 68.504 436.492 69.16C437.116 69.8 437.908 70.12 438.868 70.12ZM461.771 60.088V70.84C461.771 73.208 461.155 74.968 459.923 76.12C458.691 77.272 456.891 77.848 454.523 77.848C453.275 77.848 452.091 77.696 450.971 77.392C449.851 77.088 448.923 76.648 448.187 76.072L449.675 73.384C450.219 73.832 450.907 74.184 451.739 74.44C452.571 74.712 453.403 74.848 454.235 74.848C455.531 74.848 456.483 74.552 457.091 73.96C457.715 73.384 458.027 72.504 458.027 71.32V70.768C457.051 71.84 455.691 72.376 453.947 72.376C452.763 72.376 451.675 72.12 450.683 71.608C449.707 71.08 448.931 70.344 448.355 69.4C447.779 68.456 447.491 67.368 447.491 66.136C447.491 64.904 447.779 63.816 448.355 62.872C448.931 61.928 449.707 61.2 450.683 60.688C451.675 60.16 452.763 59.896 453.947 59.896C455.819 59.896 457.243 60.512 458.219 61.744V60.088H461.771ZM454.691 69.304C455.683 69.304 456.491 69.016 457.115 68.44C457.755 67.848 458.075 67.08 458.075 66.136C458.075 65.192 457.755 64.432 457.115 63.856C456.491 63.264 455.683 62.968 454.691 62.968C453.699 62.968 452.883 63.264 452.243 63.856C451.603 64.432 451.283 65.192 451.283 66.136C451.283 67.08 451.603 67.848 452.243 68.44C452.883 69.016 453.699 69.304 454.691 69.304ZM469.599 73.192C468.527 73.192 467.479 73.064 466.455 72.808C465.431 72.536 464.615 72.2 464.007 71.8L465.255 69.112C465.831 69.48 466.527 69.784 467.343 70.024C468.159 70.248 468.959 70.36 469.743 70.36C471.327 70.36 472.119 69.968 472.119 69.184C472.119 68.816 471.903 68.552 471.471 68.392C471.039 68.232 470.375 68.096 469.479 67.984C468.423 67.824 467.551 67.64 466.863 67.432C466.175 67.224 465.575 66.856 465.063 66.328C464.567 65.8 464.319 65.048 464.319 64.072C464.319 63.256 464.551 62.536 465.015 61.912C465.495 61.272 466.183 60.776 467.079 60.424C467.991 60.072 469.063 59.896 470.295 59.896C471.207 59.896 472.111 60 473.007 60.208C473.919 60.4 474.671 60.672 475.263 61.024L474.015 63.688C472.879 63.048 471.639 62.728 470.295 62.728C469.495 62.728 468.895 62.84 468.495 63.064C468.095 63.288 467.895 63.576 467.895 63.928C467.895 64.328 468.111 64.608 468.543 64.768C468.975 64.928 469.663 65.08 470.607 65.224C471.663 65.4 472.527 65.592 473.199 65.8C473.871 65.992 474.455 66.352 474.951 66.88C475.447 67.408 475.695 68.144 475.695 69.088C475.695 69.888 475.455 70.6 474.975 71.224C474.495 71.848 473.791 72.336 472.863 72.688C471.951 73.024 470.863 73.192 469.599 73.192ZM501.218 56.2L493.946 73H490.106L482.858 56.2H487.058L492.17 68.2L497.354 56.2H501.218ZM514.468 69.832V73H501.772V70.48L508.252 64.36C508.94 63.704 509.404 63.144 509.644 62.68C509.884 62.2 510.004 61.728 510.004 61.264C510.004 60.592 509.772 60.08 509.308 59.728C508.86 59.36 508.196 59.176 507.316 59.176C506.58 59.176 505.916 59.32 505.324 59.608C504.732 59.88 504.236 60.296 503.836 60.856L501.004 59.032C501.66 58.056 502.564 57.296 503.716 56.752C504.868 56.192 506.188 55.912 507.676 55.912C508.924 55.912 510.012 56.12 510.94 56.536C511.884 56.936 512.612 57.512 513.124 58.264C513.652 59 513.916 59.872 513.916 60.88C513.916 61.792 513.724 62.648 513.34 63.448C512.956 64.248 512.212 65.16 511.108 66.184L507.244 69.832H514.468Z" fill="white"/>
<path fill-rule="evenodd" clip-rule="evenodd" d="M127.556 51.5H123.111H118.667H105.333H100.889H96.4446V69.5H100.889H105.333V78.5H118.667V69.5H123.111H127.556V51.5Z" fill="#F25C5C"/>
<rect width="4.44444" height="4.5" transform="matrix(-1 0 0 1 114.222 51.5)" fill="white"/>
<rect width="4.44444" height="4.5" transform="matrix(-1 0 0 1 118.667 74)" fill="white"/>
<rect width="4.44444" height="4.5" transform="matrix(-1 0 0 1 123.111 69.5)" fill="white"/>
<rect width="4.44444" height="4.5" transform="matrix(-1 0 0 1 127.556 65)" fill="white"/>
<rect width="4.44444" height="4.5" transform="matrix(-1 0 0 1 132 60.5)" fill="white"/>
<rect width="4.44444" height="4.5" transform="matrix(-1 0 0 1 132 56)" fill="white"/>
<rect width="4.44444" height="4.5" transform="matrix(-1 0 0 1 132 51.5)" fill="white"/>
<rect width="4.44444" height="4.5" transform="matrix(-1 0 0 1 127.556 47)" fill="white"/>
<rect width="4.44444" height="4.5" transform="matrix(-1 0 0 1 123.111 47)" fill="white"/>
<rect width="4.44444" height="4.5" transform="matrix(-1 0 0 1 118.667 47)" fill="white"/>
<rect x="109.778" y="78.5" width="4.44444" height="4.5" fill="white"/>
<rect x="105.333" y="74" width="4.44444" height="4.5" fill="white"/>
<rect x="100.889" y="69.5" width="4.44444" height="4.5" fill="white"/>
<rect x="96.4443" y="65" width="4.44445" height="4.5" fill="white"/>
<rect x="92" y="60.5" width="4.44444" height="4.5" fill="white"/>
<rect x="92" y="56" width="4.44444" height="4.5" fill="white"/>
<rect x="92" y="51.5" width="4.44444" height="4.5" fill="white"/>
<rect x="96.4443" y="47" width="4.44445" height="4.5" fill="white"/>
<rect x="100.889" y="47" width="4.44444" height="4.5" fill="white"/>
<rect x="105.333" y="47" width="4.44444" height="4.5" fill="white"/>
<rect x="96.4443" y="51.5" width="4.44445" height="10.125" fill="white"/>
<rect x="96.4443" y="51.5" width="8.88889" height="4.5" fill="white"/>
<path fill-rule="evenodd" clip-rule="evenodd" d="M182.556 51.5H178.111H173.667H160.333H155.889H151.445V69.5H155.889H160.333V78.5H173.667V69.5H178.111H182.556V51.5Z" fill="#F25C5C"/>
<rect width="4.44444" height="4.5" transform="matrix(-1 0 0 1 169.222 51.5)" fill="white"/>
<rect width="4.44444" height="4.5" transform="matrix(-1 0 0 1 173.667 74)" fill="white"/>
<rect width="4.44444" height="4.5" transform="matrix(-1 0 0 1 178.111 69.5)" fill="white"/>
<rect width="4.44444" height="4.5" transform="matrix(-1 0 0 1 182.556 65)" fill="white"/>
<rect width="4.44444" height="4.5" transform="matrix(-1 0 0 1 187 60.5)" fill="white"/>
<rect width="4.44444" height="4.5" transform="matrix(-1 0 0 1 187 56)" fill="white"/>
<rect width="4.44444" height="4.5" transform="matrix(-1 0 0 1 187 51.5)" fill="white"/>
<rect width="4.44444" height="4.5" transform="matrix(-1 0 0 1 182.556 47)" fill="white"/>
<rect width="4.44444" height="4.5" transform="matrix(-1 0 0 1 178.111 47)" fill="white"/>
<rect width="4.44444" height="4.5" transform="matrix(-1 0 0 1 173.667 47)" fill="white"/>
<rect x="164.778" y="78.5" width="4.44444" height="4.5" fill="white"/>
<rect x="160.333" y="74" width="4.44444" height="4.5" fill="white"/>
<rect x="155.889" y="69.5" width="4.44444" height="4.5" fill="white"/>
<rect x="151.444" y="65" width="4.44445" height="4.5" fill="white"/>
<rect x="147" y="60.5" width="4.44444" height="4.5" fill="white"/>
<rect x="147" y="56" width="4.44444" height="4.5" fill="white"/>
<rect x="147" y="51.5" width="4.44444" height="4.5" fill="white"/>
<rect x="151.444" y="47" width="4.44445" height="4.5" fill="white"/>
<rect x="155.889" y="47" width="4.44444" height="4.5" fill="white"/>
<rect x="160.333" y="47" width="4.44444" height="4.5" fill="white"/>
<rect x="151.444" y="51.5" width="4.44445" height="10.125" fill="white"/>
<rect x="151.444" y="51.5" width="8.88889" height="4.5" fill="white"/>
<rect width="4.44444" height="4.5" transform="matrix(-1 0 0 1 224.222 51.5)" fill="white"/>
<rect width="4.44444" height="4.5" transform="matrix(-1 0 0 1 228.667 74)" fill="white"/>
<rect width="4.44444" height="4.5" transform="matrix(-1 0 0 1 233.111 69.5)" fill="white"/>
<rect width="4.44444" height="4.5" transform="matrix(-1 0 0 1 237.556 65)" fill="white"/>
<rect width="4.44444" height="4.5" transform="matrix(-1 0 0 1 242 60.5)" fill="white"/>
<rect width="4.44444" height="4.5" transform="matrix(-1 0 0 1 242 56)" fill="white"/>
<rect width="4.44444" height="4.5" transform="matrix(-1 0 0 1 242 51.5)" fill="white"/>
<rect width="4.44444" height="4.5" transform="matrix(-1 0 0 1 237.556 47)" fill="white"/>
<rect width="4.44444" height="4.5" transform="matrix(-1 0 0 1 233.111 47)" fill="white"/>
<rect width="4.44444" height="4.5" transform="matrix(-1 0 0 1 228.667 47)" fill="white"/>
<rect x="219.778" y="78.5" width="4.44444" height="4.5" fill="white"/>
<rect x="215.333" y="74" width="4.44444" height="4.5" fill="white"/>
<rect x="210.889" y="69.5" width="4.44444" height="4.5" fill="white"/>
<rect x="206.444" y="65" width="4.44445" height="4.5" fill="white"/>
<rect x="202" y="60.5" width="4.44444" height="4.5" fill="white"/>
<rect x="202" y="56" width="4.44444" height="4.5" fill="white"/>
<rect x="202" y="51.5" width="4.44444" height="4.5" fill="white"/>
<rect x="206.444" y="47" width="4.44445" height="4.5" fill="white"/>
<rect x="210.889" y="47" width="4.44444" height="4.5" fill="white"/>
<rect x="215.333" y="47" width="4.44444" height="4.5" fill="white"/>
<defs>
<linearGradient id="paint0_linear_46_628" x1="84.0721" y1="-14.5928" x2="113.369" y2="210.979" gradientUnits="userSpaceOnUse">
<stop stop-color="#00A7A7"/>
<stop offset="1" stop-color="#7B129F"/>
</linearGradient>
</defs>
</svg>
