<svg width="603" height="129" viewBox="0 0 603 129" fill="none" xmlns="http://www.w3.org/2000/svg">
<rect width="603" height="129" rx="16" fill="url(#paint0_linear_46_1030)"/>
<path fill-rule="evenodd" clip-rule="evenodd" d="M134.995 107L201.226 107L198.508 62.1789L204.254 67.2031L220.728 50.4229L196.152 23.3372L196.131 23H195.846H168.111L140.09 23L140.068 23.3633L139.711 23L114.829 50.4229L131.303 67.2031L137.751 61.5657L134.995 107ZM169.704 64.9856L169.726 65L169.748 64.9856C175.311 61.3138 189.725 51.8016 183.573 43.7067C180.721 39.9534 175.111 39.7664 172.012 43.3213L169.726 45.944L167.439 43.3213C164.34 39.7664 158.731 39.9534 155.879 43.7067C149.727 51.8016 164.14 61.3138 169.704 64.9856Z" fill="white"/>
<path d="M383.407 59.288C382.079 59.288 380.791 59.112 379.543 58.76C378.311 58.392 377.319 57.92 376.567 57.344L377.887 54.416C378.607 54.944 379.463 55.368 380.455 55.688C381.447 56.008 382.439 56.168 383.431 56.168C384.535 56.168 385.351 56.008 385.879 55.688C386.407 55.352 386.671 54.912 386.671 54.368C386.671 53.968 386.511 53.64 386.191 53.384C385.887 53.112 385.487 52.896 384.991 52.736C384.511 52.576 383.855 52.4 383.023 52.208C381.743 51.904 380.695 51.6 379.879 51.296C379.063 50.992 378.359 50.504 377.767 49.832C377.191 49.16 376.903 48.264 376.903 47.144C376.903 46.168 377.167 45.288 377.695 44.504C378.223 43.704 379.015 43.072 380.071 42.608C381.143 42.144 382.447 41.912 383.983 41.912C385.055 41.912 386.103 42.04 387.127 42.296C388.151 42.552 389.047 42.92 389.815 43.4L388.615 46.352C387.063 45.472 385.511 45.032 383.959 45.032C382.871 45.032 382.063 45.208 381.535 45.56C381.023 45.912 380.767 46.376 380.767 46.952C380.767 47.528 381.063 47.96 381.655 48.248C382.263 48.52 383.183 48.792 384.415 49.064C385.695 49.368 386.743 49.672 387.559 49.976C388.375 50.28 389.071 50.76 389.647 51.416C390.239 52.072 390.535 52.96 390.535 54.08C390.535 55.04 390.263 55.92 389.719 56.72C389.191 57.504 388.391 58.128 387.319 58.592C386.247 59.056 384.943 59.288 383.407 59.288ZM392.927 46.088H396.671V59H392.927V46.088ZM394.799 44.288C394.111 44.288 393.551 44.088 393.119 43.688C392.687 43.288 392.471 42.792 392.471 42.2C392.471 41.608 392.687 41.112 393.119 40.712C393.551 40.312 394.111 40.112 394.799 40.112C395.487 40.112 396.047 40.304 396.479 40.688C396.911 41.072 397.127 41.552 397.127 42.128C397.127 42.752 396.911 43.272 396.479 43.688C396.047 44.088 395.487 44.288 394.799 44.288ZM400.146 41.192H403.89V59H400.146V41.192ZM407.365 41.192H411.109V59H407.365V41.192ZM427.399 46.088L421.567 59.792C420.975 61.28 420.239 62.328 419.359 62.936C418.495 63.544 417.447 63.848 416.215 63.848C415.543 63.848 414.879 63.744 414.223 63.536C413.567 63.328 413.031 63.04 412.615 62.672L413.983 60.008C414.271 60.264 414.599 60.464 414.967 60.608C415.351 60.752 415.727 60.824 416.095 60.824C416.607 60.824 417.023 60.696 417.343 60.44C417.663 60.2 417.951 59.792 418.207 59.216L418.255 59.096L412.663 46.088H416.527L420.151 54.848L423.799 46.088H427.399ZM435.988 42.2H443.62C445.444 42.2 447.052 42.552 448.444 43.256C449.852 43.944 450.94 44.92 451.708 46.184C452.492 47.448 452.884 48.92 452.884 50.6C452.884 52.28 452.492 53.752 451.708 55.016C450.94 56.28 449.852 57.264 448.444 57.968C447.052 58.656 445.444 59 443.62 59H435.988V42.2ZM443.428 55.808C445.108 55.808 446.444 55.344 447.436 54.416C448.444 53.472 448.948 52.2 448.948 50.6C448.948 49 448.444 47.736 447.436 46.808C446.444 45.864 445.108 45.392 443.428 45.392H439.876V55.808H443.428ZM461.696 59.192C460.336 59.192 459.112 58.912 458.024 58.352C456.952 57.776 456.112 56.984 455.504 55.976C454.896 54.968 454.592 53.824 454.592 52.544C454.592 51.264 454.896 50.12 455.504 49.112C456.112 48.104 456.952 47.32 458.024 46.76C459.112 46.184 460.336 45.896 461.696 45.896C463.056 45.896 464.272 46.184 465.344 46.76C466.416 47.32 467.256 48.104 467.864 49.112C468.472 50.12 468.776 51.264 468.776 52.544C468.776 53.824 468.472 54.968 467.864 55.976C467.256 56.984 466.416 57.776 465.344 58.352C464.272 58.912 463.056 59.192 461.696 59.192ZM461.696 56.12C462.656 56.12 463.44 55.8 464.048 55.16C464.672 54.504 464.984 53.632 464.984 52.544C464.984 51.456 464.672 50.592 464.048 49.952C463.44 49.296 462.656 48.968 461.696 48.968C460.736 48.968 459.944 49.296 459.32 49.952C458.696 50.592 458.384 51.456 458.384 52.544C458.384 53.632 458.696 54.504 459.32 55.16C459.944 55.8 460.736 56.12 461.696 56.12ZM484.599 46.088V56.84C484.599 59.208 483.983 60.968 482.751 62.12C481.519 63.272 479.719 63.848 477.351 63.848C476.103 63.848 474.919 63.696 473.799 63.392C472.679 63.088 471.751 62.648 471.015 62.072L472.503 59.384C473.047 59.832 473.735 60.184 474.567 60.44C475.399 60.712 476.231 60.848 477.063 60.848C478.359 60.848 479.311 60.552 479.919 59.96C480.543 59.384 480.855 58.504 480.855 57.32V56.768C479.879 57.84 478.519 58.376 476.775 58.376C475.591 58.376 474.503 58.12 473.511 57.608C472.535 57.08 471.759 56.344 471.183 55.4C470.607 54.456 470.319 53.368 470.319 52.136C470.319 50.904 470.607 49.816 471.183 48.872C471.759 47.928 472.535 47.2 473.511 46.688C474.503 46.16 475.591 45.896 476.775 45.896C478.647 45.896 480.071 46.512 481.047 47.744V46.088H484.599ZM477.519 55.304C478.511 55.304 479.319 55.016 479.943 54.44C480.583 53.848 480.903 53.08 480.903 52.136C480.903 51.192 480.583 50.432 479.943 49.856C479.319 49.264 478.511 48.968 477.519 48.968C476.527 48.968 475.711 49.264 475.071 49.856C474.431 50.432 474.111 51.192 474.111 52.136C474.111 53.08 474.431 53.848 475.071 54.44C475.711 55.016 476.527 55.304 477.519 55.304ZM492.427 59.192C491.355 59.192 490.307 59.064 489.283 58.808C488.259 58.536 487.443 58.2 486.835 57.8L488.083 55.112C488.659 55.48 489.355 55.784 490.171 56.024C490.987 56.248 491.787 56.36 492.571 56.36C494.155 56.36 494.947 55.968 494.947 55.184C494.947 54.816 494.731 54.552 494.299 54.392C493.867 54.232 493.203 54.096 492.307 53.984C491.251 53.824 490.379 53.64 489.691 53.432C489.003 53.224 488.403 52.856 487.891 52.328C487.395 51.8 487.147 51.048 487.147 50.072C487.147 49.256 487.379 48.536 487.843 47.912C488.323 47.272 489.011 46.776 489.907 46.424C490.819 46.072 491.891 45.896 493.123 45.896C494.035 45.896 494.939 46 495.835 46.208C496.747 46.4 497.499 46.672 498.091 47.024L496.843 49.688C495.707 49.048 494.467 48.728 493.123 48.728C492.323 48.728 491.723 48.84 491.323 49.064C490.923 49.288 490.723 49.576 490.723 49.928C490.723 50.328 490.939 50.608 491.371 50.768C491.803 50.928 492.491 51.08 493.435 51.224C494.491 51.4 495.355 51.592 496.027 51.8C496.699 51.992 497.283 52.352 497.779 52.88C498.275 53.408 498.523 54.144 498.523 55.088C498.523 55.888 498.283 56.6 497.803 57.224C497.323 57.848 496.619 58.336 495.691 58.688C494.779 59.024 493.691 59.192 492.427 59.192ZM415.135 74.896C416.751 74.896 418.031 75.376 418.975 76.336C419.935 77.28 420.415 78.704 420.415 80.608V88H416.671V81.184C416.671 80.16 416.455 79.4 416.023 78.904C415.607 78.392 415.007 78.136 414.223 78.136C413.343 78.136 412.647 78.424 412.135 79C411.623 79.56 411.367 80.4 411.367 81.52V88H407.623V81.184C407.623 79.152 406.807 78.136 405.175 78.136C404.311 78.136 403.623 78.424 403.111 79C402.599 79.56 402.343 80.4 402.343 81.52V88H398.599V75.088H402.175V76.576C402.655 76.032 403.239 75.616 403.927 75.328C404.631 75.04 405.399 74.896 406.231 74.896C407.143 74.896 407.967 75.08 408.703 75.448C409.439 75.8 410.031 76.32 410.479 77.008C411.007 76.336 411.671 75.816 412.471 75.448C413.287 75.08 414.175 74.896 415.135 74.896ZM436.56 81.592C436.56 81.64 436.536 81.976 436.488 82.6H426.72C426.896 83.4 427.312 84.032 427.968 84.496C428.624 84.96 429.44 85.192 430.416 85.192C431.088 85.192 431.68 85.096 432.192 84.904C432.72 84.696 433.208 84.376 433.656 83.944L435.648 86.104C434.432 87.496 432.656 88.192 430.32 88.192C428.864 88.192 427.576 87.912 426.456 87.352C425.336 86.776 424.472 85.984 423.864 84.976C423.256 83.968 422.952 82.824 422.952 81.544C422.952 80.28 423.248 79.144 423.84 78.136C424.448 77.112 425.272 76.32 426.312 75.76C427.368 75.184 428.544 74.896 429.84 74.896C431.104 74.896 432.248 75.168 433.272 75.712C434.296 76.256 435.096 77.04 435.672 78.064C436.264 79.072 436.56 80.248 436.56 81.592ZM429.864 77.728C429.016 77.728 428.304 77.968 427.728 78.448C427.152 78.928 426.8 79.584 426.672 80.416H433.032C432.904 79.6 432.552 78.952 431.976 78.472C431.4 77.976 430.696 77.728 429.864 77.728ZM442.628 76.792C443.076 76.168 443.676 75.696 444.428 75.376C445.196 75.056 446.076 74.896 447.068 74.896V78.352C446.652 78.32 446.372 78.304 446.228 78.304C445.156 78.304 444.316 78.608 443.708 79.216C443.1 79.808 442.796 80.704 442.796 81.904V88H439.052V75.088H442.628V76.792ZM455.417 88.192C454.041 88.192 452.801 87.912 451.697 87.352C450.609 86.776 449.753 85.984 449.129 84.976C448.521 83.968 448.217 82.824 448.217 81.544C448.217 80.264 448.521 79.12 449.129 78.112C449.753 77.104 450.609 76.32 451.697 75.76C452.801 75.184 454.041 74.896 455.417 74.896C456.777 74.896 457.961 75.184 458.969 75.76C459.993 76.32 460.737 77.128 461.201 78.184L458.297 79.744C457.625 78.56 456.657 77.968 455.393 77.968C454.417 77.968 453.609 78.288 452.969 78.928C452.329 79.568 452.009 80.44 452.009 81.544C452.009 82.648 452.329 83.52 452.969 84.16C453.609 84.8 454.417 85.12 455.393 85.12C456.673 85.12 457.641 84.528 458.297 83.344L461.201 84.928C460.737 85.952 459.993 86.752 458.969 87.328C457.961 87.904 456.777 88.192 455.417 88.192ZM471.111 74.896C472.711 74.896 473.999 75.376 474.975 76.336C475.967 77.296 476.463 78.72 476.463 80.608V88H472.719V81.184C472.719 80.16 472.495 79.4 472.047 78.904C471.599 78.392 470.951 78.136 470.103 78.136C469.159 78.136 468.407 78.432 467.847 79.024C467.287 79.6 467.007 80.464 467.007 81.616V88H463.263V70.192H467.007V76.432C467.503 75.936 468.103 75.56 468.807 75.304C469.511 75.032 470.279 74.896 471.111 74.896Z" fill="white"/>
<defs>
<linearGradient id="paint0_linear_46_1030" x1="84.0721" y1="-14.5928" x2="113.369" y2="210.979" gradientUnits="userSpaceOnUse">
<stop stop-color="#00A7A7"/>
<stop offset="1" stop-color="#7B129F"/>
</linearGradient>
</defs>
</svg>
