<svg width="603" height="129" viewBox="0 0 603 129" fill="none" xmlns="http://www.w3.org/2000/svg">
<rect width="603" height="129" rx="16" fill="url(#paint0_linear_46_1028)"/>
<path d="M358.375 42.2H366.007C367.831 42.2 369.439 42.552 370.831 43.256C372.239 43.944 373.327 44.92 374.095 46.184C374.879 47.448 375.271 48.92 375.271 50.6C375.271 52.28 374.879 53.752 374.095 55.016C373.327 56.28 372.239 57.264 370.831 57.968C369.439 58.656 367.831 59 366.007 59H358.375V42.2ZM365.815 55.808C367.495 55.808 368.831 55.344 369.823 54.416C370.831 53.472 371.335 52.2 371.335 50.6C371.335 49 370.831 47.736 369.823 46.808C368.831 45.864 367.495 45.392 365.815 45.392H362.263V55.808H365.815ZM384.083 59.192C382.723 59.192 381.499 58.912 380.411 58.352C379.339 57.776 378.499 56.984 377.891 55.976C377.283 54.968 376.979 53.824 376.979 52.544C376.979 51.264 377.283 50.12 377.891 49.112C378.499 48.104 379.339 47.32 380.411 46.76C381.499 46.184 382.723 45.896 384.083 45.896C385.443 45.896 386.659 46.184 387.731 46.76C388.803 47.32 389.643 48.104 390.251 49.112C390.859 50.12 391.163 51.264 391.163 52.544C391.163 53.824 390.859 54.968 390.251 55.976C389.643 56.984 388.803 57.776 387.731 58.352C386.659 58.912 385.443 59.192 384.083 59.192ZM384.083 56.12C385.043 56.12 385.827 55.8 386.435 55.16C387.059 54.504 387.371 53.632 387.371 52.544C387.371 51.456 387.059 50.592 386.435 49.952C385.827 49.296 385.043 48.968 384.083 48.968C383.123 48.968 382.331 49.296 381.707 49.952C381.083 50.592 380.771 51.456 380.771 52.544C380.771 53.632 381.083 54.504 381.707 55.16C382.331 55.8 383.123 56.12 384.083 56.12ZM401.514 45.896C403.114 45.896 404.402 46.376 405.378 47.336C406.37 48.296 406.866 49.72 406.866 51.608V59H403.122V52.184C403.122 51.16 402.898 50.4 402.45 49.904C402.002 49.392 401.354 49.136 400.506 49.136C399.562 49.136 398.81 49.432 398.25 50.024C397.69 50.6 397.41 51.464 397.41 52.616V59H393.666V46.088H397.242V47.6C397.738 47.056 398.354 46.64 399.09 46.352C399.826 46.048 400.634 45.896 401.514 45.896ZM415.467 45.896C417.467 45.896 419.003 46.376 420.075 47.336C421.147 48.28 421.683 49.712 421.683 51.632V59H418.179V57.392C417.475 58.592 416.163 59.192 414.243 59.192C413.251 59.192 412.387 59.024 411.651 58.688C410.931 58.352 410.379 57.888 409.995 57.296C409.611 56.704 409.419 56.032 409.419 55.28C409.419 54.08 409.867 53.136 410.763 52.448C411.675 51.76 413.075 51.416 414.963 51.416H417.939C417.939 50.6 417.691 49.976 417.195 49.544C416.699 49.096 415.955 48.872 414.963 48.872C414.275 48.872 413.595 48.984 412.923 49.208C412.267 49.416 411.707 49.704 411.243 50.072L409.899 47.456C410.603 46.96 411.443 46.576 412.419 46.304C413.411 46.032 414.427 45.896 415.467 45.896ZM415.179 56.672C415.819 56.672 416.387 56.528 416.883 56.24C417.379 55.936 417.731 55.496 417.939 54.92V53.6H415.371C413.835 53.6 413.067 54.104 413.067 55.112C413.067 55.592 413.251 55.976 413.619 56.264C414.003 56.536 414.523 56.672 415.179 56.672ZM433.4 58.376C433.032 58.648 432.576 58.856 432.032 59C431.504 59.128 430.944 59.192 430.352 59.192C428.816 59.192 427.624 58.8 426.776 58.016C425.944 57.232 425.528 56.08 425.528 54.56V49.256H423.536V46.376H425.528V43.232H429.272V46.376H432.488V49.256H429.272V54.512C429.272 55.056 429.408 55.48 429.68 55.784C429.968 56.072 430.368 56.216 430.88 56.216C431.472 56.216 431.976 56.056 432.392 55.736L433.4 58.376ZM435.501 46.088H439.245V59H435.501V46.088ZM437.373 44.288C436.685 44.288 436.125 44.088 435.693 43.688C435.261 43.288 435.045 42.792 435.045 42.2C435.045 41.608 435.261 41.112 435.693 40.712C436.125 40.312 436.685 40.112 437.373 40.112C438.061 40.112 438.621 40.304 439.053 40.688C439.485 41.072 439.701 41.552 439.701 42.128C439.701 42.752 439.485 43.272 439.053 43.688C438.621 44.088 438.061 44.288 437.373 44.288ZM448.864 59.192C447.504 59.192 446.28 58.912 445.192 58.352C444.12 57.776 443.28 56.984 442.672 55.976C442.064 54.968 441.76 53.824 441.76 52.544C441.76 51.264 442.064 50.12 442.672 49.112C443.28 48.104 444.12 47.32 445.192 46.76C446.28 46.184 447.504 45.896 448.864 45.896C450.224 45.896 451.44 46.184 452.512 46.76C453.584 47.32 454.424 48.104 455.032 49.112C455.64 50.12 455.944 51.264 455.944 52.544C455.944 53.824 455.64 54.968 455.032 55.976C454.424 56.984 453.584 57.776 452.512 58.352C451.44 58.912 450.224 59.192 448.864 59.192ZM448.864 56.12C449.824 56.12 450.608 55.8 451.216 55.16C451.84 54.504 452.152 53.632 452.152 52.544C452.152 51.456 451.84 50.592 451.216 49.952C450.608 49.296 449.824 48.968 448.864 48.968C447.904 48.968 447.112 49.296 446.488 49.952C445.864 50.592 445.552 51.456 445.552 52.544C445.552 53.632 445.864 54.504 446.488 55.16C447.112 55.8 447.904 56.12 448.864 56.12ZM466.295 45.896C467.895 45.896 469.183 46.376 470.159 47.336C471.151 48.296 471.647 49.72 471.647 51.608V59H467.903V52.184C467.903 51.16 467.679 50.4 467.231 49.904C466.783 49.392 466.135 49.136 465.287 49.136C464.343 49.136 463.591 49.432 463.031 50.024C462.471 50.6 462.191 51.464 462.191 52.616V59H458.447V46.088H462.023V47.6C462.519 47.056 463.135 46.64 463.871 46.352C464.607 46.048 465.415 45.896 466.295 45.896ZM479.385 59.192C478.313 59.192 477.265 59.064 476.241 58.808C475.217 58.536 474.401 58.2 473.793 57.8L475.041 55.112C475.617 55.48 476.313 55.784 477.129 56.024C477.945 56.248 478.745 56.36 479.529 56.36C481.113 56.36 481.905 55.968 481.905 55.184C481.905 54.816 481.689 54.552 481.257 54.392C480.825 54.232 480.161 54.096 479.265 53.984C478.209 53.824 477.337 53.64 476.649 53.432C475.961 53.224 475.361 52.856 474.849 52.328C474.353 51.8 474.104 51.048 474.104 50.072C474.104 49.256 474.337 48.536 474.801 47.912C475.281 47.272 475.969 46.776 476.865 46.424C477.777 46.072 478.849 45.896 480.081 45.896C480.993 45.896 481.897 46 482.793 46.208C483.705 46.4 484.457 46.672 485.049 47.024L483.801 49.688C482.665 49.048 481.425 48.728 480.081 48.728C479.281 48.728 478.681 48.84 478.281 49.064C477.881 49.288 477.681 49.576 477.681 49.928C477.681 50.328 477.897 50.608 478.329 50.768C478.761 50.928 479.449 51.08 480.393 51.224C481.449 51.4 482.313 51.592 482.985 51.8C483.657 51.992 484.241 52.352 484.737 52.88C485.233 53.408 485.481 54.144 485.481 55.088C485.481 55.888 485.241 56.6 484.761 57.224C484.281 57.848 483.577 58.336 482.649 58.688C481.737 59.024 480.649 59.192 479.385 59.192ZM502.915 58.376C502.547 58.648 502.091 58.856 501.547 59C501.019 59.128 500.459 59.192 499.867 59.192C498.331 59.192 497.139 58.8 496.291 58.016C495.459 57.232 495.043 56.08 495.043 54.56V49.256H493.051V46.376H495.043V43.232H498.787V46.376H502.003V49.256H498.787V54.512C498.787 55.056 498.923 55.48 499.195 55.784C499.483 56.072 499.883 56.216 500.395 56.216C500.987 56.216 501.491 56.056 501.907 55.736L502.915 58.376ZM510.763 59.192C509.403 59.192 508.179 58.912 507.091 58.352C506.019 57.776 505.179 56.984 504.571 55.976C503.963 54.968 503.659 53.824 503.659 52.544C503.659 51.264 503.963 50.12 504.571 49.112C505.179 48.104 506.019 47.32 507.091 46.76C508.179 46.184 509.403 45.896 510.763 45.896C512.123 45.896 513.339 46.184 514.411 46.76C515.483 47.32 516.323 48.104 516.931 49.112C517.539 50.12 517.843 51.264 517.843 52.544C517.843 53.824 517.539 54.968 516.931 55.976C516.323 56.984 515.483 57.776 514.411 58.352C513.339 58.912 512.123 59.192 510.763 59.192ZM510.763 56.12C511.723 56.12 512.507 55.8 513.115 55.16C513.739 54.504 514.051 53.632 514.051 52.544C514.051 51.456 513.739 50.592 513.115 49.952C512.507 49.296 511.723 48.968 510.763 48.968C509.803 48.968 509.011 49.296 508.387 49.952C507.763 50.592 507.451 51.456 507.451 52.544C507.451 53.632 507.763 54.504 508.387 55.16C509.011 55.8 509.803 56.12 510.763 56.12ZM354.377 74.896C356.377 74.896 357.913 75.376 358.985 76.336C360.057 77.28 360.593 78.712 360.593 80.632V88H357.089V86.392C356.385 87.592 355.073 88.192 353.153 88.192C352.161 88.192 351.297 88.024 350.561 87.688C349.841 87.352 349.289 86.888 348.905 86.296C348.521 85.704 348.329 85.032 348.329 84.28C348.329 83.08 348.777 82.136 349.673 81.448C350.585 80.76 351.985 80.416 353.873 80.416H356.849C356.849 79.6 356.601 78.976 356.105 78.544C355.609 78.096 354.865 77.872 353.873 77.872C353.185 77.872 352.505 77.984 351.833 78.208C351.177 78.416 350.617 78.704 350.153 79.072L348.809 76.456C349.513 75.96 350.353 75.576 351.329 75.304C352.321 75.032 353.337 74.896 354.377 74.896ZM354.089 85.672C354.729 85.672 355.297 85.528 355.793 85.24C356.289 84.936 356.641 84.496 356.849 83.92V82.6H354.281C352.745 82.6 351.977 83.104 351.977 84.112C351.977 84.592 352.161 84.976 352.529 85.264C352.913 85.536 353.433 85.672 354.089 85.672ZM371.83 74.896C373.43 74.896 374.718 75.376 375.694 76.336C376.686 77.296 377.182 78.72 377.182 80.608V88H373.438V81.184C373.438 80.16 373.214 79.4 372.766 78.904C372.318 78.392 371.67 78.136 370.822 78.136C369.878 78.136 369.126 78.432 368.566 79.024C368.006 79.6 367.726 80.464 367.726 81.616V88H363.982V75.088H367.558V76.6C368.054 76.056 368.67 75.64 369.406 75.352C370.142 75.048 370.95 74.896 371.83 74.896ZM380.576 75.088H384.32V88H380.576V75.088ZM382.448 73.288C381.76 73.288 381.2 73.088 380.768 72.688C380.336 72.288 380.12 71.792 380.12 71.2C380.12 70.608 380.336 70.112 380.768 69.712C381.2 69.312 381.76 69.112 382.448 69.112C383.136 69.112 383.696 69.304 384.128 69.688C384.56 70.072 384.776 70.552 384.776 71.128C384.776 71.752 384.56 72.272 384.128 72.688C383.696 73.088 383.136 73.288 382.448 73.288ZM404.33 74.896C405.946 74.896 407.226 75.376 408.17 76.336C409.13 77.28 409.61 78.704 409.61 80.608V88H405.866V81.184C405.866 80.16 405.65 79.4 405.218 78.904C404.802 78.392 404.202 78.136 403.418 78.136C402.538 78.136 401.842 78.424 401.33 79C400.818 79.56 400.562 80.4 400.562 81.52V88H396.818V81.184C396.818 79.152 396.002 78.136 394.37 78.136C393.506 78.136 392.818 78.424 392.306 79C391.794 79.56 391.538 80.4 391.538 81.52V88H387.794V75.088H391.37V76.576C391.85 76.032 392.434 75.616 393.122 75.328C393.826 75.04 394.594 74.896 395.426 74.896C396.338 74.896 397.162 75.08 397.898 75.448C398.634 75.8 399.226 76.32 399.674 77.008C400.202 76.336 400.866 75.816 401.666 75.448C402.482 75.08 403.37 74.896 404.33 74.896ZM418.174 74.896C420.174 74.896 421.71 75.376 422.782 76.336C423.854 77.28 424.39 78.712 424.39 80.632V88H420.886V86.392C420.182 87.592 418.87 88.192 416.95 88.192C415.958 88.192 415.094 88.024 414.358 87.688C413.638 87.352 413.086 86.888 412.702 86.296C412.318 85.704 412.126 85.032 412.126 84.28C412.126 83.08 412.574 82.136 413.47 81.448C414.382 80.76 415.782 80.416 417.67 80.416H420.646C420.646 79.6 420.398 78.976 419.902 78.544C419.406 78.096 418.662 77.872 417.67 77.872C416.982 77.872 416.302 77.984 415.63 78.208C414.974 78.416 414.414 78.704 413.95 79.072L412.606 76.456C413.31 75.96 414.15 75.576 415.126 75.304C416.118 75.032 417.134 74.896 418.174 74.896ZM417.886 85.672C418.526 85.672 419.094 85.528 419.59 85.24C420.086 84.936 420.438 84.496 420.646 83.92V82.6H418.078C416.542 82.6 415.774 83.104 415.774 84.112C415.774 84.592 415.958 84.976 416.326 85.264C416.71 85.536 417.23 85.672 417.886 85.672ZM427.779 70.192H431.523V88H427.779V70.192ZM448.034 88.192C446.658 88.192 445.418 87.912 444.314 87.352C443.226 86.776 442.37 85.984 441.746 84.976C441.138 83.968 440.834 82.824 440.834 81.544C440.834 80.264 441.138 79.12 441.746 78.112C442.37 77.104 443.226 76.32 444.314 75.76C445.418 75.184 446.658 74.896 448.034 74.896C449.394 74.896 450.578 75.184 451.586 75.76C452.61 76.32 453.354 77.128 453.818 78.184L450.914 79.744C450.242 78.56 449.274 77.968 448.01 77.968C447.034 77.968 446.226 78.288 445.586 78.928C444.946 79.568 444.626 80.44 444.626 81.544C444.626 82.648 444.946 83.52 445.586 84.16C446.226 84.8 447.034 85.12 448.01 85.12C449.29 85.12 450.258 84.528 450.914 83.344L453.818 84.928C453.354 85.952 452.61 86.752 451.586 87.328C450.578 87.904 449.394 88.192 448.034 88.192ZM463.728 74.896C465.328 74.896 466.616 75.376 467.592 76.336C468.584 77.296 469.08 78.72 469.08 80.608V88H465.336V81.184C465.336 80.16 465.112 79.4 464.664 78.904C464.216 78.392 463.568 78.136 462.72 78.136C461.776 78.136 461.024 78.432 460.464 79.024C459.904 79.6 459.624 80.464 459.624 81.616V88H455.88V70.192H459.624V76.432C460.12 75.936 460.72 75.56 461.424 75.304C462.128 75.032 462.896 74.896 463.728 74.896ZM477.682 74.896C479.682 74.896 481.218 75.376 482.29 76.336C483.362 77.28 483.898 78.712 483.898 80.632V88H480.394V86.392C479.69 87.592 478.378 88.192 476.458 88.192C475.466 88.192 474.602 88.024 473.866 87.688C473.146 87.352 472.594 86.888 472.21 86.296C471.826 85.704 471.634 85.032 471.634 84.28C471.634 83.08 472.082 82.136 472.978 81.448C473.89 80.76 475.29 80.416 477.178 80.416H480.154C480.154 79.6 479.906 78.976 479.41 78.544C478.914 78.096 478.17 77.872 477.178 77.872C476.49 77.872 475.81 77.984 475.138 78.208C474.482 78.416 473.922 78.704 473.458 79.072L472.114 76.456C472.818 75.96 473.658 75.576 474.634 75.304C475.626 75.032 476.642 74.896 477.682 74.896ZM477.394 85.672C478.034 85.672 478.602 85.528 479.098 85.24C479.594 84.936 479.946 84.496 480.154 83.92V82.6H477.586C476.05 82.6 475.282 83.104 475.282 84.112C475.282 84.592 475.466 84.976 475.834 85.264C476.218 85.536 476.738 85.672 477.394 85.672ZM490.863 76.792C491.311 76.168 491.911 75.696 492.663 75.376C493.431 75.056 494.311 74.896 495.303 74.896V78.352C494.887 78.32 494.607 78.304 494.463 78.304C493.391 78.304 492.551 78.608 491.943 79.216C491.335 79.808 491.031 80.704 491.031 81.904V88H487.287V75.088H490.863V76.792ZM497.529 75.088H501.273V88H497.529V75.088ZM499.401 73.288C498.713 73.288 498.153 73.088 497.721 72.688C497.289 72.288 497.073 71.792 497.073 71.2C497.073 70.608 497.289 70.112 497.721 69.712C498.153 69.312 498.713 69.112 499.401 69.112C500.089 69.112 500.649 69.304 501.081 69.688C501.513 70.072 501.729 70.552 501.729 71.128C501.729 71.752 501.513 72.272 501.081 72.688C500.649 73.088 500.089 73.288 499.401 73.288ZM513.076 87.376C512.708 87.648 512.252 87.856 511.708 88C511.18 88.128 510.62 88.192 510.028 88.192C508.492 88.192 507.3 87.8 506.452 87.016C505.62 86.232 505.204 85.08 505.204 83.56V78.256H503.212V75.376H505.204V72.232H508.948V75.376H512.164V78.256H508.948V83.512C508.948 84.056 509.084 84.48 509.356 84.784C509.644 85.072 510.044 85.216 510.556 85.216C511.148 85.216 511.652 85.056 512.068 84.736L513.076 87.376ZM527.759 75.088L521.927 88.792C521.335 90.28 520.599 91.328 519.719 91.936C518.855 92.544 517.807 92.848 516.575 92.848C515.903 92.848 515.239 92.744 514.583 92.536C513.927 92.328 513.391 92.04 512.975 91.672L514.343 89.008C514.631 89.264 514.959 89.464 515.327 89.608C515.711 89.752 516.087 89.824 516.455 89.824C516.967 89.824 517.383 89.696 517.703 89.44C518.023 89.2 518.311 88.792 518.567 88.216L518.615 88.096L513.023 75.088H516.887L520.511 83.848L524.159 75.088H527.759Z" fill="white"/>
<path d="M160 98C144.817 87.8765 105.244 61.5348 122.102 39.1222C129.909 28.7442 145.26 28.2272 153.742 38.0567L160 45.3086L166.258 38.0567C174.74 28.2272 190.091 28.7442 197.898 39.1222C214.756 61.5349 175.183 87.8765 160 98Z" fill="white"/>
<defs>
<linearGradient id="paint0_linear_46_1028" x1="84.0721" y1="-14.5928" x2="113.369" y2="210.979" gradientUnits="userSpaceOnUse">
<stop stop-color="#00A7A7"/>
<stop offset="1" stop-color="#7B129F"/>
</linearGradient>
</defs>
</svg>
