<svg width="603" height="129" viewBox="0 0 603 129" fill="none" xmlns="http://www.w3.org/2000/svg">
<rect width="603" height="129" rx="16" fill="url(#paint0_linear_46_363)"/>
<path d="M369.391 73.288C368.063 73.288 366.775 73.112 365.527 72.76C364.295 72.392 363.303 71.92 362.551 71.344L363.871 68.416C364.591 68.944 365.447 69.368 366.439 69.688C367.431 70.008 368.423 70.168 369.415 70.168C370.519 70.168 371.335 70.008 371.863 69.688C372.391 69.352 372.655 68.912 372.655 68.368C372.655 67.968 372.495 67.64 372.175 67.384C371.871 67.112 371.471 66.896 370.975 66.736C370.495 66.576 369.839 66.4 369.007 66.208C367.727 65.904 366.679 65.6 365.863 65.296C365.047 64.992 364.343 64.504 363.751 63.832C363.175 63.16 362.887 62.264 362.887 61.144C362.887 60.168 363.151 59.288 363.679 58.504C364.207 57.704 364.999 57.072 366.055 56.608C367.127 56.144 368.431 55.912 369.967 55.912C371.039 55.912 372.087 56.04 373.111 56.296C374.135 56.552 375.031 56.92 375.799 57.4L374.599 60.352C373.047 59.472 371.495 59.032 369.943 59.032C368.855 59.032 368.047 59.208 367.519 59.56C367.007 59.912 366.751 60.376 366.751 60.952C366.751 61.528 367.047 61.96 367.639 62.248C368.247 62.52 369.167 62.792 370.399 63.064C371.679 63.368 372.727 63.672 373.543 63.976C374.359 64.28 375.055 64.76 375.631 65.416C376.223 66.072 376.519 66.96 376.519 68.08C376.519 69.04 376.247 69.92 375.703 70.72C375.175 71.504 374.375 72.128 373.303 72.592C372.231 73.056 370.927 73.288 369.391 73.288ZM378.912 60.088H382.656V73H378.912V60.088ZM380.784 58.288C380.096 58.288 379.536 58.088 379.104 57.688C378.672 57.288 378.456 56.792 378.456 56.2C378.456 55.608 378.672 55.112 379.104 54.712C379.536 54.312 380.096 54.112 380.784 54.112C381.472 54.112 382.032 54.304 382.464 54.688C382.896 55.072 383.112 55.552 383.112 56.128C383.112 56.752 382.896 57.272 382.464 57.688C382.032 58.088 381.472 58.288 380.784 58.288ZM386.13 55.192H389.874V73H386.13V55.192ZM393.349 55.192H397.093V73H393.349V55.192ZM413.384 60.088L407.552 73.792C406.96 75.28 406.224 76.328 405.344 76.936C404.48 77.544 403.432 77.848 402.2 77.848C401.528 77.848 400.864 77.744 400.208 77.536C399.552 77.328 399.016 77.04 398.6 76.672L399.968 74.008C400.256 74.264 400.584 74.464 400.952 74.608C401.336 74.752 401.712 74.824 402.08 74.824C402.592 74.824 403.008 74.696 403.328 74.44C403.648 74.2 403.936 73.792 404.192 73.216L404.24 73.096L398.648 60.088H402.512L406.136 68.848L409.784 60.088H413.384ZM415.176 56.2H422.808C424.632 56.2 426.24 56.552 427.632 57.256C429.04 57.944 430.128 58.92 430.896 60.184C431.68 61.448 432.072 62.92 432.072 64.6C432.072 66.28 431.68 67.752 430.896 69.016C430.128 70.28 429.04 71.264 427.632 71.968C426.24 72.656 424.632 73 422.808 73H415.176V56.2ZM422.616 69.808C424.296 69.808 425.632 69.344 426.624 68.416C427.632 67.472 428.136 66.2 428.136 64.6C428.136 63 427.632 61.736 426.624 60.808C425.632 59.864 424.296 59.392 422.616 59.392H419.064V69.808H422.616ZM440.884 73.192C439.524 73.192 438.3 72.912 437.212 72.352C436.14 71.776 435.3 70.984 434.692 69.976C434.084 68.968 433.78 67.824 433.78 66.544C433.78 65.264 434.084 64.12 434.692 63.112C435.3 62.104 436.14 61.32 437.212 60.76C438.3 60.184 439.524 59.896 440.884 59.896C442.244 59.896 443.46 60.184 444.532 60.76C445.604 61.32 446.444 62.104 447.052 63.112C447.66 64.12 447.964 65.264 447.964 66.544C447.964 67.824 447.66 68.968 447.052 69.976C446.444 70.984 445.604 71.776 444.532 72.352C443.46 72.912 442.244 73.192 440.884 73.192ZM440.884 70.12C441.844 70.12 442.628 69.8 443.236 69.16C443.86 68.504 444.172 67.632 444.172 66.544C444.172 65.456 443.86 64.592 443.236 63.952C442.628 63.296 441.844 62.968 440.884 62.968C439.924 62.968 439.132 63.296 438.508 63.952C437.884 64.592 437.572 65.456 437.572 66.544C437.572 67.632 437.884 68.504 438.508 69.16C439.132 69.8 439.924 70.12 440.884 70.12ZM463.786 60.088V70.84C463.786 73.208 463.17 74.968 461.938 76.12C460.706 77.272 458.906 77.848 456.538 77.848C455.29 77.848 454.106 77.696 452.986 77.392C451.866 77.088 450.938 76.648 450.202 76.072L451.69 73.384C452.234 73.832 452.922 74.184 453.754 74.44C454.586 74.712 455.418 74.848 456.25 74.848C457.546 74.848 458.498 74.552 459.106 73.96C459.73 73.384 460.042 72.504 460.042 71.32V70.768C459.066 71.84 457.706 72.376 455.962 72.376C454.778 72.376 453.69 72.12 452.698 71.608C451.722 71.08 450.946 70.344 450.37 69.4C449.794 68.456 449.506 67.368 449.506 66.136C449.506 64.904 449.794 63.816 450.37 62.872C450.946 61.928 451.722 61.2 452.698 60.688C453.69 60.16 454.778 59.896 455.962 59.896C457.834 59.896 459.258 60.512 460.234 61.744V60.088H463.786ZM456.706 69.304C457.698 69.304 458.506 69.016 459.13 68.44C459.77 67.848 460.09 67.08 460.09 66.136C460.09 65.192 459.77 64.432 459.13 63.856C458.506 63.264 457.698 62.968 456.706 62.968C455.714 62.968 454.898 63.264 454.258 63.856C453.618 64.432 453.298 65.192 453.298 66.136C453.298 67.08 453.618 67.848 454.258 68.44C454.898 69.016 455.714 69.304 456.706 69.304ZM471.615 73.192C470.543 73.192 469.495 73.064 468.471 72.808C467.447 72.536 466.631 72.2 466.023 71.8L467.271 69.112C467.847 69.48 468.543 69.784 469.359 70.024C470.175 70.248 470.975 70.36 471.759 70.36C473.343 70.36 474.135 69.968 474.135 69.184C474.135 68.816 473.919 68.552 473.487 68.392C473.055 68.232 472.391 68.096 471.495 67.984C470.439 67.824 469.567 67.64 468.879 67.432C468.191 67.224 467.591 66.856 467.079 66.328C466.583 65.8 466.335 65.048 466.335 64.072C466.335 63.256 466.567 62.536 467.031 61.912C467.511 61.272 468.199 60.776 469.095 60.424C470.007 60.072 471.079 59.896 472.311 59.896C473.223 59.896 474.127 60 475.023 60.208C475.935 60.4 476.687 60.672 477.279 61.024L476.031 63.688C474.895 63.048 473.655 62.728 472.311 62.728C471.511 62.728 470.911 62.84 470.511 63.064C470.111 63.288 469.911 63.576 469.911 63.928C469.911 64.328 470.127 64.608 470.559 64.768C470.991 64.928 471.679 65.08 472.623 65.224C473.679 65.4 474.543 65.592 475.215 65.8C475.887 65.992 476.471 66.352 476.967 66.88C477.463 67.408 477.711 68.144 477.711 69.088C477.711 69.888 477.471 70.6 476.991 71.224C476.511 71.848 475.807 72.336 474.879 72.688C473.967 73.024 472.879 73.192 471.615 73.192ZM503.234 56.2L495.962 73H492.122L484.874 56.2H489.074L494.186 68.2L499.37 56.2H503.234ZM511.139 56.2V73H507.251V59.32H503.891V56.2H511.139Z" fill="white"/>
<path fill-rule="evenodd" clip-rule="evenodd" d="M127.556 51.5H123.111H118.667H105.333H100.889H96.4446V69.5H100.889H105.333V78.5H118.667V69.5H123.111H127.556V51.5Z" fill="#F25C5C"/>
<rect width="4.44444" height="4.5" transform="matrix(-1 0 0 1 114.222 51.5)" fill="white"/>
<rect width="4.44444" height="4.5" transform="matrix(-1 0 0 1 118.667 74)" fill="white"/>
<rect width="4.44444" height="4.5" transform="matrix(-1 0 0 1 123.111 69.5)" fill="white"/>
<rect width="4.44444" height="4.5" transform="matrix(-1 0 0 1 127.556 65)" fill="white"/>
<rect width="4.44444" height="4.5" transform="matrix(-1 0 0 1 132 60.5)" fill="white"/>
<rect width="4.44444" height="4.5" transform="matrix(-1 0 0 1 132 56)" fill="white"/>
<rect width="4.44444" height="4.5" transform="matrix(-1 0 0 1 132 51.5)" fill="white"/>
<rect width="4.44444" height="4.5" transform="matrix(-1 0 0 1 127.556 47)" fill="white"/>
<rect width="4.44444" height="4.5" transform="matrix(-1 0 0 1 123.111 47)" fill="white"/>
<rect width="4.44444" height="4.5" transform="matrix(-1 0 0 1 118.667 47)" fill="white"/>
<rect x="109.778" y="78.5" width="4.44444" height="4.5" fill="white"/>
<rect x="105.333" y="74" width="4.44444" height="4.5" fill="white"/>
<rect x="100.889" y="69.5" width="4.44444" height="4.5" fill="white"/>
<rect x="96.4443" y="65" width="4.44445" height="4.5" fill="white"/>
<rect x="92" y="60.5" width="4.44444" height="4.5" fill="white"/>
<rect x="92" y="56" width="4.44444" height="4.5" fill="white"/>
<rect x="92" y="51.5" width="4.44444" height="4.5" fill="white"/>
<rect x="96.4443" y="47" width="4.44445" height="4.5" fill="white"/>
<rect x="100.889" y="47" width="4.44444" height="4.5" fill="white"/>
<rect x="105.333" y="47" width="4.44444" height="4.5" fill="white"/>
<rect x="96.4443" y="51.5" width="4.44445" height="10.125" fill="white"/>
<rect x="96.4443" y="51.5" width="8.88889" height="4.5" fill="white"/>
<rect width="4.44444" height="4.5" transform="matrix(-1 0 0 1 169.222 51.5)" fill="white"/>
<rect width="4.44444" height="4.5" transform="matrix(-1 0 0 1 173.667 74)" fill="white"/>
<rect width="4.44444" height="4.5" transform="matrix(-1 0 0 1 178.111 69.5)" fill="white"/>
<rect width="4.44444" height="4.5" transform="matrix(-1 0 0 1 182.556 65)" fill="white"/>
<rect width="4.44444" height="4.5" transform="matrix(-1 0 0 1 187 60.5)" fill="white"/>
<rect width="4.44444" height="4.5" transform="matrix(-1 0 0 1 187 56)" fill="white"/>
<rect width="4.44444" height="4.5" transform="matrix(-1 0 0 1 187 51.5)" fill="white"/>
<rect width="4.44444" height="4.5" transform="matrix(-1 0 0 1 182.556 47)" fill="white"/>
<rect width="4.44444" height="4.5" transform="matrix(-1 0 0 1 178.111 47)" fill="white"/>
<rect width="4.44444" height="4.5" transform="matrix(-1 0 0 1 173.667 47)" fill="white"/>
<rect x="164.778" y="78.5" width="4.44444" height="4.5" fill="white"/>
<rect x="160.333" y="74" width="4.44444" height="4.5" fill="white"/>
<rect x="155.889" y="69.5" width="4.44444" height="4.5" fill="white"/>
<rect x="151.444" y="65" width="4.44445" height="4.5" fill="white"/>
<rect x="147" y="60.5" width="4.44444" height="4.5" fill="white"/>
<rect x="147" y="56" width="4.44444" height="4.5" fill="white"/>
<rect x="147" y="51.5" width="4.44444" height="4.5" fill="white"/>
<rect x="151.444" y="47" width="4.44445" height="4.5" fill="white"/>
<rect x="155.889" y="47" width="4.44444" height="4.5" fill="white"/>
<rect x="160.333" y="47" width="4.44444" height="4.5" fill="white"/>
<rect width="4.44444" height="4.5" transform="matrix(-1 0 0 1 224.222 51.5)" fill="white"/>
<rect width="4.44444" height="4.5" transform="matrix(-1 0 0 1 228.667 74)" fill="white"/>
<rect width="4.44444" height="4.5" transform="matrix(-1 0 0 1 233.111 69.5)" fill="white"/>
<rect width="4.44444" height="4.5" transform="matrix(-1 0 0 1 237.556 65)" fill="white"/>
<rect width="4.44444" height="4.5" transform="matrix(-1 0 0 1 242 60.5)" fill="white"/>
<rect width="4.44444" height="4.5" transform="matrix(-1 0 0 1 242 56)" fill="white"/>
<rect width="4.44444" height="4.5" transform="matrix(-1 0 0 1 242 51.5)" fill="white"/>
<rect width="4.44444" height="4.5" transform="matrix(-1 0 0 1 237.556 47)" fill="white"/>
<rect width="4.44444" height="4.5" transform="matrix(-1 0 0 1 233.111 47)" fill="white"/>
<rect width="4.44444" height="4.5" transform="matrix(-1 0 0 1 228.667 47)" fill="white"/>
<rect x="219.778" y="78.5" width="4.44444" height="4.5" fill="white"/>
<rect x="215.333" y="74" width="4.44444" height="4.5" fill="white"/>
<rect x="210.889" y="69.5" width="4.44444" height="4.5" fill="white"/>
<rect x="206.444" y="65" width="4.44445" height="4.5" fill="white"/>
<rect x="202" y="60.5" width="4.44444" height="4.5" fill="white"/>
<rect x="202" y="56" width="4.44444" height="4.5" fill="white"/>
<rect x="202" y="51.5" width="4.44444" height="4.5" fill="white"/>
<rect x="206.444" y="47" width="4.44445" height="4.5" fill="white"/>
<rect x="210.889" y="47" width="4.44444" height="4.5" fill="white"/>
<rect x="215.333" y="47" width="4.44444" height="4.5" fill="white"/>
<defs>
<linearGradient id="paint0_linear_46_363" x1="84.0721" y1="-14.5928" x2="113.369" y2="210.979" gradientUnits="userSpaceOnUse">
<stop stop-color="#00A7A7"/>
<stop offset="1" stop-color="#7B129F"/>
</linearGradient>
</defs>
</svg>
