<svg width="68" height="56" viewBox="0 0 68 56" fill="none" xmlns="http://www.w3.org/2000/svg">
<path fill-rule="evenodd" clip-rule="evenodd" d="M51.3231 55.2168C52.222 55.8533 53.3806 56.0124 54.4135 55.6216C55.4464 55.228 56.2057 54.3458 56.4347 53.2766C58.8606 41.8754 64.7454 13.018 66.9537 2.64691C67.1212 1.86525 66.842 1.05287 66.2278 0.530831C65.6137 0.00878897 64.7622 -0.141961 64.0029 0.139997C52.2974 4.47266 16.2486 17.9983 1.51419 23.4504C0.578986 23.7966 -0.0295977 24.6955 0.00111068 25.681C0.0346107 26.6692 0.699027 27.5262 1.65657 27.8138C8.26444 29.7903 16.9382 32.5401 16.9382 32.5401C16.9382 32.5401 20.9917 44.7815 23.1049 51.007C23.3702 51.7886 23.9815 52.4028 24.7883 52.615C25.5923 52.8243 26.4522 52.6038 27.0524 52.0371C30.447 48.8322 35.6954 43.877 35.6954 43.877C35.6954 43.877 45.6672 51.1884 51.3231 55.2168V55.2168ZM20.5869 30.9935L25.2741 46.4537L26.3154 36.6634C26.3154 36.6634 44.4249 20.3293 54.7485 11.0191C55.05 10.7455 55.0919 10.2877 54.8406 9.96666C54.5922 9.64562 54.1343 9.57025 53.7909 9.788C41.8259 17.4288 20.5869 30.9935 20.5869 30.9935Z" fill="white"/>
</svg>
